<?xml version="1.0" standalone="no"?>
<!DOCTYPE svg PUBLIC "-//W3C//DTD SVG 1.1//EN" "http://www.w3.org/Graphics/SVG/1.1/DTD/svg11.dtd" >
<svg xmlns="http://www.w3.org/2000/svg" xmlns:xlink="http://www.w3.org/1999/xlink" version="1.1">
<metadata>
Created by FontForge 20170731 at Thu Apr  1 08:16:28 2021
 By Aleksey,,,
Copyright (c) 2009 by Jackson Cavanaugh / Okay Type &#38; Design, LLC. All rights reserved.
</metadata>
<defs>
<font id="AlrightSans-Regular" horiz-adv-x="1843" >
  <font-face 
    font-family="Alright Sans Regular"
    font-weight="325"
    font-stretch="normal"
    units-per-em="2048"
    panose-1="0 0 4 0 0 0 0 0 0 0"
    ascent="1556"
    descent="-492"
    x-height="1063"
    cap-height="1434"
    bbox="-229 -741 2503 2099"
    underline-thickness="102"
    underline-position="-307"
    unicode-range="U+0020-FB06"
  />
<missing-glyph 
d="M410 -485v2031h1024v-2031h-1024zM539 -379h766l-383 789zM1305 1442h-766l383 -795zM854 530l-338 703v-1403zM989 530l338 -700v1401z" />
    <glyph glyph-name="f_f_j" unicode="ffj" horiz-adv-x="1867" 
d="M872 0v926h-466v-926h-170v926h-189v129h189v84q0 409 413 409q176 0 328 -94q108 105 323 105q216 0 406 -121l-70 -117q-72 46 -159.5 74t-169.5 28q-134 0 -200.5 -66t-66.5 -216v-86h295v-129h-295v-926h-168zM1534 -57v1114h168v-1108q0 -379 -322 -379
q-73 0 -137 22l33 134q51 -15 88 -15q170 0 170 232zM406 1141v-86h466v88q0 123 35 207q-111 63 -245 63q-129 0 -192.5 -64.5t-63.5 -207.5z" />
    <glyph glyph-name="f_f_f" unicode="fff" horiz-adv-x="2048" 
d="M872 0v926h-466v-926h-170v926h-189v129h189v84q0 409 413 409q177 0 330 -96q103 100 305 100q177 0 332 -94q104 101 299 101q81 0 170 -29l-41 -125q-70 18 -125 18q-119 0 -180.5 -66t-61.5 -208v-94h295v-129h-295v-926h-170v926h-467v-926h-168zM1040 1055h467v88
q0 129 37 213q-111 63 -248 63q-127 0 -191.5 -66.5t-64.5 -209.5v-88zM406 1141v-86h466v84q0 127 37 211q-111 63 -247 63q-129 0 -192.5 -64.5t-63.5 -207.5z" />
    <glyph glyph-name="f_k" unicode="fk" horiz-adv-x="1875" 
d="M236 0v926h-189v129h189v92q0 207 115 309.5t317 102.5q204 0 318 -102.5t114 -311.5v-627l477 545h192l-315 -350l379 -713h-195l-295 590l-243 -268v-322h-170v1145q0 278 -262 278t-262 -278v-90h294v-129h-294v-926h-170z" />
    <glyph glyph-name="f_j" unicode="fj" horiz-adv-x="1230" 
d="M236 0v926h-189v129h189v88q0 218 110.5 317t317.5 99q214 0 407 -121l-70 -117q-73 46 -160.5 74t-168.5 28q-134 0 -200 -66t-66 -216v-86h294v-129h-294v-926h-170zM897 -57v1114h170v-1108q0 -196 -85 -287.5t-239 -91.5q-69 0 -137 22l33 134q54 -15 88 -15
q170 0 170 232z" />
    <glyph glyph-name="f_b" unicode="fb" horiz-adv-x="1976" 
d="M236 0v926h-189v129h189v92q0 207 115 309.5t317 102.5q204 0 318 -102.5t114 -311.5v-219q150 164 336 164q196 0 313 -144t117 -397q0 -270 -115 -423t-315 -153q-192 0 -346 168l-13 -141h-147v1145q0 278 -262 278t-262 -278v-90h294v-129h-294v-926h-170zM1100 268
q135 -157 299 -157q143 0 220 116t77 320q0 192 -78 298.5t-219 106.5q-160 0 -299 -159v-525z" />
    <glyph glyph-name="f_f_b" unicode="ffb" horiz-adv-x="2611" 
d="M872 0v926h-466v-926h-170v926h-189v129h189v84q0 409 413 409q178 0 334 -98q112 109 322 109q203 0 316.5 -102.5t113.5 -311.5v-219q154 164 336 164q197 0 314.5 -143.5t117.5 -397.5q0 -270 -115 -423t-315 -153q-193 0 -347 168l-14 -141h-147v1145q0 278 -262 278
q-263 0 -263 -278v-90h297v-129h-297v-926h-168zM1735 268q138 -157 299 -157q144 0 221.5 116t77.5 320q0 192 -78.5 298.5t-220.5 106.5q-160 0 -299 -159v-525zM406 1141v-86h466v92q0 122 37 203q-111 63 -247 63q-129 0 -192.5 -64.5t-63.5 -207.5z" />
    <glyph glyph-name="f_f_h" unicode="ffh" horiz-adv-x="2590" 
d="M872 0v926h-466v-926h-170v926h-189v129h189v84q0 409 413 409q178 0 334 -98q112 109 322 109q203 0 316.5 -102.5t113.5 -311.5v-225q163 170 360 170q173 0 255.5 -97.5t82.5 -271.5v-721h-170v723q0 229 -205 229q-184 0 -323 -168v-784h-170v1145q0 278 -262 278
q-263 0 -263 -278v-90h297v-129h-297v-926h-168zM406 1141v-86h466v92q0 122 37 203q-111 63 -247 63q-129 0 -192.5 -64.5t-63.5 -207.5z" />
    <glyph glyph-name="f_f_k" unicode="ffk" horiz-adv-x="2512" 
d="M872 0v926h-466v-926h-170v926h-189v129h189v84q0 409 413 409q178 0 334 -98q112 109 322 109q203 0 316.5 -102.5t113.5 -311.5v-627l477 545h192l-315 -348l381 -715h-195l-297 590l-243 -268v-322h-170v1145q0 278 -262 278q-263 0 -263 -278v-90h297v-129h-297v-926
h-168zM406 1141v-86h466v92q0 122 37 203q-111 63 -247 63q-129 0 -192.5 -64.5t-63.5 -207.5z" />
    <glyph glyph-name="f_h" unicode="fh" horiz-adv-x="1955" 
d="M236 0v926h-189v129h189v92q0 207 115 309.5t317 102.5q204 0 318 -102.5t114 -311.5v-225q163 170 360 170q173 0 254.5 -97.5t81.5 -271.5v-721h-170v723q0 229 -203 229q-184 0 -323 -168v-784h-170v1145q0 278 -262 278t-262 -278v-90h294v-129h-294v-926h-170z" />
    <glyph glyph-name="f_f" unicode="ff" horiz-adv-x="1413" 
d="M872 0v926h-466v-926h-170v926h-189v129h189v84q0 409 413 409q174 0 326 -94q102 105 303 105q83 0 172 -29l-41 -125q-74 18 -127 18q-119 0 -180.5 -66t-61.5 -208v-94h297v-129h-297v-926h-168zM406 1055h466v88q0 123 35 207q-111 63 -245 63q-129 0 -192.5 -64.5
t-63.5 -207.5v-86z" />
    <glyph glyph-name="f_i" unicode="fi" horiz-adv-x="1230" 
d="M236 0v926h-189v129h189v88q0 218 110.5 317t317.5 99q214 0 407 -121l-70 -117q-73 46 -160.5 74t-168.5 28q-134 0 -200 -66t-66 -216v-86h294v-129h-294v-926h-170zM897 0v1057h170v-1057h-170z" />
    <glyph glyph-name="f_l" unicode="fl" horiz-adv-x="1263" 
d="M236 0v926h-189v129h189v92q0 207 115 309.5t317 102.5q204 0 318 -102.5t114 -311.5v-1145h-170v1145q0 278 -262 278t-262 -278v-90h294v-129h-294v-926h-170z" />
    <glyph glyph-name="f_f_i" unicode="ffi" horiz-adv-x="1867" 
d="M872 0v926h-466v-926h-170v926h-189v129h189v84q0 409 413 409q176 0 328 -94q108 105 323 105q216 0 406 -121l-70 -117q-72 46 -159.5 74t-169.5 28q-134 0 -200.5 -66t-66.5 -216v-86h295v-129h-295v-926h-168zM1534 0v1057h168v-1057h-168zM406 1141v-86h466v88
q0 123 35 207q-111 63 -245 63q-129 0 -192.5 -64.5t-63.5 -207.5z" />
    <glyph glyph-name="f_f_l" unicode="ffl" horiz-adv-x="1898" 
d="M872 0v926h-466v-926h-170v926h-189v129h189v84q0 409 413 409q178 0 334 -98q112 109 322 109q203 0 316.5 -102.5t113.5 -311.5v-1145h-170v1145q0 278 -262 278q-263 0 -263 -278v-90h297v-129h-297v-926h-168zM406 1141v-86h466v92q0 122 37 203q-111 63 -247 63
q-129 0 -192.5 -64.5t-63.5 -207.5z" />
    <glyph glyph-name=".notdef" 
d="M410 -485v2031h1024v-2031h-1024zM539 -379h766l-383 789zM1305 1442h-766l383 -795zM854 530l-338 703v-1403zM989 530l338 -700v1401z" />
    <glyph glyph-name=".null" horiz-adv-x="0" 
 />
    <glyph glyph-name="nonmarkingreturn" horiz-adv-x="682" 
 />
    <glyph glyph-name="space" unicode=" " horiz-adv-x="512" 
 />
    <glyph glyph-name="exclam" unicode="!" horiz-adv-x="528" 
d="M217 422l-45 643v369h180v-369l-45 -643h-90zM170 0v219h186v-219h-186z" />
    <glyph glyph-name="quotedbl" unicode="&#x22;" horiz-adv-x="827" 
d="M125 920v514h192l-90 -516zM518 920v514h193l-90 -516z" />
    <glyph glyph-name="numbersign" unicode="#" horiz-adv-x="1349" 
d="M139 719v129h283l45 268h141l-45 -268h305l45 268h142l-45 -268h268v-129h-289l-53 -313h272v-127h-293l-45 -279h-141l45 279h-307l-45 -279h-139l45 279h-256v127h276l53 313h-262zM541 719l-52 -313h306l53 313h-307z" />
    <glyph glyph-name="dollar" unicode="$" horiz-adv-x="1107" 
d="M104 96l80 123q67 -42 158.5 -72t183.5 -34v387q-41 9 -65 15t-62.5 16.5t-62 20t-55.5 25t-51.5 31.5t-41.5 38.5t-33.5 48.5t-19.5 59t-8 71q0 130 103.5 217.5t287.5 96.5v198h103v-198q186 -11 342 -86l-66 -125q-132 61 -285 73v-374q50 -11 82 -19.5t78 -24
t75.5 -31t62.5 -41t52 -55t31.5 -71t12.5 -90.5q0 -131 -98.5 -218.5t-286.5 -101.5v-247h-103v245q-117 4 -226.5 38.5t-187.5 84.5zM846 291q0 33 -12.5 60.5t-32 46t-52 34.5t-63 26t-74.5 21v-364q117 9 175.5 56.5t58.5 119.5zM289 831q0 -41 17.5 -72t53.5 -52.5
t72.5 -34.5t93.5 -27v356q-114 -6 -175.5 -52.5t-61.5 -117.5z" />
    <glyph glyph-name="percent" unicode="%" horiz-adv-x="1527" 
d="M1108 1116h131l-825 -1116h-131zM106 852q0 121 85 204t210 83t210 -83t85 -204q0 -124 -84.5 -206.5t-210.5 -82.5t-210.5 82.5t-84.5 206.5zM223 852q0 -78 51 -131t129 -53q76 0 127.5 53t51.5 131q0 77 -51.5 129.5t-127.5 52.5q-77 0 -128.5 -52.5t-51.5 -129.5z
M829 266q0 121 86 204t211 83t210 -83t85 -204q0 -124 -85 -206.5t-210 -82.5q-126 0 -211.5 82.5t-85.5 206.5zM946 266q0 -78 52 -131t128 -53t127.5 53t51.5 131q0 77 -51.5 130t-127.5 53t-128 -53t-52 -130z" />
    <glyph glyph-name="ampersand" unicode="&#x26;" horiz-adv-x="1525" 
d="M90 397q0 141 82 251t219 188q-106 137 -106 278q0 143 107.5 243.5t275.5 100.5q217 0 362 -166l-110 -94q-108 123 -256 123q-95 0 -154 -60t-59 -145q0 -120 133 -270q214 -226 499 -443q88 150 88 324h154q0 -225 -121 -414q61 -46 275 -196l-95 -125
q-221 158 -278 201q-101 -103 -234 -160.5t-284 -57.5q-118 0 -214 35t-157 94.5t-94 135t-33 157.5zM989 283q-309 239 -514 454q-103 -57 -163 -140t-60 -187q0 -123 91 -206t253 -83q228 0 393 162z" />
    <glyph glyph-name="quotesingle" unicode="'" horiz-adv-x="432" 
d="M125 920v514h192l-90 -516z" />
    <glyph glyph-name="parenleft" unicode="(" horiz-adv-x="780" 
d="M125 567q0 550 373 979h194q-80 -81 -148 -178.5t-127 -219.5t-92.5 -272t-33.5 -309t33.5 -308.5t92.5 -271t126.5 -218.5t148.5 -179h-192q-375 431 -375 977z" />
    <glyph glyph-name="parenright" unicode=")" horiz-adv-x="780" 
d="M655 567q0 -547 -374 -977h-193q81 82 148.5 179t126.5 218.5t92.5 271t33.5 308.5t-33.5 309t-92.5 272t-127 219.5t-148 178.5h195q372 -428 372 -979z" />
    <glyph glyph-name="asterisk" unicode="*" horiz-adv-x="864" 
d="M264 831l113 261l-4 2l-277 -33l2 141l277 -26l2 4l-109 252l123 34l66 -264l4 -2l209 174l78 -106l-238 -133v-7l238 -141l-82 -104l-205 180l-4 -2l-72 -270z" />
    <glyph glyph-name="plus" unicode="+" horiz-adv-x="1257" 
d="M96 459v147h453v459h160v-459h452v-147h-452v-459h-160v459h-453z" />
    <glyph glyph-name="comma" unicode="," horiz-adv-x="446" 
d="M129 0v240h190v-199q0 -131 -47 -205.5t-151 -118.5l-43 76q127 62 127 207h-76z" />
    <glyph glyph-name="hyphen" unicode="-" horiz-adv-x="776" 
d="M90 461v151h598v-151h-598z" />
    <glyph glyph-name="period" unicode="." horiz-adv-x="446" 
d="M129 0v240h190v-240h-190z" />
    <glyph glyph-name="slash" unicode="/" horiz-adv-x="1034" 
d="M-23 -410l910 1956h170l-907 -1956h-173z" />
    <glyph glyph-name="zero" unicode="0" horiz-adv-x="1351" 
d="M113 559q0 127 45 236.5t121 184.5t178.5 117t216.5 42q154 0 282.5 -71.5t205.5 -205t77 -303.5q0 -171 -77 -306t-205 -206.5t-283 -71.5q-114 0 -216.5 42.5t-178.5 117t-121 185t-45 239.5zM287 559q0 -190 109.5 -314t277.5 -124q169 0 280 124t111 314t-111 312
t-280 122q-168 0 -277.5 -122t-109.5 -312z" />
    <glyph glyph-name="one" unicode="1" horiz-adv-x="819" 
d="M573 0h-172v954l-245 -102l-62 129l346 145h133v-1126z" />
    <glyph glyph-name="two" unicode="2" horiz-adv-x="1232" 
d="M1108 0h-967l-2 47q-2 85 23.5 155t71 119t105 89.5t126 69.5t133 55.5t127 53t107.5 55t74.5 68t27.5 87.5q0 92 -80 146t-207 54q-115 0 -222 -44.5t-189 -120.5l-99 114q100 87 232 139t274 52q210 0 337.5 -91.5t127.5 -244.5q0 -81 -41.5 -145.5t-108 -107
t-147.5 -77.5t-163.5 -67.5t-152 -67t-117 -84t-54.5 -111.5h784v-143z" />
    <glyph glyph-name="three" unicode="3" horiz-adv-x="1206" 
d="M92 -244l66 135q180 -90 368 -90q192 0 312 81.5t120 223.5q0 127 -100.5 189.5t-257.5 62.5h-194v138h188q140 0 225.5 66.5t85.5 193.5q0 106 -91 174.5t-247 68.5q-98 0 -200 -44t-179 -115l-96 114q220 189 483 189q224 0 363 -105.5t139 -271.5q0 -122 -67 -205
t-185 -121q141 -36 224.5 -121.5t83.5 -220.5q0 -137 -82 -238.5t-218 -151.5t-305 -50q-228 0 -436 98z" />
    <glyph glyph-name="four" unicode="4" horiz-adv-x="1302" 
d="M131 2l-55 137l755 979h189v-977h225v-139h-225v-319h-168v319h-721zM256 141h596v791z" />
    <glyph glyph-name="five" unicode="5" horiz-adv-x="1181" 
d="M96 -242l66 136q168 -91 356 -91q179 0 290.5 92t111.5 246q0 136 -97 220.5t-258 84.5q-120 0 -291 -61l-102 66l27 665h811l2 -139h-658l-18 -451q141 60 276 60q210 0 346 -122.5t136 -322.5q0 -148 -78 -259.5t-208 -167.5t-292 -56q-235 0 -420 100z" />
    <glyph glyph-name="six" unicode="6" horiz-adv-x="1286" 
d="M119 672q0 139 24.5 255.5t69 201.5t103.5 149t130.5 103t147.5 58t158 19q188 0 354 -78l-68 -127q-143 64 -286 64q-90 0 -168.5 -33.5t-143.5 -102t-104 -184.5t-43 -268q76 77 191 126.5t233 49.5q207 0 335 -123t128 -331q0 -94 -35.5 -180t-99.5 -152t-161.5 -105
t-213.5 -39t-209 36.5t-156 99.5t-105.5 152t-61.5 191t-19 218zM295 590q13 -217 106 -345t271 -128q153 0 245.5 97.5t92.5 236.5q0 145 -87.5 234t-230.5 89q-115 0 -225 -53t-172 -131z" />
    <glyph glyph-name="seven" unicode="7" horiz-adv-x="1175" 
d="M301 -317l598 1286h-809v147h991v-123l-594 -1310h-186z" />
    <glyph glyph-name="eight" unicode="8" horiz-adv-x="1345" 
d="M111 373q0 141 101 236.5t257 135.5q-128 34 -210.5 121.5t-82.5 208.5q0 174 140 278.5t358 104.5q217 0 356 -104.5t139 -278.5q0 -121 -82 -208.5t-210 -121.5q156 -40 257 -135.5t101 -236.5q0 -185 -155.5 -291.5t-405.5 -106.5t-406.5 106.5t-156.5 291.5zM283 379
q0 -122 109.5 -194t281.5 -72q171 0 280 72t109 194q0 83 -55 147t-141 100t-193 48q-108 -12 -194.5 -48t-141.5 -100t-55 -147zM674 809q147 14 235 83.5t88 180.5t-91.5 179.5t-231.5 68.5q-141 0 -232.5 -68.5t-91.5 -179.5t88.5 -180.5t235.5 -83.5z" />
    <glyph glyph-name="nine" unicode="9" horiz-adv-x="1282" 
d="M158 -242l78 123q129 -84 301 -84q90 0 168.5 33.5t143 101.5t103.5 184t43 269q-78 -78 -190.5 -127t-229.5 -49q-209 0 -342 124.5t-133 330.5q0 95 35 180.5t98.5 151.5t161.5 104.5t215 38.5t211 -36.5t158.5 -99.5t107.5 -152t62.5 -191t19.5 -218
q0 -166 -35 -300.5t-94.5 -223.5t-141 -149t-171.5 -86.5t-190 -26.5q-206 0 -379 102zM602 342q114 0 221 51.5t170 128.5q-8 141 -51 245.5t-128.5 167t-205.5 62.5q-155 0 -246.5 -96.5t-91.5 -234.5q0 -144 92.5 -234t239.5 -90z" />
    <glyph glyph-name="colon" unicode=":" horiz-adv-x="446" 
d="M129 0v240h190v-240h-190zM129 825v240h190v-240h-190z" />
    <glyph glyph-name="semicolon" unicode=";" horiz-adv-x="446" 
d="M129 0v240h190v-199q0 -131 -47 -205.5t-151 -118.5l-43 76q127 62 127 207h-76zM129 825v240h190v-240h-190z" />
    <glyph glyph-name="less" unicode="&#x3c;" horiz-adv-x="1292" 
d="M1167 172v-172l-1083 455v155l1083 455v-176l-886 -354z" />
    <glyph glyph-name="equal" unicode="=" horiz-adv-x="1257" 
d="M96 707v147h1065v-147h-1065zM96 211v147h1065v-147h-1065z" />
    <glyph glyph-name="greater" unicode="&#x3e;" horiz-adv-x="1292" 
d="M125 0v172l887 363l-887 354v176l1083 -455v-155z" />
    <glyph glyph-name="question" unicode="?" horiz-adv-x="1075" 
d="M393 422q0 2 -1 22t-1 23q0 76 22.5 136.5t58.5 100t79.5 73t87 63.5t79.5 62t58.5 78t22.5 103q0 100 -79 165t-206 65q-175 0 -326 -148l-106 101q182 192 434 192q205 0 330 -100.5t125 -265.5q0 -75 -24 -136.5t-63 -103t-86 -77.5t-94 -69t-86 -67.5t-64 -83
t-26 -106.5v-27h-135zM369 0v219h186v-219h-186z" />
    <glyph glyph-name="at" unicode="@" horiz-adv-x="1714" 
d="M137 573q0 203 99.5 374t271 270.5t375.5 99.5q200 0 359 -86.5t247 -239t88 -342.5q0 -114 -35.5 -209t-93 -154t-127 -91.5t-141.5 -32.5q-91 0 -144 43.5t-63 113.5q-43 -58 -107.5 -93.5t-138.5 -35.5q-106 0 -174 74t-68 201q0 68 17.5 138.5t53 136t84 117
t116.5 82t145 30.5q120 0 195 -99l30 78h113l-143 -497q-26 -93 0.5 -146t101.5 -53q112 0 198.5 109t86.5 288q0 252 -168 413t-432 161q-132 0 -252.5 -51.5t-207.5 -138.5t-138.5 -207.5t-51.5 -252.5q0 -174 87 -322.5t237 -235.5t326 -87q184 0 348 101l53 -78
q-183 -119 -401 -119q-153 0 -291 58.5t-237.5 157.5t-158.5 236.5t-59 288.5zM614 471q0 -82 38 -129t106 -47q73 0 135 51.5t90 149.5l84 290q-64 76 -160 76q-86 0 -155.5 -64t-103.5 -152.5t-34 -174.5z" />
    <glyph glyph-name="A" unicode="A" horiz-adv-x="1417" 
d="M61 0l543 1434h209l541 -1434h-189l-129 352h-657l-127 -352h-191zM705 1255l-275 -761h555l-276 761h-4z" />
    <glyph glyph-name="B" unicode="B" horiz-adv-x="1380" 
d="M172 0v1434h563q232 0 352.5 -104.5t120.5 -268.5q0 -119 -63 -200.5t-170 -119.5q134 -35 212.5 -121.5t78.5 -218.5q0 -190 -130 -295.5t-358 -105.5h-606zM346 147h430q149 0 230 68t81 197q0 117 -85.5 182t-225.5 65h-430v-512zM346 799h381q149 0 226 70t77 180
q0 104 -76.5 170.5t-226.5 66.5h-381v-487z" />
    <glyph glyph-name="C" unicode="C" horiz-adv-x="1454" 
d="M113 731q0 213 91 378.5t255.5 257t376.5 91.5q273 0 475 -155l-94 -127q-173 131 -379 131q-246 0 -397.5 -158.5t-151.5 -417.5q0 -272 149.5 -438t399.5 -166q235 0 397 156l108 -115q-202 -193 -512 -193q-212 0 -375.5 95t-253 267t-89.5 394z" />
    <glyph glyph-name="D" unicode="D" horiz-adv-x="1460" 
d="M172 0v1434h414q369 0 567.5 -187.5t198.5 -521.5q0 -346 -193 -535.5t-573 -189.5h-414zM346 147h250q285 0 432.5 152t147.5 426q0 261 -151 411t-429 150h-250v-1139z" />
    <glyph glyph-name="E" unicode="E" horiz-adv-x="1300" 
d="M172 0v1434h983v-156h-809v-475h729v-146h-729v-501h821v-156h-995z" />
    <glyph glyph-name="F" unicode="F" horiz-adv-x="1265" 
d="M172 0v1434h967v-156h-793v-487h696v-150h-696v-641h-174z" />
    <glyph glyph-name="G" unicode="G" horiz-adv-x="1488" 
d="M113 731q0 158 52 293t145.5 230.5t229 149.5t296.5 54q266 0 481 -141l-90 -127q-179 117 -387 117q-246 0 -397.5 -160t-151.5 -416q0 -278 146.5 -441t402.5 -163q199 0 334 84v410h-400v133h561v-633q-101 -70 -230 -108t-269 -38q-331 0 -527 206.5t-196 549.5z" />
    <glyph glyph-name="H" unicode="H" horiz-adv-x="1437" 
d="M172 0v1434h174v-627h746v627h174v-1434h-174v653h-746v-653h-174z" />
    <glyph glyph-name="I" unicode="I" horiz-adv-x="516" 
d="M172 0v1434h174v-1434h-174z" />
    <glyph glyph-name="J" unicode="J" horiz-adv-x="1169" 
d="M98 272l142 80q92 -221 299 -221q145 0 217.5 90.5t72.5 251.5v961h175v-963q0 -234 -117.5 -365t-339.5 -131q-161 0 -274.5 81t-174.5 216z" />
    <glyph glyph-name="K" unicode="K" horiz-adv-x="1372" 
d="M172 0v1434h174v-801l694 801h203l-467 -537l522 -897h-204l-432 766l-316 -360v-406h-174z" />
    <glyph glyph-name="L" unicode="L" horiz-adv-x="1239" 
d="M172 0v1434h174v-1278h803v-156h-977z" />
    <glyph glyph-name="M" unicode="M" horiz-adv-x="1740" 
d="M172 0v1434h188l512 -744l512 744h187v-1434h-170v1186l-531 -762l-530 764v-1188h-168z" />
    <glyph glyph-name="N" unicode="N" horiz-adv-x="1484" 
d="M172 0v1434h176l797 -1164v1164h168v-1434h-178l-795 1161v-1161h-168z" />
    <glyph glyph-name="O" unicode="O" horiz-adv-x="1656" 
d="M113 727q0 216 95 384t257.5 257.5t363.5 89.5q149 0 281 -52.5t228 -146.5t152 -232t56 -300q0 -169 -55 -311t-151 -238.5t-227.5 -149.5t-283.5 -53t-283.5 53t-227 149.5t-150.5 238.5t-55 311zM291 727q0 -138 41.5 -251.5t114 -189.5t170.5 -117.5t212 -41.5
q113 0 211.5 41.5t171 117.5t114.5 190t42 251q0 130 -42 239.5t-114.5 183.5t-171.5 115.5t-211 41.5t-211 -41.5t-171 -115.5t-114 -183.5t-42 -239.5z" />
    <glyph glyph-name="P" unicode="P" horiz-adv-x="1353" 
d="M172 0v1434h569q107 0 192.5 -24.5t141 -65t93 -96t53.5 -116t16 -126.5q0 -64 -16 -124t-54 -117t-94 -99t-142 -67.5t-192 -25.5h-393v-573h-174zM346 717h391q85 0 150 24.5t102 66.5t55.5 91.5t18.5 104.5q0 120 -79.5 201t-242.5 81h-395v-569z" />
    <glyph glyph-name="Q" unicode="Q" horiz-adv-x="1673" 
d="M113 727q0 216 95 384t257.5 257.5t363.5 89.5q149 0 281 -52.5t228 -146.5t152 -232t56 -300q0 -298 -164 -502l183 -153l-99 -105l-182 162q-189 -154 -455 -154q-152 0 -283.5 53t-227 149.5t-150.5 238.5t-55 311zM897 467l92 104l264 -235q115 160 115 391
q0 130 -42 239.5t-114.5 183.5t-171.5 115.5t-211 41.5t-211 -41.5t-171 -115.5t-114 -183.5t-42 -239.5q0 -138 41.5 -251.5t114 -189.5t170.5 -117.5t212 -41.5q192 0 332 115z" />
    <glyph glyph-name="R" unicode="R" horiz-adv-x="1398" 
d="M172 0v1434h600q106 0 191 -24.5t141 -65t93 -96t53 -116t16 -126.5q0 -137 -77 -248t-226 -156l305 -602h-193l-274 578h-23h-432v-578h-174zM346 717h422q83 0 147 24.5t101 66t55.5 91t18.5 105.5q0 121 -79 201.5t-241 80.5h-424v-569z" />
    <glyph glyph-name="S" unicode="S" horiz-adv-x="1261" 
d="M106 123l87 139q200 -131 442 -131q164 0 250 67t86 177q0 62 -28.5 107.5t-77.5 73t-112 48t-132.5 37.5t-139 36.5t-132.5 50t-112 72t-77.5 109.5t-28.5 156q0 169 133 281t359 112q250 0 475 -108l-68 -144q-196 97 -401 97q-146 0 -231 -66.5t-85 -169.5
q0 -62 28.5 -107.5t77 -73t111.5 -47.5t132.5 -37t139 -36t132.5 -49.5t111.5 -72.5t77 -110.5t28.5 -158.5q0 -177 -132.5 -288.5t-383.5 -111.5q-150 0 -290 41.5t-239 106.5z" />
    <glyph glyph-name="T" unicode="T" horiz-adv-x="1333" 
d="M580 0v1278h-519v156h1213v-156h-520v-1278h-174z" />
    <glyph glyph-name="U" unicode="U" horiz-adv-x="1466" 
d="M166 530v904h176v-904q0 -190 110 -296.5t281 -106.5t282 106.5t111 296.5v904h174v-904q0 -135 -43.5 -242t-120.5 -174.5t-179.5 -103t-223.5 -35.5t-223.5 35.5t-179.5 103t-120.5 174.5t-43.5 242z" />
    <glyph glyph-name="V" unicode="V" horiz-adv-x="1394" 
d="M594 0l-533 1434h193l440 -1239h4l445 1239h192l-536 -1434h-205z" />
    <glyph glyph-name="W" unicode="W" horiz-adv-x="2117" 
d="M520 0l-454 1434h186l369 -1196h4l350 1196h172l348 -1196h4l371 1196h184l-457 -1434h-192l-344 1171h-4l-344 -1171h-193z" />
    <glyph glyph-name="X" unicode="X" horiz-adv-x="1415" 
d="M78 0l520 731l-496 703h213l396 -566l393 566h211l-498 -703l520 -731h-215l-415 596l-414 -596h-215z" />
    <glyph glyph-name="Y" unicode="Y" horiz-adv-x="1370" 
d="M598 0v584l-541 850h207l420 -682h4l420 682h205l-541 -850v-584h-174z" />
    <glyph glyph-name="Z" unicode="Z" horiz-adv-x="1325" 
d="M115 0v145l858 1131h-856v158h1077v-144l-854 -1130h877v-160h-1102z" />
    <glyph glyph-name="bracketleft" unicode="[" horiz-adv-x="794" 
d="M344 -281h318v-129h-490v1956h490v-129h-318v-1698z" />
    <glyph glyph-name="backslash" unicode="\" horiz-adv-x="1034" 
d="M147 1546l910 -1956h-172l-908 1956h170z" />
    <glyph glyph-name="bracketright" unicode="]" horiz-adv-x="794" 
d="M133 -281h318v1698h-318v129h490v-1956h-490v129z" />
    <glyph glyph-name="asciicircum" unicode="^" horiz-adv-x="1114" 
d="M193 1151l286 365h158l285 -365h-136l-227 221l-231 -221h-135z" />
    <glyph glyph-name="underscore" unicode="_" horiz-adv-x="1126" 
d="M0 -27h1126v-149h-1126v149z" />
    <glyph glyph-name="grave" unicode="`" horiz-adv-x="1296" 
d="M735 1176l-289 270l121 92l285 -362h-117z" />
    <glyph glyph-name="a" unicode="a" horiz-adv-x="1085" 
d="M100 246q0 77 35.5 138t94.5 100.5t143 66.5t173 40t193 17v156q0 84 -51.5 133t-155.5 49q-143 0 -335 -98l-66 135q217 104 406 104t280.5 -88t91.5 -237v-531q0 -108 107 -108v-125q-111 0 -169.5 31.5t-86.5 101.5q-142 -156 -348 -156q-140 0 -226 75t-86 196z
M268 258q0 -69 49.5 -110.5t131.5 -41.5q92 0 168 38.5t122 97.5v258q-471 -22 -471 -242z" />
    <glyph glyph-name="b" unicode="b" horiz-adv-x="1208" 
d="M166 0v1546h170v-620q150 161 336 161q197 0 314.5 -142.5t117.5 -395.5q0 -272 -115.5 -423t-316.5 -151q-195 0 -344 166l-15 -141h-147zM336 268q133 -155 299 -155q144 0 220.5 115t76.5 319q0 192 -78 297.5t-219 105.5q-162 0 -299 -157v-525z" />
    <glyph glyph-name="c" unicode="c" horiz-adv-x="1056" 
d="M102 543q0 249 141 396.5t365 147.5q203 0 346 -114l-90 -117q-115 88 -252 88q-150 0 -244 -109t-94 -292q0 -197 92.5 -311.5t245.5 -114.5q147 0 267 102l98 -104q-81 -71 -168 -105.5t-201 -34.5q-227 0 -366.5 153.5t-139.5 414.5z" />
    <glyph glyph-name="d" unicode="d" horiz-adv-x="1206" 
d="M535 -25q-201 0 -316 151t-115 423q0 253 117.5 395.5t315.5 142.5q183 0 337 -161v620h170v-1546h-147l-16 141q-152 -166 -346 -166zM573 113q165 0 301 155v525q-141 157 -301 157q-141 0 -220 -105.5t-79 -297.5q0 -204 77.5 -319t221.5 -115z" />
    <glyph glyph-name="e" unicode="e" horiz-adv-x="1159" 
d="M104 543q0 247 143 397t365 150q215 0 326 -131.5t111 -344.5q0 -38 -9 -90h-766q3 -197 92 -303t259 -106q160 0 311 100l76 -115q-83 -60 -186 -93.5t-210 -33.5q-242 0 -377 151.5t-135 418.5zM616 958q-130 0 -220 -85.5t-115 -233.5h604q1 92 -24.5 161.5
t-87.5 113.5t-157 44z" />
    <glyph glyph-name="f" unicode="f" horiz-adv-x="778" 
d="M236 0v926h-189v129h189v92q0 412 407 412q83 0 172 -29l-43 -125q-70 18 -125 18q-120 0 -180.5 -65.5t-60.5 -208.5v-94h294v-129h-294v-926h-170z" />
    <glyph glyph-name="g" unicode="g" horiz-adv-x="1175" 
d="M66 -150q0 76 47.5 134.5t130.5 95.5q-80 56 -80 145q0 102 104 164q-164 114 -164 311q0 170 126 278.5t313 108.5q166 0 286 -90q124 96 291 93v-129q-148 0 -219 -31q80 -100 80 -230q0 -117 -62 -208t-161 -138t-215 -47q-103 0 -185 33q-59 -29 -59 -86
q0 -27 14.5 -46t38 -31t68.5 -20t90.5 -12t118.5 -8q107 -6 188.5 -22t146 -47.5t98.5 -83.5t34 -123q0 -139 -132.5 -215t-388.5 -76q-245 0 -377 72.5t-132 207.5zM543 432q118 0 196 75t78 193q0 115 -78 190t-196 75t-196.5 -75t-78.5 -190q0 -117 78.5 -192.5
t196.5 -75.5zM596 0q-115 3 -221 27q-67 -23 -107.5 -67t-40.5 -103q0 -166 340 -166q179 0 273 39.5t94 115.5q0 78 -83 112t-255 42z" />
    <glyph glyph-name="h" unicode="h" horiz-adv-x="1185" 
d="M166 0v1546h170v-626q163 170 360 170q174 0 255 -97.5t81 -271.5v-721h-168v723q0 229 -205 229q-184 0 -323 -168v-784h-170z" />
    <glyph glyph-name="i" unicode="i" horiz-adv-x="499" 
d="M166 0v1057h170v-1057h-170zM166 1327v195h170v-195h-170z" />
    <glyph glyph-name="j" unicode="j" horiz-adv-x="518" 
d="M184 -57v1114h168v-1108q0 -379 -321 -379q-73 0 -137 22l32 134q51 -15 88 -15q170 0 170 232zM184 1327v195h168v-195h-168z" />
    <glyph glyph-name="k" unicode="k" horiz-adv-x="1097" 
d="M166 0v1546h170v-1028l477 545h193l-324 -358l373 -705h-195l-291 580l-233 -258v-322h-170z" />
    <glyph glyph-name="l" unicode="l" horiz-adv-x="501" 
d="M166 0v1546h170v-1546h-170z" />
    <glyph glyph-name="m" unicode="m" horiz-adv-x="1824" 
d="M158 0v1063h157l11 -137q73 74 163 119t187 45q220 0 293 -177q177 177 377 177q163 0 244 -98t81 -269v-723h-170v727q0 225 -192 225q-175 0 -310 -157q5 -63 5 -80v-715h-173v727q0 225 -192 225q-179 0 -311 -164v-788h-170z" />
    <glyph glyph-name="n" unicode="n" horiz-adv-x="1177" 
d="M158 0v1063h157l11 -143q163 170 364 170q173 0 254.5 -97.5t81.5 -271.5v-721h-170v723q0 229 -203 229q-187 0 -325 -170v-782h-170z" />
    <glyph glyph-name="o" unicode="o" horiz-adv-x="1230" 
d="M104 545q0 244 144.5 393t367.5 149t365.5 -149t142.5 -393q0 -261 -139.5 -415.5t-368.5 -154.5q-232 0 -372 154.5t-140 415.5zM276 545q0 -198 91.5 -316t248.5 -118q153 0 244.5 118.5t91.5 315.5q0 182 -93.5 293.5t-242.5 111.5q-150 0 -245 -111.5t-95 -293.5z
" />
    <glyph glyph-name="p" unicode="p" horiz-adv-x="1204" 
d="M332 137v-547h-168v1473h149l15 -141q151 165 342 165q196 0 313 -142.5t117 -395.5q0 -272 -114.5 -423t-313.5 -151q-188 0 -340 162zM332 268q133 -155 301 -155q143 0 220 115t77 319q0 192 -78.5 297.5t-220.5 105.5q-158 0 -299 -157v-525z" />
    <glyph glyph-name="q" unicode="q" horiz-adv-x="1206" 
d="M573 113q165 0 301 155v525q-141 157 -301 157q-141 0 -220 -105.5t-79 -297.5q0 -203 78 -318.5t221 -115.5zM535 -25q-201 0 -316 151t-115 423q0 253 117.5 395.5t315.5 142.5q189 0 340 -165l16 141h151v-1473h-170v547q-152 -162 -339 -162z" />
    <glyph glyph-name="r" unicode="r" horiz-adv-x="827" 
d="M158 0v1063h153l15 -180q122 207 323 207q70 0 135 -21l-32 -160q-61 23 -125 23q-178 0 -299 -217v-715h-170z" />
    <glyph glyph-name="s" unicode="s" horiz-adv-x="972" 
d="M80 86l76 123q156 -96 331 -96q111 0 172.5 42t61.5 121q0 42 -21 73.5t-57 51t-83 34.5t-98.5 28t-102.5 28t-98 38.5t-83 55t-57 81.5t-21 114q0 140 107.5 223.5t275.5 83.5q183 0 363 -83l-68 -130q-65 34 -145 55t-150 21q-98 0 -156.5 -44t-58.5 -120
q0 -47 26.5 -80.5t70 -51t99 -34.5t114 -29t114 -36t99 -55t70 -86t26.5 -129q0 -147 -107 -228.5t-293 -81.5q-226 0 -407 111z" />
    <glyph glyph-name="t" unicode="t" horiz-adv-x="800" 
d="M233 283v649h-186v131h186v311h170v-311h306v-131h-306v-647q0 -170 140 -170q84 0 157 51l66 -111q-112 -80 -242 -80q-149 0 -220 77t-71 231z" />
    <glyph glyph-name="u" unicode="u" horiz-adv-x="1179" 
d="M154 344v719h170v-723q0 -110 46 -169.5t156 -59.5q187 0 328 170v782h170v-1063h-154l-14 143q-164 -168 -364 -168q-174 0 -256 97.5t-82 271.5z" />
    <glyph glyph-name="v" unicode="v" horiz-adv-x="1034" 
d="M422 0l-377 1063h176l297 -877h4l297 877h170l-379 -1063h-188z" />
    <glyph glyph-name="w" unicode="w" horiz-adv-x="1669" 
d="M408 0l-363 1063h174l281 -852h4l256 852h151l258 -852h5l278 852h170l-360 -1063h-170l-256 825h-5l-253 -825h-170z" />
    <glyph glyph-name="x" unicode="x" horiz-adv-x="1052" 
d="M61 0l361 537l-346 526h186l264 -410l265 410h184l-344 -526l358 -537h-184l-281 422l-280 -422h-183z" />
    <glyph glyph-name="y" unicode="y" horiz-adv-x="1040" 
d="M82 -258q79 -31 129 -31q61 0 100 28t66 99l65 168l-395 1057h176l301 -840h4l293 840h172l-448 -1237q-54 -143 -133.5 -199.5t-194.5 -56.5q-95 0 -184 35z" />
    <glyph glyph-name="z" unicode="z" horiz-adv-x="1026" 
d="M102 0v119l603 807h-586v137h799v-121l-601 -805h621v-137h-836z" />
    <glyph glyph-name="braceleft" unicode="{" horiz-adv-x="933" 
d="M694 -283h115v-127h-123q-344 0 -344 306v401q0 97 -40.5 140.5t-137.5 43.5h-94v154h94q97 0 137.5 44t40.5 142v420q0 305 344 305h123v-127h-115q-99 0 -140.5 -42t-41.5 -138v-410q0 -220 -180 -268v-2q180 -54 180 -272v-389q0 -96 41.5 -138.5t140.5 -42.5z" />
    <glyph glyph-name="bar" unicode="|" horiz-adv-x="585" 
d="M213 -410v1956h162v-1956h-162z" />
    <glyph glyph-name="braceright" unicode="}" horiz-adv-x="933" 
d="M125 -283h115q99 0 140.5 42.5t41.5 138.5v389q0 218 180 272v2q-180 48 -180 268v410q0 96 -41.5 138t-140.5 42h-115v127h123q344 0 344 -305v-420q0 -98 40.5 -142t137.5 -44h94v-154h-94q-97 0 -137.5 -43.5t-40.5 -140.5v-401q0 -306 -344 -306h-123v127z" />
    <glyph glyph-name="asciitilde" unicode="~" horiz-adv-x="1165" 
d="M152 406q-2 16 -2 43q0 126 61 201t168 75q46 0 93 -21t85 -50.5t74 -59.5t75.5 -51t75.5 -21q56 0 84.5 42t24.5 124h123q2 -16 2 -43q0 -126 -61 -200t-169 -74q-47 0 -94 21t-85 50.5t-74.5 59t-75.5 50.5t-74 21q-56 0 -85.5 -43.5t-23.5 -123.5h-122z" />
    <glyph glyph-name="nbspace" unicode="&#xa0;" horiz-adv-x="512" 
 />
    <glyph glyph-name="exclamdown" unicode="&#xa1;" horiz-adv-x="526" 
d="M172 0l45 643h90l45 -643v-369h-180v369zM170 846v219h186v-219h-186z" />
    <glyph glyph-name="cent" unicode="&#xa2;" horiz-adv-x="1224" 
d="M100 571q0 251 167 410.5t435 159.5q23 0 35 -2l49 200h109l-51 -213q136 -27 260 -112l-86 -117q-103 71 -213 92l-203 -864q55 -10 103 -10q194 0 327 121l103 -103q-180 -160 -433 -160q-49 0 -124 11l-60 -256h-108l67 280q-177 61 -277 210.5t-100 352.5zM266 571
q0 -151 66 -260.5t186 -160.5l197 849h-10q-194 0 -316.5 -118.5t-122.5 -309.5z" />
    <glyph glyph-name="sterling" unicode="&#xa3;" horiz-adv-x="1210" 
d="M180 535v108h180q-73 118 -73 223q0 120 90 197.5t248 77.5q129 0 216.5 -53t133.5 -132l-133 -61q-28 48 -80.5 82.5t-128.5 34.5q-86 0 -134 -42t-48 -108q0 -54 22 -105t66 -116h284v-106h-215q64 -109 64 -216q0 -57 -23 -118q70 -46 127 -70.5t117 -24.5
q74 0 109 46.5t28 138.5h150q20 -151 -48 -233.5t-206 -82.5q-92 0 -172 36t-162 98q-55 -62 -134 -98t-159 -36q-99 0 -160 56.5t-61 140.5t62 139.5t155 55.5q99 0 223 -76v12q0 63 -20.5 114t-63.5 118h-254zM299 72q54 0 106.5 30.5t83.5 85.5q-115 82 -190 82
q-50 0 -82.5 -28t-32.5 -70q0 -43 30.5 -71.5t84.5 -28.5z" />
    <glyph glyph-name="currency" unicode="&#xa4;" horiz-adv-x="1349" 
d="M133 547q0 199 127 348l-113 119l84 80l111 -121q146 114 334 114q184 0 330 -114l114 121l84 -80l-117 -121q130 -153 130 -346q0 -195 -127 -348l114 -121l-84 -78l-112 121q-147 -115 -332 -115q-190 0 -334 113l-111 -119l-84 78l111 121q-125 151 -125 348zM287 547
q0 -161 114 -275t275 -114t275 114t114 275t-114 275t-275 114t-275 -114t-114 -275z" />
    <glyph glyph-name="yen" unicode="&#xa5;" horiz-adv-x="1191" 
d="M129 418v106h379l-449 592h203l332 -448h2l334 448h200l-450 -592h377v-106h-377v-129h377v-105h-377v-184h-172v184h-379v105h379v129h-379z" />
    <glyph glyph-name="brokenbar" unicode="&#xa6;" horiz-adv-x="585" 
d="M213 352h162v-762h-162v762zM213 713v833h162v-833h-162z" />
    <glyph glyph-name="section" unicode="&#xa7;" horiz-adv-x="1091" 
d="M956 338q0 -122 -125 -215q89 -76 89 -189q0 -133 -105.5 -207.5t-286.5 -74.5q-106 0 -206 43.5t-168 114.5l110 92q49 -55 120.5 -88t150.5 -33q102 0 161.5 38.5t59.5 110.5q0 49 -34 85.5t-88.5 60t-120.5 44.5t-132.5 47.5t-121 60.5t-88.5 91t-34 132
q0 122 123 213q-86 76 -86 190q0 133 104 208t285 75q107 0 207.5 -43t169.5 -115l-113 -92q-48 53 -119 86t-151 33q-102 0 -161.5 -38t-59.5 -110q0 -49 34 -85.5t89 -60t121 -45t132 -47.5t121 -60t89 -90.5t34 -131.5zM803 317q0 52 -27 91t-78 65.5t-102.5 44.5
t-122.5 41.5t-115 44.5q-69 -58 -69 -133q0 -52 27 -91.5t77.5 -66t101.5 -45t122 -42t116 -44.5q70 62 70 135z" />
    <glyph glyph-name="dieresis" unicode="&#xa8;" horiz-adv-x="1316" 
d="M780 1253v168h156v-168h-156zM381 1253v168h156v-168h-156z" />
    <glyph glyph-name="copyright" unicode="&#xa9;" horiz-adv-x="1759" 
d="M475 573q0 174 119 291t301 117q159 0 283 -90l-74 -98q-99 73 -207 73q-125 0 -207 -83t-82 -210q0 -135 80.5 -214.5t208.5 -79.5q130 0 215 79l82 -84q-120 -114 -299 -114q-188 0 -304 113t-116 300zM135 573q0 203 99.5 374t270.5 270.5t374 99.5q152 0 290 -59
t237.5 -158.5t158.5 -237t59 -289.5q0 -151 -59 -288.5t-158.5 -236.5t-237.5 -157.5t-290 -58.5t-289.5 58.5t-237 157.5t-158.5 236.5t-59 288.5zM231 573q0 -174 87 -322.5t237 -235.5t326 -87t325.5 87t236.5 235.5t87 322.5q0 132 -51.5 252.5t-138.5 207.5t-207 138.5
t-252 51.5t-252.5 -51.5t-207.5 -138.5t-138.5 -207.5t-51.5 -252.5z" />
    <glyph glyph-name="ordfeminine" unicode="&#xaa;" horiz-adv-x="768" 
d="M76 872q0 232 438 252v101q0 53 -34 84.5t-105 31.5q-98 0 -232 -69l-47 100q144 74 283 74q129 0 192.5 -60.5t63.5 -162.5v-355q0 -73 74 -73v-95q-77 0 -117.5 21t-63.5 67q-95 -102 -233 -102q-97 0 -158 51.5t-61 134.5zM199 883q0 -45 32.5 -73t85.5 -28
q118 0 197 86v172q-315 -13 -315 -157z" />
    <glyph glyph-name="guillemotleft" unicode="&#xab;" horiz-adv-x="1253" 
d="M274 535l355 -445l-121 -90l-410 535l410 530l121 -92zM782 535l355 -445l-121 -90l-410 535l410 530l121 -92z" />
    <glyph glyph-name="logicalnot" unicode="&#xac;" horiz-adv-x="1265" 
d="M125 973v143h1016v-545h-178v402h-838z" />
    <glyph glyph-name="registered" unicode="&#xae;" horiz-adv-x="1759" 
d="M575 182v785h369q77 0 135 -20.5t91 -56t49 -78t16 -91.5q0 -72 -43 -134t-131 -89q9 -15 87.5 -155t92.5 -161h-143l-162 301h-229v-301h-132zM707 584h223q90 0 133 41t43 96q0 60 -41.5 100.5t-132.5 40.5h-225v-278zM135 573q0 203 99.5 374t270.5 270.5t374 99.5
q152 0 290 -59t237.5 -158.5t158.5 -237t59 -289.5q0 -151 -59 -288.5t-158.5 -236.5t-237.5 -157.5t-290 -58.5t-289.5 58.5t-237 157.5t-158.5 236.5t-59 288.5zM231 573q0 -174 86.5 -322.5t236 -235.5t325.5 -87t326 87t237.5 235.5t87.5 322.5q0 132 -52 252.5
t-139 207.5t-207.5 138.5t-252.5 51.5t-252 -51.5t-206.5 -138.5t-138 -207.5t-51.5 -252.5z" />
    <glyph glyph-name="macron" unicode="&#xaf;" horiz-adv-x="1312" 
d="M362 1278v119h603v-119h-603z" />
    <glyph glyph-name="degree" unicode="&#xb0;" horiz-adv-x="849" 
d="M426 807q-139 0 -236.5 91t-97.5 235q0 139 98 233t234 94q135 0 233.5 -94t98.5 -233q0 -144 -96.5 -235t-233.5 -91zM426 915q89 0 152 62t63 156q0 93 -63 155t-152 62t-154 -62.5t-65 -154.5q0 -93 64.5 -155.5t154.5 -62.5z" />
    <glyph glyph-name="plusminus" unicode="&#xb1;" horiz-adv-x="1257" 
d="M96 0v125h453v379h-453v147h453v414h160v-414h452v-147h-452v-379h452v-125h-1065z" />
    <glyph glyph-name="two.sups" unicode="&#xb2;" horiz-adv-x="688" 
d="M88 1024v57q-2 68 20 122t58 87t80 59.5t88.5 47t81 41.5t59.5 50t23 66q0 47 -40.5 78t-113.5 31q-106 0 -190 -88l-78 72q52 52 123.5 83t150.5 31q127 0 196.5 -58.5t69.5 -150.5q0 -52 -22 -93t-57.5 -67t-78.5 -48.5t-86 -43t-79 -43.5t-58.5 -57.5t-23.5 -77.5h405
v-98h-528z" />
    <glyph glyph-name="three.sups" unicode="&#xb3;" horiz-adv-x="681" 
d="M76 1067l43 94q97 -53 192 -53q83 0 137 37.5t54 95.5q0 56 -42 84.5t-116 28.5h-106v94h100q67 0 103 29.5t36 81.5q0 45 -38.5 74.5t-104.5 29.5q-108 0 -195 -80l-65 76q118 102 262 102q114 0 187 -53t73 -135q0 -117 -111 -164q138 -48 138 -170q0 -106 -89 -167.5
t-221 -61.5q-125 0 -237 57z" />
    <glyph glyph-name="acute" unicode="&#xb4;" horiz-adv-x="1296" 
d="M444 1176l285 362l121 -92l-289 -270h-117z" />
    <glyph glyph-name="mu" unicode="&#xb5;" horiz-adv-x="1128" 
d="M291 82l-15 -492h-151v1526h172v-794q5 -100 52.5 -154.5t150.5 -54.5q187 0 329 168v835h172v-1116h-157l-10 137q-146 -160 -320 -160q-164 0 -223 105z" />
    <glyph glyph-name="paragraph" unicode="&#xb6;" horiz-adv-x="1413" 
d="M694 0v586h-82q-101 0 -184 25.5t-137.5 67.5t-92.5 97.5t-54.5 113.5t-16.5 118q0 64 16 123.5t53 115t91 96.5t137 66t184 25h623v-1434h-154v1305h-229v-1305h-154z" />
    <glyph glyph-name="periodcentered" unicode="&#xb7;" horiz-adv-x="446" 
d="M129 414v239h190v-239h-190z" />
    <glyph glyph-name="cedilla" unicode="&#xb8;" horiz-adv-x="1296" 
d="M477 -379q102 82 172 184t86 213h109q-12 -133 -73.5 -251.5t-164.5 -210.5z" />
    <glyph glyph-name="one.sups" unicode="&#xb9;" horiz-adv-x="587" 
d="M289 1024v608l-152 -80l-47 86l223 111h93v-725h-117z" />
    <glyph glyph-name="ordmasculine" unicode="&#xba;" horiz-adv-x="866" 
d="M72 1075q0 167 100 269t254 102q155 0 254.5 -102t99.5 -269q0 -180 -97 -284.5t-257 -104.5q-161 0 -257.5 104.5t-96.5 284.5zM195 1073q0 -130 62 -207.5t169 -77.5q104 0 166.5 78t62.5 207q0 121 -63.5 195.5t-165.5 74.5t-166.5 -74.5t-64.5 -195.5z" />
    <glyph glyph-name="guillemotright" unicode="&#xbb;" horiz-adv-x="1253" 
d="M117 90l354 445l-354 438l121 92l409 -530l-409 -535zM627 90l354 445l-354 438l121 92l409 -530l-409 -535z" />
    <glyph glyph-name="onequarter" unicode="&#xbc;" horiz-adv-x="1529" 
d="M946 154l-37 88l369 483h131v-477h107v-94h-107v-154h-115v154h-348zM1032 248h262v352zM166 0l1200 1434h133l-1200 -1434h-133zM311 717v608l-151 -80l-47 86l223 111h92v-725h-117z" />
    <glyph glyph-name="onehalf" unicode="&#xbd;" horiz-adv-x="1640" 
d="M1096 0v57q-2 68 20 122t58 87t79.5 59.5t88 47t81 41.5t59.5 50t23 66q0 47 -40 78t-113 31q-53 0 -103.5 -24.5t-87.5 -63.5l-78 72q52 52 124 83t151 31q127 0 196.5 -58.5t69.5 -150.5q0 -52 -22 -93t-57.5 -67t-78.5 -48.5t-86 -43t-79 -43.5t-58.5 -57.5
t-23.5 -77.5h405v-98h-528zM164 0l1200 1434h133l-1200 -1434h-133zM311 717v608l-151 -80l-47 86l223 111h92v-725h-117z" />
    <glyph glyph-name="threequarters" unicode="&#xbe;" horiz-adv-x="1523" 
d="M53 760l43 94q97 -53 193 -53q83 0 136.5 37.5t53.5 95.5q0 56 -41.5 84.5t-115.5 28.5h-107v94h100q67 0 103.5 29.5t36.5 80.5q0 45 -39 75t-105 30q-107 0 -194 -80l-66 76q118 102 262 102q114 0 187 -53t73 -135q0 -117 -110 -164q137 -47 137 -170q0 -106 -89 -168
t-220 -62q-124 0 -238 58zM950 154l-37 88l369 483h131v-477h107v-94h-107v-154h-115v154h-348zM1036 248h262v352zM160 0l1200 1434h133l-1200 -1434h-133z" />
    <glyph glyph-name="questiondown" unicode="&#xbf;" horiz-adv-x="1044" 
d="M688 643q0 -2 1 -22t1 -23q0 -76 -22.5 -136.5t-58.5 -100t-79.5 -73t-86.5 -63.5t-79 -62t-58.5 -78t-22.5 -103q0 -101 79 -165.5t205 -64.5q175 0 326 148l106 -101q-182 -192 -434 -192q-205 0 -329.5 100.5t-124.5 265.5q0 75 24 136.5t63 103t85.5 77.5t93.5 69
t86.5 67.5t64 83t25.5 106.5v27h135zM713 1065v-219h-187v219h187z" />
    <glyph glyph-name="Agrave" unicode="&#xc0;" horiz-adv-x="1417" 
d="M61 0l543 1434h209l541 -1434h-189l-129 352h-657l-127 -352h-191zM705 1255l-275 -761h555l-276 761h-4zM666 1546l-236 180l133 95l232 -275h-129z" />
    <glyph glyph-name="Aacute" unicode="&#xc1;" horiz-adv-x="1417" 
d="M61 0l543 1434h209l541 -1434h-189l-129 352h-657l-127 -352h-191zM705 1255l-275 -761h555l-276 761h-4zM623 1546l229 275l135 -95l-235 -180h-129z" />
    <glyph glyph-name="Acircumflex" unicode="&#xc2;" horiz-adv-x="1417" 
d="M61 0l543 1434h209l541 -1434h-189l-129 352h-657l-127 -352h-191zM705 1255l-275 -761h555l-276 761h-4zM367 1546l258 236h168l258 -236h-119l-221 140h-2l-224 -140h-118z" />
    <glyph glyph-name="Atilde" unicode="&#xc3;" horiz-adv-x="1417" 
d="M61 0l543 1434h209l541 -1434h-189l-129 352h-657l-127 -352h-191zM705 1255l-275 -761h555l-276 761h-4zM401 1556q-12 109 35 171.5t135 62.5q42 0 82.5 -20t66 -44.5t57 -44.5t57.5 -20q39 0 58 29.5t13 81.5h107q13 -107 -35 -170.5t-135 -63.5q-42 0 -82 20
t-65.5 43.5t-57 43.5t-59.5 20q-37 0 -56.5 -28.5t-13.5 -80.5h-107z" />
    <glyph glyph-name="Adieresis" unicode="&#xc4;" horiz-adv-x="1417" 
d="M61 0l543 1434h209l541 -1434h-189l-129 352h-657l-127 -352h-191zM705 1255l-275 -761h555l-276 761h-4zM838 1581v168h155v-168h-155zM424 1581v168h158v-168h-158z" />
    <glyph glyph-name="Aring" unicode="&#xc5;" horiz-adv-x="1417" 
d="M61 0l527 1393q-94 61 -94 174q0 89 62.5 150t152.5 61t152.5 -61t62.5 -150q0 -111 -97 -174l527 -1393h-189l-129 352h-657l-127 -352h-191zM705 1255l-275 -761h555l-276 761h-4zM709 1434q55 0 93 38.5t38 94.5q0 57 -37.5 95t-93.5 38t-95 -38t-39 -95q0 -55 39 -94
t95 -39z" />
    <glyph glyph-name="AE" unicode="&#xc6;" horiz-adv-x="2117" 
d="M55 0l658 1434h1259v-156h-968l137 -473h751v-150h-708l145 -499h658v-156h-801l-99 352h-679l-156 -352h-197zM819 1278l-346 -780h574l-218 780h-10z" />
    <glyph glyph-name="Ccedilla" unicode="&#xc7;" horiz-adv-x="1454" 
d="M469 -379q94 75 161 168.5t91 194.5q-277 35 -442.5 237.5t-165.5 509.5q0 213 91 378.5t255.5 257t376.5 91.5q273 0 475 -155l-94 -127q-173 131 -379 131q-246 0 -397.5 -158.5t-151.5 -417.5q0 -272 149.5 -438t399.5 -166q235 0 397 156l108 -115
q-202 -193 -512 -193h-2q-38 -245 -231 -419z" />
    <glyph glyph-name="Egrave" unicode="&#xc8;" horiz-adv-x="1300" 
d="M627 1546l-236 180l133 95l232 -275h-129zM172 0v1434h983v-156h-809v-475h729v-146h-729v-501h821v-156h-995z" />
    <glyph glyph-name="Eacute" unicode="&#xc9;" horiz-adv-x="1300" 
d="M584 1546l229 275l135 -95l-235 -180h-129zM172 0v1434h983v-156h-809v-475h729v-146h-729v-501h821v-156h-995z" />
    <glyph glyph-name="Ecircumflex" unicode="&#xca;" horiz-adv-x="1300" 
d="M172 0v1434h983v-156h-809v-475h729v-146h-729v-501h821v-156h-995zM328 1546l258 236h168l258 -236h-119l-221 140h-2l-224 -140h-118z" />
    <glyph glyph-name="Edieresis" unicode="&#xcb;" horiz-adv-x="1300" 
d="M801 1581v168h155v-168h-155zM387 1581v168h158v-168h-158zM172 0v1434h983v-156h-809v-475h729v-146h-729v-501h821v-156h-995z" />
    <glyph glyph-name="Igrave" unicode="&#xcc;" horiz-adv-x="516" 
d="M172 0v1434h174v-1434h-174zM217 1546l-235 180l133 95l231 -275h-129z" />
    <glyph glyph-name="Iacute" unicode="&#xcd;" horiz-adv-x="516" 
d="M172 0v1434h174v-1434h-174zM172 1546l229 275l136 -95l-236 -180h-129z" />
    <glyph glyph-name="Icircumflex" unicode="&#xce;" horiz-adv-x="516" 
d="M172 0v1434h174v-1434h-174zM-82 1546l258 236h168l258 -236h-119l-221 140h-2l-223 -140h-119z" />
    <glyph glyph-name="Idieresis" unicode="&#xcf;" horiz-adv-x="516" 
d="M172 0v1434h174v-1434h-174zM389 1581v168h156v-168h-156zM-25 1581v168h158v-168h-158z" />
    <glyph glyph-name="Eth" unicode="&#xd0;" horiz-adv-x="1533" 
d="M246 0v1434h413q369 0 567.5 -187.5t198.5 -521.5q0 -346 -193 -535.5t-573 -189.5h-413zM420 147h250q285 0 432 152t147 426q0 262 -150.5 411.5t-428.5 149.5h-250v-506h420v-118h-420v-515zM29 662v118h215v-118h-215z" />
    <glyph glyph-name="Ntilde" unicode="&#xd1;" horiz-adv-x="1484" 
d="M436 1556q-12 109 35 171.5t135 62.5q42 0 82 -20t66 -44.5t57 -44.5t57 -20q39 0 58.5 29.5t13.5 81.5h107q13 -107 -35 -170.5t-135 -63.5q-42 0 -82 20t-66 43.5t-57.5 43.5t-59.5 20q-37 0 -56 -28.5t-13 -80.5h-107zM172 0v1434h176l797 -1164v1164h168v-1434h-178
l-795 1161v-1161h-168z" />
    <glyph glyph-name="Ograve" unicode="&#xd2;" horiz-adv-x="1656" 
d="M788 1546l-235 180l133 95l232 -275h-130zM113 727q0 216 95 384t257.5 257.5t363.5 89.5q149 0 281 -52.5t228 -146.5t152 -232t56 -300q0 -169 -55 -311t-151 -238.5t-227.5 -149.5t-283.5 -53t-283.5 53t-227 149.5t-150.5 238.5t-55 311zM291 727q0 -138 41.5 -251.5
t114 -189.5t170.5 -117.5t212 -41.5q113 0 211.5 41.5t171 117.5t114.5 190t42 251q0 130 -42 239.5t-114.5 183.5t-171.5 115.5t-211 41.5t-211 -41.5t-171 -115.5t-114 -183.5t-42 -239.5z" />
    <glyph glyph-name="Oacute" unicode="&#xd3;" horiz-adv-x="1656" 
d="M743 1546l230 275l135 -95l-236 -180h-129zM113 727q0 216 95 384t257.5 257.5t363.5 89.5q149 0 281 -52.5t228 -146.5t152 -232t56 -300q0 -169 -55 -311t-151 -238.5t-227.5 -149.5t-283.5 -53t-283.5 53t-227 149.5t-150.5 238.5t-55 311zM291 727
q0 -138 41.5 -251.5t114 -189.5t170.5 -117.5t212 -41.5q113 0 211.5 41.5t171 117.5t114.5 190t42 251q0 130 -42 239.5t-114.5 183.5t-171.5 115.5t-211 41.5t-211 -41.5t-171 -115.5t-114 -183.5t-42 -239.5z" />
    <glyph glyph-name="Ocircumflex" unicode="&#xd4;" horiz-adv-x="1656" 
d="M113 727q0 216 95 384t257.5 257.5t363.5 89.5q149 0 281 -52.5t228 -146.5t152 -232t56 -300q0 -169 -55 -311t-151 -238.5t-227.5 -149.5t-283.5 -53t-283.5 53t-227 149.5t-150.5 238.5t-55 311zM291 727q0 -138 41.5 -251.5t114 -189.5t170.5 -117.5t212 -41.5
q113 0 211.5 41.5t171 117.5t114.5 190t42 251q0 130 -42 239.5t-114.5 183.5t-171.5 115.5t-211 41.5t-211 -41.5t-171 -115.5t-114 -183.5t-42 -239.5zM487 1546l258 236h168l258 -236h-118l-222 140h-2l-223 -140h-119z" />
    <glyph glyph-name="Otilde" unicode="&#xd5;" horiz-adv-x="1656" 
d="M524 1556q-12 109 35 171.5t135 62.5q42 0 82 -20t66 -44.5t57 -44.5t57 -20q39 0 58.5 29.5t13.5 81.5h107q13 -107 -35 -170.5t-135 -63.5q-42 0 -82 20t-66 43.5t-57.5 43.5t-59.5 20q-37 0 -56 -28.5t-13 -80.5h-107zM113 727q0 216 95 384t257.5 257.5t363.5 89.5
q149 0 281 -52.5t228 -146.5t152 -232t56 -300q0 -169 -55 -311t-151 -238.5t-227.5 -149.5t-283.5 -53t-283.5 53t-227 149.5t-150.5 238.5t-55 311zM291 727q0 -138 41.5 -251.5t114 -189.5t170.5 -117.5t212 -41.5q113 0 211.5 41.5t171 117.5t114.5 190t42 251
q0 130 -42 239.5t-114.5 183.5t-171.5 115.5t-211 41.5t-211 -41.5t-171 -115.5t-114 -183.5t-42 -239.5z" />
    <glyph glyph-name="Odieresis" unicode="&#xd6;" horiz-adv-x="1656" 
d="M958 1581v168h156v-168h-156zM545 1581v168h157v-168h-157zM113 727q0 216 95 384t257.5 257.5t363.5 89.5q149 0 281 -52.5t228 -146.5t152 -232t56 -300q0 -169 -55 -311t-151 -238.5t-227.5 -149.5t-283.5 -53t-283.5 53t-227 149.5t-150.5 238.5t-55 311zM291 727
q0 -138 41.5 -251.5t114 -189.5t170.5 -117.5t212 -41.5q113 0 211.5 41.5t171 117.5t114.5 190t42 251q0 130 -42 239.5t-114.5 183.5t-171.5 115.5t-211 41.5t-211 -41.5t-171 -115.5t-114 -183.5t-42 -239.5z" />
    <glyph glyph-name="multiply" unicode="&#xd7;" horiz-adv-x="1200" 
d="M137 154l357 378l-357 379l107 105l354 -377l356 377l109 -105l-358 -379l358 -378l-109 -103l-356 375l-354 -375z" />
    <glyph glyph-name="Oslash" unicode="&#xd8;" horiz-adv-x="1656" 
d="M113 727q0 216 95 384t257.5 257.5t363.5 89.5q228 0 408 -119l127 168l90 -71l-129 -164q105 -99 163 -238t58 -307q0 -169 -55 -311t-151 -238.5t-227.5 -149.5t-283.5 -53q-231 0 -405 117l-129 -166l-90 68l131 168q-223 210 -223 565zM1368 727q0 257 -151 418
l-701 -922q134 -96 313 -96q113 0 211.5 41.5t171 117.5t114.5 190t42 251zM291 727q0 -271 151 -438l699 921q-140 97 -312 97q-112 0 -211 -41.5t-171 -115.5t-114 -183.5t-42 -239.5z" />
    <glyph glyph-name="Ugrave" unicode="&#xd9;" horiz-adv-x="1466" 
d="M690 1546l-235 180l133 95l231 -275h-129zM166 530v904h176v-904q0 -190 110 -296.5t281 -106.5t282 106.5t111 296.5v904h174v-904q0 -135 -43.5 -242t-120.5 -174.5t-179.5 -103t-223.5 -35.5t-223.5 35.5t-179.5 103t-120.5 174.5t-43.5 242z" />
    <glyph glyph-name="Uacute" unicode="&#xda;" horiz-adv-x="1466" 
d="M647 1546l230 275l135 -95l-236 -180h-129zM166 530v904h176v-904q0 -190 110 -296.5t281 -106.5t282 106.5t111 296.5v904h174v-904q0 -135 -43.5 -242t-120.5 -174.5t-179.5 -103t-223.5 -35.5t-223.5 35.5t-179.5 103t-120.5 174.5t-43.5 242z" />
    <glyph glyph-name="Ucircumflex" unicode="&#xdb;" horiz-adv-x="1466" 
d="M166 530v904h176v-904q0 -190 110 -296.5t281 -106.5t282 106.5t111 296.5v904h174v-904q0 -135 -43.5 -242t-120.5 -174.5t-179.5 -103t-223.5 -35.5t-223.5 35.5t-179.5 103t-120.5 174.5t-43.5 242zM391 1546l258 236h168l258 -236h-119l-221 140h-2l-223 -140h-119z
" />
    <glyph glyph-name="Udieresis" unicode="&#xdc;" horiz-adv-x="1466" 
d="M862 1581v168h156v-168h-156zM449 1581v168h157v-168h-157zM166 530v904h176v-904q0 -190 110 -296.5t281 -106.5t282 106.5t111 296.5v904h174v-904q0 -135 -43.5 -242t-120.5 -174.5t-179.5 -103t-223.5 -35.5t-223.5 35.5t-179.5 103t-120.5 174.5t-43.5 242z" />
    <glyph glyph-name="Yacute" unicode="&#xdd;" horiz-adv-x="1370" 
d="M598 0v584l-541 850h207l420 -682h4l420 682h205l-541 -850v-584h-174zM600 1546l229 275l136 -95l-236 -180h-129z" />
    <glyph glyph-name="Thorn" unicode="&#xde;" horiz-adv-x="1345" 
d="M172 0v1434h174v-260h354q136 0 240 -34.5t167 -96.5t94.5 -141.5t31.5 -174.5q0 -97 -31 -178t-93.5 -144.5t-167 -99t-241.5 -35.5h-354v-270h-174zM346 416h352q178 0 269.5 86t91.5 225q0 135 -92 218t-267 83h-354v-612z" />
    <glyph glyph-name="germandbls" unicode="&#xdf;" horiz-adv-x="1302" 
d="M162 0v1116q0 209 129.5 327t337.5 118q206 0 340.5 -113.5t134.5 -302.5q0 -123 -70 -214.5t-194 -129.5q168 -28 266 -132.5t98 -258.5q0 -134 -64 -233t-170.5 -148t-240.5 -49q-121 0 -223 30l31 142q85 -29 174 -29q140 0 231.5 78t91.5 215q0 140 -101.5 220.5
t-270.5 80.5h-91v143h60q145 0 224 80t79 199q0 132 -83.5 209t-221.5 77q-136 0 -217.5 -80t-81.5 -227v-1118h-168z" />
    <glyph glyph-name="agrave" unicode="&#xe0;" horiz-adv-x="1085" 
d="M100 246q0 77 35.5 138t94.5 100.5t143 66.5t173 40t193 17v156q0 84 -51.5 133t-155.5 49q-143 0 -335 -98l-66 135q217 104 406 104t280.5 -88t91.5 -237v-531q0 -108 107 -108v-125q-111 0 -169.5 31.5t-86.5 101.5q-142 -156 -348 -156q-140 0 -226 75t-86 196z
M268 258q0 -69 49.5 -110.5t131.5 -41.5q92 0 168 38.5t122 97.5v258q-471 -22 -471 -242zM537 1176l-289 270l121 92l284 -362h-116z" />
    <glyph glyph-name="aacute" unicode="&#xe1;" horiz-adv-x="1085" 
d="M100 246q0 77 35.5 138t94.5 100.5t143 66.5t173 40t193 17v156q0 84 -51.5 133t-155.5 49q-143 0 -335 -98l-66 135q217 104 406 104t280.5 -88t91.5 -237v-531q0 -108 107 -108v-125q-111 0 -169.5 31.5t-86.5 101.5q-142 -156 -348 -156q-140 0 -226 75t-86 196z
M268 258q0 -69 49.5 -110.5t131.5 -41.5q92 0 168 38.5t122 97.5v258q-471 -22 -471 -242zM457 1176l284 362l121 -92l-289 -270h-116z" />
    <glyph glyph-name="acircumflex" unicode="&#xe2;" horiz-adv-x="1085" 
d="M100 246q0 77 35.5 138t94.5 100.5t143 66.5t173 40t193 17v156q0 84 -51.5 133t-155.5 49q-143 0 -335 -98l-66 135q217 104 406 104t280.5 -88t91.5 -237v-531q0 -108 107 -108v-125q-111 0 -169.5 31.5t-86.5 101.5q-142 -156 -348 -156q-140 0 -226 75t-86 196z
M268 258q0 -69 49.5 -110.5t131.5 -41.5q92 0 168 38.5t122 97.5v258q-471 -22 -471 -242zM213 1176l254 323h180l254 -323h-123l-221 223h-2l-221 -223h-121z" />
    <glyph glyph-name="atilde" unicode="&#xe3;" horiz-adv-x="1085" 
d="M100 246q0 77 35.5 138t94.5 100.5t143 66.5t173 40t193 17v156q0 84 -51.5 133t-155.5 49q-143 0 -335 -98l-66 135q217 104 406 104t280.5 -88t91.5 -237v-531q0 -108 107 -108v-125q-111 0 -169.5 31.5t-86.5 101.5q-142 -156 -348 -156q-140 0 -226 75t-86 196z
M268 258q0 -69 49.5 -110.5t131.5 -41.5q92 0 168 38.5t122 97.5v258q-471 -22 -471 -242zM252 1229q-12 109 35 172t135 63q42 0 82 -20t65 -44.5t56 -44.5t57 -20q39 0 58.5 29t13.5 82h104q13 -108 -34 -172t-134 -64q-41 0 -81 20t-65.5 43.5t-57 43.5t-58.5 20
q-38 0 -57 -27.5t-13 -80.5h-106z" />
    <glyph glyph-name="adieresis" unicode="&#xe4;" horiz-adv-x="1085" 
d="M100 246q0 77 35.5 138t94.5 100.5t143 66.5t173 40t193 17v156q0 84 -51.5 133t-155.5 49q-143 0 -335 -98l-66 135q217 104 406 104t280.5 -88t91.5 -237v-531q0 -108 107 -108v-125q-111 0 -169.5 31.5t-86.5 101.5q-142 -156 -348 -156q-140 0 -226 75t-86 196z
M268 258q0 -69 49.5 -110.5t131.5 -41.5q92 0 168 38.5t122 97.5v258q-471 -22 -471 -242zM678 1253v168h156v-168h-156zM279 1253v168h155v-168h-155z" />
    <glyph glyph-name="aring" unicode="&#xe5;" horiz-adv-x="1085" 
d="M100 246q0 77 35.5 138t94.5 100.5t143 66.5t173 40t193 17v156q0 84 -51.5 133t-155.5 49q-143 0 -335 -98l-66 135q217 104 406 104t280.5 -88t91.5 -237v-531q0 -108 107 -108v-125q-111 0 -169.5 31.5t-86.5 101.5q-142 -156 -348 -156q-140 0 -226 75t-86 196z
M268 258q0 -69 49.5 -110.5t131.5 -41.5q92 0 168 38.5t122 97.5v258q-471 -22 -471 -242zM555 1167q-90 0 -152.5 60t-62.5 149t62.5 149t152.5 60t152.5 -60t62.5 -149t-62.5 -149t-152.5 -60zM555 1241q55 0 94 39.5t39 95.5q0 57 -38.5 95t-94.5 38t-94.5 -38t-38.5 -95
q0 -56 39 -95.5t94 -39.5z" />
    <glyph glyph-name="ae" unicode="&#xe6;" horiz-adv-x="1792" 
d="M831 186q-62 -91 -172 -152t-243 -61q-142 0 -229 74.5t-87 196.5q-1 77 35 138t95 100t144 65.5t173.5 39.5t193.5 17v162q0 82 -50.5 131t-153.5 49q-146 0 -338 -98l-68 135q232 107 406 107q267 0 323 -205q63 97 163 151t226 54q144 0 243.5 -63.5t145 -168.5
t45.5 -244q0 -44 -8 -90h-764q3 -203 93.5 -306t255.5 -103q162 0 309 100l78 -115q-176 -127 -394 -127q-288 0 -422 213zM918 639h600q1 92 -24 161.5t-86.5 113.5t-156.5 44q-130 0 -220 -85.5t-113 -233.5zM270 256q0 -67 50.5 -109.5t130.5 -42.5q104 0 191.5 51.5
t133.5 139.5q-32 95 -35 203q-471 -18 -471 -242z" />
    <glyph glyph-name="ccedilla" unicode="&#xe7;" horiz-adv-x="1056" 
d="M262 -379q94 75 161 168.5t91 194.5q-189 30 -300.5 178t-111.5 381q0 249 141 396.5t365 147.5q203 0 346 -114l-90 -117q-115 88 -252 88q-150 0 -244 -109t-94 -292q0 -197 92.5 -311.5t245.5 -114.5q147 0 267 102l98 -104q-78 -69 -162 -103t-192 -37
q-38 -244 -232 -419z" />
    <glyph glyph-name="egrave" unicode="&#xe8;" horiz-adv-x="1159" 
d="M104 543q0 247 143 397t365 150q215 0 326 -131.5t111 -344.5q0 -38 -9 -90h-766q3 -197 92 -303t259 -106q160 0 311 100l76 -115q-83 -60 -186 -93.5t-210 -33.5q-242 0 -377 151.5t-135 418.5zM616 958q-130 0 -220 -85.5t-115 -233.5h604q1 92 -24.5 161.5
t-87.5 113.5t-157 44zM588 1176l-289 270l121 92l285 -362h-117z" />
    <glyph glyph-name="eacute" unicode="&#xe9;" horiz-adv-x="1159" 
d="M104 543q0 247 143 397t365 150q215 0 326 -131.5t111 -344.5q0 -38 -9 -90h-766q3 -197 92 -303t259 -106q160 0 311 100l76 -115q-83 -60 -186 -93.5t-210 -33.5q-242 0 -377 151.5t-135 418.5zM616 958q-130 0 -220 -85.5t-115 -233.5h604q1 92 -24.5 161.5
t-87.5 113.5t-157 44zM508 1176l285 362l120 -92l-288 -270h-117z" />
    <glyph glyph-name="ecircumflex" unicode="&#xea;" horiz-adv-x="1159" 
d="M104 543q0 247 143 397t365 150q215 0 326 -131.5t111 -344.5q0 -38 -9 -90h-766q3 -197 92 -303t259 -106q160 0 311 100l76 -115q-83 -60 -186 -93.5t-210 -33.5q-242 0 -377 151.5t-135 418.5zM616 958q-130 0 -220 -85.5t-115 -233.5h604q1 92 -24.5 161.5
t-87.5 113.5t-157 44zM266 1176l254 323h180l254 -323h-123l-221 223h-2l-221 -223h-121z" />
    <glyph glyph-name="edieresis" unicode="&#xeb;" horiz-adv-x="1159" 
d="M104 543q0 247 143 397t365 150q215 0 326 -131.5t111 -344.5q0 -38 -9 -90h-766q3 -197 92 -303t259 -106q160 0 311 100l76 -115q-83 -60 -186 -93.5t-210 -33.5q-242 0 -377 151.5t-135 418.5zM616 958q-130 0 -220 -85.5t-115 -233.5h604q1 92 -24.5 161.5
t-87.5 113.5t-157 44zM332 1253v168h155v-168h-155zM731 1253v168h156v-168h-156z" />
    <glyph glyph-name="igrave" unicode="&#xec;" horiz-adv-x="499" 
d="M166 0v1057h170v-1057h-170zM229 1176l-288 270l120 92l285 -362h-117z" />
    <glyph glyph-name="iacute" unicode="&#xed;" horiz-adv-x="499" 
d="M152 1176l284 362l121 -92l-289 -270h-116zM166 0v1057h170v-1057h-170z" />
    <glyph glyph-name="icircumflex" unicode="&#xee;" horiz-adv-x="499" 
d="M-94 1176l254 323h180l254 -323h-123l-221 223h-2l-221 -223h-121zM166 0v1057h170v-1057h-170z" />
    <glyph glyph-name="idieresis" unicode="&#xef;" horiz-adv-x="499" 
d="M373 1253v168h155v-168h-155zM-27 1253v168h156v-168h-156zM166 0v1057h170v-1057h-170z" />
    <glyph glyph-name="eth" unicode="&#xf0;" horiz-adv-x="1208" 
d="M389 1116l-51 101q127 57 207 96q-75 77 -250 233h207q107 -96 176 -168l201 97l49 -103q-98 -45 -170 -80q338 -385 338 -770q0 -261 -134 -404t-358 -143q-226 0 -359.5 137.5t-133.5 358.5q0 207 123.5 336t318.5 129q187 0 328 -123q-77 214 -258 416zM928 512
q0 80 -15 160q-137 137 -329 137q-136 0 -218.5 -90.5t-82.5 -247.5q0 -163 87 -262.5t234 -99.5q148 0 236 107.5t88 295.5z" />
    <glyph glyph-name="ntilde" unicode="&#xf1;" horiz-adv-x="1177" 
d="M158 0v1063h157l11 -143q163 170 364 170q173 0 254.5 -97.5t81.5 -271.5v-721h-170v723q0 229 -203 229q-187 0 -325 -170v-782h-170zM287 1229q-12 109 35 172t135 63q42 0 82 -20t65 -44.5t56 -44.5t57 -20q39 0 58 29t13 82h105q13 -108 -34 -172t-134 -64
q-41 0 -81 20t-65.5 43.5t-57 43.5t-58.5 20q-38 0 -57 -27.5t-13 -80.5h-106z" />
    <glyph glyph-name="ograve" unicode="&#xf2;" horiz-adv-x="1230" 
d="M594 1176l-289 270l121 92l285 -362h-117zM104 545q0 244 144.5 393t367.5 149t365.5 -149t142.5 -393q0 -261 -139.5 -415.5t-368.5 -154.5q-232 0 -372 154.5t-140 415.5zM276 545q0 -198 91.5 -316t248.5 -118q153 0 244.5 118.5t91.5 315.5q0 182 -93.5 293.5
t-242.5 111.5q-150 0 -245 -111.5t-95 -293.5z" />
    <glyph glyph-name="oacute" unicode="&#xf3;" horiz-adv-x="1230" 
d="M516 1176l285 362l121 -92l-289 -270h-117zM104 545q0 244 144.5 393t367.5 149t365.5 -149t142.5 -393q0 -261 -139.5 -415.5t-368.5 -154.5q-232 0 -372 154.5t-140 415.5zM276 545q0 -198 91.5 -316t248.5 -118q153 0 244.5 118.5t91.5 315.5q0 182 -93.5 293.5
t-242.5 111.5q-150 0 -245 -111.5t-95 -293.5z" />
    <glyph glyph-name="ocircumflex" unicode="&#xf4;" horiz-adv-x="1230" 
d="M272 1176l254 323h181l254 -323h-123l-222 223h-2l-221 -223h-121zM104 545q0 244 144.5 393t367.5 149t365.5 -149t142.5 -393q0 -261 -139.5 -415.5t-368.5 -154.5q-232 0 -372 154.5t-140 415.5zM276 545q0 -198 91.5 -316t248.5 -118q153 0 244.5 118.5t91.5 315.5
q0 182 -93.5 293.5t-242.5 111.5q-150 0 -245 -111.5t-95 -293.5z" />
    <glyph glyph-name="otilde" unicode="&#xf5;" horiz-adv-x="1230" 
d="M104 545q0 244 144.5 393t367.5 149t365.5 -149t142.5 -393q0 -261 -139.5 -415.5t-368.5 -154.5q-232 0 -372 154.5t-140 415.5zM276 545q0 -198 91.5 -316t248.5 -118q153 0 244.5 118.5t91.5 315.5q0 182 -93.5 293.5t-242.5 111.5q-150 0 -245 -111.5t-95 -293.5z
M311 1229q-12 109 35 172t135 63q42 0 82 -20t65 -44.5t56 -44.5t57 -20q39 0 58.5 29t13.5 82h105q13 -108 -34 -172t-134 -64q-41 0 -81 20t-66 43.5t-57.5 43.5t-58.5 20q-38 0 -56.5 -27.5t-12.5 -80.5h-107z" />
    <glyph glyph-name="odieresis" unicode="&#xf6;" horiz-adv-x="1230" 
d="M737 1253v168h156v-168h-156zM338 1253v168h156v-168h-156zM104 545q0 244 144.5 393t367.5 149t365.5 -149t142.5 -393q0 -261 -139.5 -415.5t-368.5 -154.5q-232 0 -372 154.5t-140 415.5zM276 545q0 -198 91.5 -316t248.5 -118q153 0 244.5 118.5t91.5 315.5
q0 182 -93.5 293.5t-242.5 111.5q-150 0 -245 -111.5t-95 -293.5z" />
    <glyph glyph-name="divide" unicode="&#xf7;" horiz-adv-x="1257" 
d="M547 821v199h162v-199h-162zM547 45v197h162v-197h-162zM96 459v147h1065v-147h-1065z" />
    <glyph glyph-name="oslash" unicode="&#xf8;" horiz-adv-x="1230" 
d="M104 545q0 244 144.5 393t367.5 149q161 0 289 -83l121 159l90 -69l-129 -164q137 -150 137 -385q0 -261 -139.5 -415.5t-368.5 -154.5q-169 0 -294 86l-132 -167l-92 67l140 178q-134 156 -134 406zM952 545q0 151 -69 260l-475 -619q84 -75 208 -75q153 0 244.5 118.5
t91.5 315.5zM276 545q0 -171 68 -283l471 619q-88 69 -199 69q-150 0 -245 -111.5t-95 -293.5z" />
    <glyph glyph-name="ugrave" unicode="&#xf9;" horiz-adv-x="1179" 
d="M154 344v719h170v-723q0 -110 46 -169.5t156 -59.5q187 0 328 170v782h170v-1063h-154l-14 143q-164 -168 -364 -168q-174 0 -256 97.5t-82 271.5zM559 1176l-289 270l121 92l285 -362h-117z" />
    <glyph glyph-name="uacute" unicode="&#xfa;" horiz-adv-x="1179" 
d="M496 1176l284 362l121 -92l-289 -270h-116zM154 344v719h170v-723q0 -110 46 -169.5t156 -59.5q187 0 328 170v782h170v-1063h-154l-14 143q-164 -168 -364 -168q-174 0 -256 97.5t-82 271.5z" />
    <glyph glyph-name="ucircumflex" unicode="&#xfb;" horiz-adv-x="1179" 
d="M246 1176l254 323h180l254 -323h-123l-221 223h-2l-221 -223h-121zM154 344v719h170v-723q0 -110 46 -169.5t156 -59.5q187 0 328 170v782h170v-1063h-154l-14 143q-164 -168 -364 -168q-174 0 -256 97.5t-82 271.5z" />
    <glyph glyph-name="udieresis" unicode="&#xfc;" horiz-adv-x="1179" 
d="M711 1253v168h155v-168h-155zM311 1253v168h156v-168h-156zM154 344v719h170v-723q0 -110 46 -169.5t156 -59.5q187 0 328 170v782h170v-1063h-154l-14 143q-164 -168 -364 -168q-174 0 -256 97.5t-82 271.5z" />
    <glyph glyph-name="yacute" unicode="&#xfd;" horiz-adv-x="1040" 
d="M82 -258q79 -31 129 -31q61 0 100 28t66 99l65 168l-395 1057h176l301 -840h4l293 840h172l-448 -1237q-54 -143 -133.5 -199.5t-194.5 -56.5q-95 0 -184 35zM426 1176l285 362l120 -92l-288 -270h-117z" />
    <glyph glyph-name="thorn" unicode="&#xfe;" horiz-adv-x="1208" 
d="M336 137v-547h-170v1956h170v-624q150 168 338 168q195 0 312.5 -144t117.5 -397q0 -272 -115 -424t-315 -152q-188 0 -338 164zM336 268q135 -157 301 -157q143 0 220 116t77 320q0 192 -79 298.5t-220 106.5q-160 0 -299 -159v-525z" />
    <glyph glyph-name="ydieresis" unicode="&#xff;" horiz-adv-x="1040" 
d="M82 -258q79 -31 129 -31q61 0 100 28t66 99l65 168l-395 1057h176l301 -840h4l293 840h172l-448 -1237q-54 -143 -133.5 -199.5t-194.5 -56.5q-95 0 -184 35zM645 1253v168h156v-168h-156zM246 1253v168h155v-168h-155z" />
    <glyph glyph-name="Amacron" unicode="&#x100;" horiz-adv-x="1417" 
d="M61 0l543 1434h209l541 -1434h-189l-129 352h-657l-127 -352h-191zM705 1255l-275 -761h555l-276 761h-4zM403 1604v118h607v-118h-607z" />
    <glyph glyph-name="amacron" unicode="&#x101;" horiz-adv-x="1085" 
d="M100 246q0 77 35.5 138t94.5 100.5t143 66.5t173 40t193 17v156q0 84 -51.5 133t-155.5 49q-143 0 -335 -98l-66 135q217 104 406 104t280.5 -88t91.5 -237v-531q0 -108 107 -108v-125q-111 0 -169.5 31.5t-86.5 101.5q-142 -156 -348 -156q-140 0 -226 75t-86 196z
M268 258q0 -69 49.5 -110.5t131.5 -41.5q92 0 168 38.5t122 97.5v258q-471 -22 -471 -242zM254 1278v119h602v-119h-602z" />
    <glyph glyph-name="Abreve" unicode="&#x102;" horiz-adv-x="1417" 
d="M61 0l543 1434h209l541 -1434h-189l-129 352h-657l-127 -352h-191zM705 1255l-275 -761h555l-276 761h-4zM707 1536q-137 0 -226 65t-119 181h123q24 -60 81 -94.5t141 -34.5t140.5 34.5t80.5 94.5h123q-28 -115 -118 -180.5t-226 -65.5z" />
    <glyph glyph-name="abreve" unicode="&#x103;" horiz-adv-x="1085" 
d="M100 246q0 77 35.5 138t94.5 100.5t143 66.5t173 40t193 17v156q0 84 -51.5 133t-155.5 49q-143 0 -335 -98l-66 135q217 104 406 104t280.5 -88t91.5 -237v-531q0 -108 107 -108v-125q-111 0 -169.5 31.5t-86.5 101.5q-142 -156 -348 -156q-140 0 -226 75t-86 196z
M268 258q0 -69 49.5 -110.5t131.5 -41.5q92 0 168 38.5t122 97.5v258q-471 -22 -471 -242zM555 1165q-142 0 -230 89t-102 245h117q12 -101 68.5 -158t146.5 -57t147 57.5t68 157.5h117q-10 -155 -100 -244.5t-232 -89.5z" />
    <glyph glyph-name="Aogonek" unicode="&#x104;" horiz-adv-x="1417" 
d="M1397 -268v-127q-67 -29 -140 -29q-93 0 -151.5 51.5t-58.5 139.5q0 137 147 233h-29l-129 352h-657l-127 -352h-191l543 1434h209l541 -1434q-176 -79 -176 -201q0 -43 29 -67.5t75 -24.5q58 0 111 29zM705 1255l-275 -761h555l-276 761h-4z" />
    <glyph glyph-name="aogonek" unicode="&#x105;" horiz-adv-x="1085" 
d="M1059 -270v-125q-67 -29 -139 -29q-93 0 -152 51.5t-59 139.5q0 74 47 137.5t129 109.5q-89 26 -125 117q-142 -156 -348 -156q-140 0 -226 75t-86 196q0 77 35.5 138t94.5 100.5t143 66.5t173 40t193 17v156q0 84 -51.5 133t-155.5 49q-143 0 -335 -98l-66 135
q217 104 406 104t280.5 -88t91.5 -237v-531q0 -108 107 -108v-123q-178 -80 -178 -201q0 -44 29.5 -68t74.5 -24q61 0 113 27zM268 258q0 -69 49.5 -110.5t131.5 -41.5q92 0 168 38.5t122 97.5v258q-471 -22 -471 -242z" />
    <glyph glyph-name="Cacute" unicode="&#x106;" horiz-adv-x="1454" 
d="M113 731q0 213 91 378.5t255.5 257t376.5 91.5q273 0 475 -155l-94 -127q-173 131 -379 131q-246 0 -397.5 -158.5t-151.5 -417.5q0 -272 149.5 -438t399.5 -166q235 0 397 156l108 -115q-202 -193 -512 -193q-212 0 -375.5 95t-253 267t-89.5 394zM694 1546l230 275
l135 -95l-236 -180h-129z" />
    <glyph glyph-name="cacute" unicode="&#x107;" horiz-adv-x="1056" 
d="M477 1176l285 362l121 -92l-289 -270h-117zM102 543q0 249 141 396.5t365 147.5q203 0 346 -114l-90 -117q-115 88 -252 88q-150 0 -244 -109t-94 -292q0 -197 92.5 -311.5t245.5 -114.5q147 0 267 102l98 -104q-81 -71 -168 -105.5t-201 -34.5q-227 0 -366.5 153.5
t-139.5 414.5z" />
    <glyph glyph-name="Ccircumflex" unicode="&#x108;" horiz-adv-x="1454" 
d="M113 731q0 213 91 378.5t255.5 257t376.5 91.5q273 0 475 -155l-94 -127q-173 131 -379 131q-246 0 -397.5 -158.5t-151.5 -417.5q0 -272 149.5 -438t399.5 -166q235 0 397 156l108 -115q-202 -193 -512 -193q-212 0 -375.5 95t-253 267t-89.5 394zM438 1546l258 236h168
l258 -236h-118l-222 140h-2l-223 -140h-119z" />
    <glyph glyph-name="ccircumflex" unicode="&#x109;" horiz-adv-x="1056" 
d="M233 1176l254 323h181l254 -323h-123l-221 223h-3l-221 -223h-121zM102 543q0 249 141 396.5t365 147.5q203 0 346 -114l-90 -117q-115 88 -252 88q-150 0 -244 -109t-94 -292q0 -197 92.5 -311.5t245.5 -114.5q147 0 267 102l98 -104q-81 -71 -168 -105.5t-201 -34.5
q-227 0 -366.5 153.5t-139.5 414.5z" />
    <glyph glyph-name="Cdotaccent" unicode="&#x10a;" horiz-adv-x="1454" 
d="M700 1581v168h160v-168h-160zM113 731q0 213 91 378.5t255.5 257t376.5 91.5q273 0 475 -155l-94 -127q-173 131 -379 131q-246 0 -397.5 -158.5t-151.5 -417.5q0 -272 149.5 -438t399.5 -166q235 0 397 156l108 -115q-202 -193 -512 -193q-212 0 -375.5 95t-253 267
t-89.5 394z" />
    <glyph glyph-name="cdotaccent" unicode="&#x10b;" horiz-adv-x="1056" 
d="M102 543q0 249 141 396.5t365 147.5q203 0 346 -114l-90 -117q-115 88 -252 88q-150 0 -244 -109t-94 -292q0 -197 92.5 -311.5t245.5 -114.5q147 0 267 102l98 -104q-81 -71 -168 -105.5t-201 -34.5q-227 0 -366.5 153.5t-139.5 414.5zM496 1253v168h157v-168h-157z" />
    <glyph glyph-name="Ccaron" unicode="&#x10c;" horiz-adv-x="1454" 
d="M113 731q0 213 91 378.5t255.5 257t376.5 91.5q273 0 475 -155l-94 -127q-173 131 -379 131q-246 0 -397.5 -158.5t-151.5 -417.5q0 -272 149.5 -438t399.5 -166q235 0 397 156l108 -115q-202 -193 -512 -193q-212 0 -375.5 95t-253 267t-89.5 394zM694 1546l-256 236
h119l221 -137h2l224 137h118l-258 -236h-170z" />
    <glyph glyph-name="ccaron" unicode="&#x10d;" horiz-adv-x="1056" 
d="M487 1176l-254 323h121l221 -223h3l221 223h123l-254 -323h-181zM102 543q0 249 141 396.5t365 147.5q203 0 346 -114l-90 -117q-115 88 -252 88q-150 0 -244 -109t-94 -292q0 -197 92.5 -311.5t245.5 -114.5q147 0 267 102l98 -104q-81 -71 -168 -105.5t-201 -34.5
q-227 0 -366.5 153.5t-139.5 414.5z" />
    <glyph glyph-name="Dcaron" unicode="&#x10e;" horiz-adv-x="1460" 
d="M676 1546l-256 236h119l221 -137h2l223 137h119l-258 -236h-170zM172 0v1434h414q369 0 567.5 -187.5t198.5 -521.5q0 -346 -193 -535.5t-573 -189.5h-414zM346 147h250q285 0 432.5 152t147.5 426q0 261 -151 411t-429 150h-250v-1139z" />
    <glyph glyph-name="dcaron" unicode="&#x10f;" horiz-adv-x="1206" 
d="M1186 1384v99q42 10 86 10q82 0 125 -39t45 -104q0 -48 -30 -100t-79 -95h-121q97 97 97 168q0 30 -19 49t-55 19q-8 0 -25 -3t-24 -4zM535 -25q-201 0 -316 151t-115 423q0 253 117.5 395.5t315.5 142.5q183 0 337 -161v620h170v-1546h-147l-16 141q-152 -166 -346 -166
zM573 113q165 0 301 155v525q-141 157 -301 157q-141 0 -220 -105.5t-79 -297.5q0 -204 77.5 -319t221.5 -115z" />
    <glyph glyph-name="Dcroat" unicode="&#x110;" horiz-adv-x="1533" 
d="M246 0v1434h413q369 0 567.5 -187.5t198.5 -521.5q0 -346 -193 -535.5t-573 -189.5h-413zM420 147h250q285 0 432 152t147 426q0 262 -150.5 411.5t-428.5 149.5h-250v-506h420v-118h-420v-515zM29 662v118h215v-118h-215z" />
    <glyph glyph-name="dcroat" unicode="&#x111;" horiz-adv-x="1206" 
d="M535 -25q-201 0 -316 151t-115 423q0 253 117.5 395.5t315.5 142.5q183 0 337 -161v329h-167v115h167v176h170v-176h82v-115h-82v-1255h-147l-16 141q-152 -166 -346 -166zM573 113q165 0 301 155v525q-141 157 -301 157q-141 0 -220 -105.5t-79 -297.5q0 -204 77.5 -319
t221.5 -115z" />
    <glyph glyph-name="Emacron" unicode="&#x112;" horiz-adv-x="1300" 
d="M367 1604v118h606v-118h-606zM172 0v1434h983v-156h-809v-475h729v-146h-729v-501h821v-156h-995z" />
    <glyph glyph-name="emacron" unicode="&#x113;" horiz-adv-x="1159" 
d="M104 543q0 247 143 397t365 150q215 0 326 -131.5t111 -344.5q0 -38 -9 -90h-766q3 -197 92 -303t259 -106q160 0 311 100l76 -115q-83 -60 -186 -93.5t-210 -33.5q-242 0 -377 151.5t-135 418.5zM616 958q-130 0 -220 -85.5t-115 -233.5h604q1 92 -24.5 161.5
t-87.5 113.5t-157 44zM309 1278v119h602v-119h-602z" />
    <glyph glyph-name="Ebreve" unicode="&#x114;" horiz-adv-x="1300" 
d="M670 1536q-137 0 -225.5 65t-118.5 181h123q24 -60 80.5 -94.5t140.5 -34.5t140.5 34.5t80.5 94.5h123q-28 -115 -118 -180.5t-226 -65.5zM172 0v1434h983v-156h-809v-475h729v-146h-729v-501h821v-156h-995z" />
    <glyph glyph-name="ebreve" unicode="&#x115;" horiz-adv-x="1159" 
d="M104 543q0 247 143 397t365 150q215 0 326 -131.5t111 -344.5q0 -38 -9 -90h-766q3 -197 92 -303t259 -106q160 0 311 100l76 -115q-83 -60 -186 -93.5t-210 -33.5q-242 0 -377 151.5t-135 418.5zM616 958q-130 0 -220 -85.5t-115 -233.5h604q1 92 -24.5 161.5
t-87.5 113.5t-157 44zM610 1165q-142 0 -229.5 89t-101.5 245h116q12 -101 68.5 -158t146.5 -57t147 57.5t68 157.5h117q-10 -155 -100 -244.5t-232 -89.5z" />
    <glyph glyph-name="Edotaccent" unicode="&#x116;" horiz-adv-x="1300" 
d="M592 1581v168h160v-168h-160zM172 0v1434h983v-156h-809v-475h729v-146h-729v-501h821v-156h-995z" />
    <glyph glyph-name="edotaccent" unicode="&#x117;" horiz-adv-x="1159" 
d="M104 543q0 247 143 397t365 150q215 0 326 -131.5t111 -344.5q0 -38 -9 -90h-766q3 -197 92 -303t259 -106q160 0 311 100l76 -115q-83 -60 -186 -93.5t-210 -33.5q-242 0 -377 151.5t-135 418.5zM616 958q-130 0 -220 -85.5t-115 -233.5h604q1 92 -24.5 161.5
t-87.5 113.5t-157 44zM530 1253v168h158v-168h-158z" />
    <glyph glyph-name="Eogonek" unicode="&#x118;" horiz-adv-x="1300" 
d="M172 0v1434h983v-156h-809v-475h729v-146h-729v-501h821v-156q-176 -79 -176 -201q0 -43 29.5 -67.5t75.5 -24.5q57 0 110 29l4 -4v-127q-67 -29 -139 -29q-93 0 -152 51.5t-59 139.5q0 136 148 233h-836z" />
    <glyph glyph-name="eogonek" unicode="&#x119;" horiz-adv-x="1159" 
d="M104 543q0 247 143 397t365 150q215 0 326 -131.5t111 -344.5q0 -38 -9 -90h-761v-12q3 -190 91 -293.5t255 -103.5q160 0 311 100l76 -115q-72 -45 -88 -53q-55 -30 -90.5 -53t-71 -53.5t-53 -65.5t-17.5 -74q0 -45 30 -69.5t83 -24.5q62 0 108 27l9 -4v-125
q-74 -29 -140 -29q-99 0 -159 52t-60 141q0 113 113 211q-32 -7 -60 -7q-242 0 -377 151.5t-135 418.5zM616 958q-131 0 -220.5 -85t-112.5 -234h602q1 92 -24.5 161.5t-87.5 113.5t-157 44z" />
    <glyph glyph-name="Ecaron" unicode="&#x11a;" horiz-adv-x="1300" 
d="M584 1546l-256 236h118l222 -137h2l223 137h119l-258 -236h-170zM172 0v1434h983v-156h-809v-475h729v-146h-729v-501h821v-156h-995z" />
    <glyph glyph-name="ecaron" unicode="&#x11b;" horiz-adv-x="1159" 
d="M104 543q0 247 143 397t365 150q215 0 326 -131.5t111 -344.5q0 -38 -9 -90h-766q3 -197 92 -303t259 -106q160 0 311 100l76 -115q-83 -60 -186 -93.5t-210 -33.5q-242 0 -377 151.5t-135 418.5zM616 958q-130 0 -220 -85.5t-115 -233.5h604q1 92 -24.5 161.5
t-87.5 113.5t-157 44zM520 1176l-254 323h121l221 -223h2l221 223h123l-254 -323h-180z" />
    <glyph glyph-name="Gcircumflex" unicode="&#x11c;" horiz-adv-x="1488" 
d="M113 731q0 158 52 293t145.5 230.5t229 149.5t296.5 54q266 0 481 -141l-90 -127q-179 117 -387 117q-246 0 -397.5 -160t-151.5 -416q0 -278 146.5 -441t402.5 -163q199 0 334 84v410h-400v133h561v-633q-101 -70 -230 -108t-269 -38q-331 0 -527 206.5t-196 549.5z
M438 1546l258 236h168l258 -236h-118l-222 140h-2l-223 -140h-119z" />
    <glyph glyph-name="gcircumflex" unicode="&#x11d;" horiz-adv-x="1175" 
d="M66 -150q0 76 47.5 134.5t130.5 95.5q-80 56 -80 145q0 102 104 164q-164 114 -164 311q0 170 126 278.5t313 108.5q166 0 286 -90q124 96 291 93v-129q-148 0 -219 -31q80 -100 80 -230q0 -117 -62 -208t-161 -138t-215 -47q-103 0 -185 33q-59 -29 -59 -86
q0 -27 14.5 -46t38 -31t68.5 -20t90.5 -12t118.5 -8q107 -6 188.5 -22t146 -47.5t98.5 -83.5t34 -123q0 -139 -132.5 -215t-388.5 -76q-245 0 -377 72.5t-132 207.5zM543 432q118 0 196 75t78 193q0 115 -78 190t-196 75t-196.5 -75t-78.5 -190q0 -117 78.5 -192.5
t196.5 -75.5zM596 0q-115 3 -221 27q-67 -23 -107.5 -67t-40.5 -103q0 -166 340 -166q179 0 273 39.5t94 115.5q0 78 -83 112t-255 42zM254 1176l254 323h180l254 -323h-123l-221 223h-2l-221 -223h-121z" />
    <glyph glyph-name="Gbreve" unicode="&#x11e;" horiz-adv-x="1488" 
d="M778 1536q-137 0 -225.5 65t-118.5 181h123q24 -60 80.5 -94.5t140.5 -34.5t140.5 34.5t80.5 94.5h123q-28 -115 -118 -180.5t-226 -65.5zM113 731q0 158 52 293t145.5 230.5t229 149.5t296.5 54q266 0 481 -141l-90 -127q-179 117 -387 117q-246 0 -397.5 -160
t-151.5 -416q0 -278 146.5 -441t402.5 -163q199 0 334 84v410h-400v133h561v-633q-101 -70 -230 -108t-269 -38q-331 0 -527 206.5t-196 549.5z" />
    <glyph glyph-name="gbreve" unicode="&#x11f;" horiz-adv-x="1175" 
d="M66 -150q0 76 47.5 134.5t130.5 95.5q-80 56 -80 145q0 102 104 164q-164 114 -164 311q0 170 126 278.5t313 108.5q166 0 286 -90q124 96 291 93v-129q-148 0 -219 -31q80 -100 80 -230q0 -117 -62 -208t-161 -138t-215 -47q-103 0 -185 33q-59 -29 -59 -86
q0 -27 14.5 -46t38 -31t68.5 -20t90.5 -12t118.5 -8q107 -6 188.5 -22t146 -47.5t98.5 -83.5t34 -123q0 -139 -132.5 -215t-388.5 -76q-245 0 -377 72.5t-132 207.5zM543 432q118 0 196 75t78 193q0 115 -78 190t-196 75t-196.5 -75t-78.5 -190q0 -117 78.5 -192.5
t196.5 -75.5zM596 0q-115 3 -221 27q-67 -23 -107.5 -67t-40.5 -103q0 -166 340 -166q179 0 273 39.5t94 115.5q0 78 -83 112t-255 42zM598 1165q-142 0 -230 89t-102 245h117q12 -101 68.5 -158t146.5 -57t147 57.5t68 157.5h117q-10 -155 -100 -244.5t-232 -89.5z" />
    <glyph glyph-name="Gdotaccent" unicode="&#x120;" horiz-adv-x="1488" 
d="M698 1581v168h160v-168h-160zM113 731q0 158 52 293t145.5 230.5t229 149.5t296.5 54q266 0 481 -141l-90 -127q-179 117 -387 117q-246 0 -397.5 -160t-151.5 -416q0 -278 146.5 -441t402.5 -163q199 0 334 84v410h-400v133h561v-633q-101 -70 -230 -108t-269 -38
q-331 0 -527 206.5t-196 549.5z" />
    <glyph glyph-name="gdotaccent" unicode="&#x121;" horiz-adv-x="1175" 
d="M66 -150q0 76 47.5 134.5t130.5 95.5q-80 56 -80 145q0 102 104 164q-164 114 -164 311q0 170 126 278.5t313 108.5q166 0 286 -90q124 96 291 93v-129q-148 0 -219 -31q80 -100 80 -230q0 -117 -62 -208t-161 -138t-215 -47q-103 0 -185 33q-59 -29 -59 -86
q0 -27 14.5 -46t38 -31t68.5 -20t90.5 -12t118.5 -8q107 -6 188.5 -22t146 -47.5t98.5 -83.5t34 -123q0 -139 -132.5 -215t-388.5 -76q-245 0 -377 72.5t-132 207.5zM543 432q118 0 196 75t78 193q0 115 -78 190t-196 75t-196.5 -75t-78.5 -190q0 -117 78.5 -192.5
t196.5 -75.5zM596 0q-115 3 -221 27q-67 -23 -107.5 -67t-40.5 -103q0 -166 340 -166q179 0 273 39.5t94 115.5q0 78 -83 112t-255 42zM510 1253v168h158v-168h-158z" />
    <glyph glyph-name="Gcommaaccent" unicode="&#x122;" horiz-adv-x="1488" 
d="M113 731q0 158 52 293t145.5 230.5t229 149.5t296.5 54q266 0 481 -141l-90 -127q-179 117 -387 117q-246 0 -397.5 -160t-151.5 -416q0 -278 146.5 -441t402.5 -163q199 0 334 84v410h-400v133h561v-633q-101 -70 -230 -108t-269 -38q-331 0 -527 206.5t-196 549.5z
M651 -113q46 11 86 11q81 0 124.5 -39.5t45.5 -102.5q1 -48 -28.5 -99.5t-79.5 -94.5h-121q96 92 96 166q0 32 -19 49t-55 16q-13 0 -49 -4v98z" />
    <glyph glyph-name="gcommaaccent" unicode="&#x123;" horiz-adv-x="1175" 
d="M717 1280v-98q-46 -11 -86 -11q-82 0 -125 39t-45 105q0 48 29.5 99.5t78.5 94.5h121q-96 -96 -96 -168q0 -30 19 -48.5t55 -18.5q8 0 26 2.5t23 3.5zM66 -150q0 76 47.5 134.5t130.5 95.5q-80 56 -80 145q0 102 104 164q-164 114 -164 311q0 170 126 278.5t313 108.5
q166 0 286 -90q124 96 291 93v-129q-148 0 -219 -31q80 -100 80 -230q0 -117 -62 -208t-161 -138t-215 -47q-103 0 -185 33q-59 -29 -59 -86q0 -27 14.5 -46t38 -31t68.5 -20t90.5 -12t118.5 -8q107 -6 188.5 -22t146 -47.5t98.5 -83.5t34 -123q0 -139 -132.5 -215
t-388.5 -76q-245 0 -377 72.5t-132 207.5zM543 432q118 0 196 75t78 193q0 115 -78 190t-196 75t-196.5 -75t-78.5 -190q0 -117 78.5 -192.5t196.5 -75.5zM596 0q-115 3 -221 27q-67 -23 -107.5 -67t-40.5 -103q0 -166 340 -166q179 0 273 39.5t94 115.5q0 78 -83 112
t-255 42z" />
    <glyph glyph-name="Hcircumflex" unicode="&#x124;" horiz-adv-x="1437" 
d="M172 0v1434h174v-627h746v627h174v-1434h-174v653h-746v-653h-174zM377 1546l258 236h168l258 -236h-119l-221 140h-2l-223 -140h-119z" />
    <glyph glyph-name="hcircumflex" unicode="&#x125;" horiz-adv-x="1185" 
d="M166 0v1546h170v-626q163 170 360 170q174 0 255 -97.5t81 -271.5v-721h-168v723q0 229 -205 229q-184 0 -323 -168v-784h-170zM-92 1632l258 236h168l258 -236h-119l-221 140h-2l-223 -140h-119z" />
    <glyph glyph-name="Hbar" unicode="&#x126;" horiz-adv-x="1437" 
d="M172 0v1434h174v-254h746v254h174v-1434h-174v653h-746v-653h-174zM346 807h746v260h-746v-260z" />
    <glyph glyph-name="hbar" unicode="&#x127;" horiz-adv-x="1193" 
d="M16 1255v115h158v176h170v-176h277v-115h-277v-335q163 170 361 170q335 0 335 -369v-721h-168v723q0 229 -204 229q-185 0 -324 -168v-784h-170v1255h-158z" />
    <glyph glyph-name="Itilde" unicode="&#x128;" horiz-adv-x="516" 
d="M172 0v1434h174v-1434h-174zM-47 1556q-12 109 35 171.5t135 62.5q42 0 82 -20t66 -44.5t57 -44.5t57 -20q39 0 58.5 29.5t13.5 81.5h106q13 -107 -35 -170.5t-135 -63.5q-42 0 -82 20t-65.5 43.5t-57 43.5t-59.5 20q-37 0 -56.5 -28.5t-13.5 -80.5h-106z" />
    <glyph glyph-name="itilde" unicode="&#x129;" horiz-adv-x="499" 
d="M166 0v1057h170v-1057h-170zM-55 1229q-12 109 35 172t135 63q42 0 82 -20t65 -44.5t56 -44.5t57 -20q39 0 58 29t13 82h105q13 -108 -34 -172t-134 -64q-41 0 -81 20t-65.5 43.5t-57 43.5t-58.5 20q-38 0 -57 -27.5t-13 -80.5h-106z" />
    <glyph glyph-name="Imacron" unicode="&#x12a;" horiz-adv-x="516" 
d="M172 0v1434h174v-1434h-174zM-45 1604v118h606v-118h-606z" />
    <glyph glyph-name="imacron" unicode="&#x12b;" horiz-adv-x="499" 
d="M166 0v1057h170v-1057h-170zM-51 1278v119h602v-119h-602z" />
    <glyph glyph-name="Ibreve" unicode="&#x12c;" horiz-adv-x="516" 
d="M172 0v1434h174v-1434h-174zM258 1536q-137 0 -225.5 65t-118.5 181h123q24 -60 80.5 -94.5t140.5 -34.5t140.5 34.5t80.5 94.5h123q-28 -115 -118 -180.5t-226 -65.5z" />
    <glyph glyph-name="ibreve" unicode="&#x12d;" horiz-adv-x="499" 
d="M166 0v1057h170v-1057h-170zM250 1165q-142 0 -230 89t-102 245h117q12 -101 68.5 -158t146.5 -57t147 57.5t68 157.5h117q-10 -155 -100 -244.5t-232 -89.5z" />
    <glyph glyph-name="Iogonek" unicode="&#x12e;" horiz-adv-x="516" 
d="M172 0v1434h174v-1434q-176 -79 -176 -201q0 -43 29 -67.5t75 -24.5q58 0 111 29l4 -4v-127q-67 -29 -139 -29q-93 0 -152 51.5t-59 139.5q0 137 147 233h-14z" />
    <glyph glyph-name="iogonek" unicode="&#x12f;" horiz-adv-x="499" 
d="M166 0v1057h170v-1057h-2q-176 -79 -176 -201q0 -43 29 -67.5t75 -24.5q58 0 111 29l4 -4v-127q-67 -29 -139 -29q-93 0 -152 51.5t-59 139.5q0 137 147 233h-8zM166 1327v195h170v-195h-170z" />
    <glyph glyph-name="Idotaccent" unicode="&#x130;" horiz-adv-x="516" 
d="M172 0v1434h174v-1434h-174zM178 1581v168h160v-168h-160z" />
    <glyph glyph-name="dotlessi" unicode="&#x131;" horiz-adv-x="499" 
d="M166 0v1057h170v-1057h-170z" />
    <glyph glyph-name="Jcircumflex" unicode="&#x134;" horiz-adv-x="1169" 
d="M98 272l142 80q92 -221 299 -221q145 0 217.5 90.5t72.5 251.5v961h175v-963q0 -234 -117.5 -365t-339.5 -131q-161 0 -274.5 81t-174.5 216zM575 1546l259 236h167l259 -236h-119l-221 140h-2l-224 -140h-119z" />
    <glyph glyph-name="jcircumflex" unicode="&#x135;" horiz-adv-x="518" 
d="M184 -57v1114h168v-1108q0 -379 -321 -379q-73 0 -137 22l32 134q51 -15 88 -15q170 0 170 232zM-74 1176l254 323h180l254 -323h-122l-222 223h-2l-221 -223h-121z" />
    <glyph glyph-name="Kcommaaccent" unicode="&#x136;" horiz-adv-x="1372" 
d="M172 0v1434h174v-801l694 801h203l-467 -537l522 -897h-204l-432 766l-316 -360v-406h-174zM547 -113q46 11 86 11q81 0 124.5 -39.5t45.5 -102.5q1 -47 -29 -98.5t-80 -95.5h-121q97 93 97 166q0 32 -19 49t-55 16q-13 0 -49 -4v98z" />
    <glyph glyph-name="kcommaaccent" unicode="&#x137;" horiz-adv-x="1097" 
d="M166 0v1546h170v-1028l477 545h193l-324 -358l373 -705h-195l-291 580l-233 -258v-322h-170zM479 -113q46 11 84 11q83 0 126.5 -39.5t43.5 -102.5q3 -47 -27.5 -98.5t-80.5 -95.5h-119q96 96 96 166q0 32 -19 49t-55 16q-17 0 -49 -4v98z" />
    <glyph glyph-name="kgreenlandic" unicode="&#x138;" horiz-adv-x="1097" 
d="M166 0v1063h170v-545l477 545h193l-324 -358l373 -705h-195l-291 580l-233 -258v-322h-170z" />
    <glyph glyph-name="Lacute" unicode="&#x139;" horiz-adv-x="1239" 
d="M172 1546l229 275l136 -95l-236 -180h-129zM172 0v1434h174v-1278h803v-156h-977z" />
    <glyph glyph-name="lacute" unicode="&#x13a;" horiz-adv-x="501" 
d="M164 1632l229 275l135 -95l-235 -180h-129zM166 0v1546h170v-1546h-170z" />
    <glyph glyph-name="Lcommaaccent" unicode="&#x13b;" horiz-adv-x="1239" 
d="M172 0v1434h174v-1278h803v-156h-977zM530 -113q46 11 86 11q81 0 124.5 -39.5t45.5 -102.5q1 -48 -28.5 -99.5t-79.5 -94.5h-121q96 92 96 166q0 32 -18.5 49t-54.5 16q-14 0 -50 -4v98z" />
    <glyph glyph-name="lcommaaccent" unicode="&#x13c;" horiz-adv-x="501" 
d="M164 -113q46 11 84 11q83 0 126.5 -39.5t43.5 -102.5q3 -47 -27.5 -98.5t-81.5 -95.5h-119q97 97 97 166q0 32 -19 49t-55 16q-17 0 -49 -4v98zM166 0v1546h170v-1546h-170z" />
    <glyph glyph-name="Lcaron" unicode="&#x13d;" horiz-adv-x="1239" 
d="M172 0v1434h174v-1278h803v-156h-977zM518 1432q42 10 86 10q81 0 124.5 -39.5t45.5 -102.5q1 -48 -28.5 -99.5t-79.5 -94.5h-121q96 92 96 166q0 32 -19 49t-55 16q-13 0 -49 -4v99z" />
    <glyph glyph-name="lcaron" unicode="&#x13e;" horiz-adv-x="501" 
d="M481 1384v99q42 10 86 10q82 0 125 -39t45 -104q0 -48 -29.5 -100t-78.5 -95h-121q96 96 96 168q0 30 -19 49t-55 19q-8 0 -25 -3t-24 -4zM166 0v1546h170v-1546h-170z" />
    <glyph glyph-name="Ldot" unicode="&#x13f;" horiz-adv-x="1239" 
d="M172 0v1434h174v-1278h803v-156h-977zM991 696v168h160v-168h-160z" />
    <glyph glyph-name="ldot" unicode="&#x140;" horiz-adv-x="501" 
d="M166 0v1546h170v-1546h-170zM451 631v168h157v-168h-157z" />
    <glyph glyph-name="Lslash" unicode="&#x141;" horiz-adv-x="1300" 
d="M25 455v135l206 119v725h175v-627l405 233v-137l-405 -231v-516h802v-156h-977v571z" />
    <glyph glyph-name="lslash" unicode="&#x142;" horiz-adv-x="534" 
d="M10 563v137l174 99v747h170v-651l172 98v-137l-172 -98v-758h-170v662z" />
    <glyph glyph-name="Nacute" unicode="&#x143;" horiz-adv-x="1484" 
d="M657 1546l230 275l135 -95l-236 -180h-129zM172 0v1434h176l797 -1164v1164h168v-1434h-178l-795 1161v-1161h-168z" />
    <glyph glyph-name="nacute" unicode="&#x144;" horiz-adv-x="1177" 
d="M494 1176l284 362l121 -92l-289 -270h-116zM158 0v1063h157l11 -143q163 170 364 170q173 0 254.5 -97.5t81.5 -271.5v-721h-170v723q0 229 -203 229q-187 0 -325 -170v-782h-170z" />
    <glyph glyph-name="Ncommaaccent" unicode="&#x145;" horiz-adv-x="1484" 
d="M610 -113q46 11 86 11q81 0 124.5 -39.5t45.5 -102.5q1 -48 -28.5 -99.5t-79.5 -94.5h-121q96 92 96 166q0 32 -19 49t-55 16q-13 0 -49 -4v98zM172 0v1434h176l797 -1164v1164h168v-1434h-178l-795 1161v-1161h-168z" />
    <glyph glyph-name="ncommaaccent" unicode="&#x146;" horiz-adv-x="1177" 
d="M467 -113q46 11 84 11q83 0 126.5 -39.5t43.5 -102.5q3 -47 -27.5 -98.5t-81.5 -95.5h-118q96 96 96 166q0 32 -19 49t-55 16q-17 0 -49 -4v98zM158 0v1063h157l11 -143q163 170 364 170q173 0 254.5 -97.5t81.5 -271.5v-721h-170v723q0 229 -203 229q-187 0 -325 -170
v-782h-170z" />
    <glyph glyph-name="Ncaron" unicode="&#x147;" horiz-adv-x="1484" 
d="M655 1546l-256 236h119l221 -137h2l224 137h118l-258 -236h-170zM172 0v1434h176l797 -1164v1164h168v-1434h-178l-795 1161v-1161h-168z" />
    <glyph glyph-name="ncaron" unicode="&#x148;" horiz-adv-x="1177" 
d="M502 1176l-254 323h121l221 -223h2l221 223h123l-254 -323h-180zM158 0v1063h157l11 -143q163 170 364 170q173 0 254.5 -97.5t81.5 -271.5v-721h-170v723q0 229 -203 229q-187 0 -325 -170v-782h-170z" />
    <glyph glyph-name="Eng" unicode="&#x14a;" horiz-adv-x="1484" 
d="M172 0v1434h176l797 -1149v1149h168v-1483q0 -197 -85 -289t-235 -92q-80 0 -139 22l33 136q44 -13 88 -13q170 0 170 228v59l-805 1159v-1161h-168z" />
    <glyph glyph-name="eng" unicode="&#x14b;" horiz-adv-x="1177" 
d="M158 0v1063h157l11 -143q163 170 364 170q173 0 254.5 -97.5t81.5 -271.5v-772q0 -196 -84.5 -287.5t-236.5 -91.5q-72 0 -140 22l35 134q51 -15 86 -15q170 0 170 232v784q0 225 -203 225q-187 0 -325 -170v-782h-170z" />
    <glyph glyph-name="Omacron" unicode="&#x14c;" horiz-adv-x="1656" 
d="M526 1604v118h607v-118h-607zM113 727q0 216 95 384t257.5 257.5t363.5 89.5q149 0 281 -52.5t228 -146.5t152 -232t56 -300q0 -169 -55 -311t-151 -238.5t-227.5 -149.5t-283.5 -53t-283.5 53t-227 149.5t-150.5 238.5t-55 311zM291 727q0 -138 41.5 -251.5t114 -189.5
t170.5 -117.5t212 -41.5q113 0 211.5 41.5t171 117.5t114.5 190t42 251q0 130 -42 239.5t-114.5 183.5t-171.5 115.5t-211 41.5t-211 -41.5t-171 -115.5t-114 -183.5t-42 -239.5z" />
    <glyph glyph-name="omacron" unicode="&#x14d;" horiz-adv-x="1230" 
d="M313 1278v119h602v-119h-602zM104 545q0 244 144.5 393t367.5 149t365.5 -149t142.5 -393q0 -261 -139.5 -415.5t-368.5 -154.5q-232 0 -372 154.5t-140 415.5zM276 545q0 -198 91.5 -316t248.5 -118q153 0 244.5 118.5t91.5 315.5q0 182 -93.5 293.5t-242.5 111.5
q-150 0 -245 -111.5t-95 -293.5z" />
    <glyph glyph-name="Obreve" unicode="&#x14e;" horiz-adv-x="1656" 
d="M829 1536q-137 0 -225.5 65t-118.5 181h123q24 -60 80.5 -94.5t140.5 -34.5t141 34.5t81 94.5h123q-28 -115 -118 -180.5t-227 -65.5zM113 727q0 216 95 384t257.5 257.5t363.5 89.5q149 0 281 -52.5t228 -146.5t152 -232t56 -300q0 -169 -55 -311t-151 -238.5
t-227.5 -149.5t-283.5 -53t-283.5 53t-227 149.5t-150.5 238.5t-55 311zM291 727q0 -138 41.5 -251.5t114 -189.5t170.5 -117.5t212 -41.5q113 0 211.5 41.5t171 117.5t114.5 190t42 251q0 130 -42 239.5t-114.5 183.5t-171.5 115.5t-211 41.5t-211 -41.5t-171 -115.5
t-114 -183.5t-42 -239.5z" />
    <glyph glyph-name="obreve" unicode="&#x14f;" horiz-adv-x="1230" 
d="M104 545q0 244 144.5 393t367.5 149t365.5 -149t142.5 -393q0 -261 -139.5 -415.5t-368.5 -154.5q-232 0 -372 154.5t-140 415.5zM276 545q0 -198 91.5 -316t248.5 -118q153 0 244.5 118.5t91.5 315.5q0 182 -93.5 293.5t-242.5 111.5q-150 0 -245 -111.5t-95 -293.5z
M614 1165q-142 0 -229.5 89t-101.5 245h116q12 -101 68.5 -158t146.5 -57t147 57.5t68 157.5h117q-10 -155 -100 -244.5t-232 -89.5z" />
    <glyph glyph-name="Ohungarumlaut" unicode="&#x150;" horiz-adv-x="1656" 
d="M113 727q0 216 95 384t257.5 257.5t363.5 89.5q149 0 281 -52.5t228 -146.5t152 -232t56 -300q0 -169 -55 -311t-151 -238.5t-227.5 -149.5t-283.5 -53t-283.5 53t-227 149.5t-150.5 238.5t-55 311zM291 727q0 -138 41.5 -251.5t114 -189.5t170.5 -117.5t212 -41.5
q113 0 211.5 41.5t171 117.5t114.5 190t42 251q0 130 -42 239.5t-114.5 183.5t-171.5 115.5t-211 41.5t-211 -41.5t-171 -115.5t-114 -183.5t-42 -239.5zM582 1546l229 275l133 -95l-233 -180h-129zM897 1546l229 275l131 -95l-233 -180h-127z" />
    <glyph glyph-name="ohungarumlaut" unicode="&#x151;" horiz-adv-x="1230" 
d="M383 1176l270 362l123 -86l-280 -276h-113zM707 1176l268 362l121 -86l-279 -276h-110zM104 545q0 244 144.5 393t367.5 149t365.5 -149t142.5 -393q0 -261 -139.5 -415.5t-368.5 -154.5q-232 0 -372 154.5t-140 415.5zM276 545q0 -198 91.5 -316t248.5 -118
q153 0 244.5 118.5t91.5 315.5q0 182 -93.5 293.5t-242.5 111.5q-150 0 -245 -111.5t-95 -293.5z" />
    <glyph glyph-name="OE" unicode="&#x152;" horiz-adv-x="2486" 
d="M113 729q0 155 54.5 291t148.5 231.5t224 151t277 55.5q176 0 319.5 -84.5t223.5 -232.5v293h983v-156h-809v-475h727v-148h-727v-499h821v-156h-995v293q-79 -150 -221 -234t-322 -84q-151 0 -281 55.5t-223.5 154t-146.5 239t-53 305.5zM289 729q0 -267 150.5 -434.5
t383.5 -167.5q234 0 385.5 168t151.5 434q0 124 -42 232t-114 183.5t-171 119t-210 43.5q-227 0 -380.5 -164t-153.5 -414z" />
    <glyph glyph-name="oe" unicode="&#x153;" horiz-adv-x="2007" 
d="M104 545q0 244 145 394.5t369 150.5q148 0 257.5 -73.5t160.5 -205.5q56 132 166.5 205.5t257.5 73.5q215 0 326.5 -131.5t111.5 -344.5q0 -44 -8 -90h-764q3 -199 91.5 -304t257.5 -105q162 0 309 100l78 -115q-181 -127 -394 -127q-162 0 -271 72.5t-161 208.5
q-53 -133 -161.5 -207t-256.5 -74q-231 0 -372.5 156t-141.5 416zM279 545q0 -198 90.5 -316t246.5 -118q153 0 244.5 118.5t91.5 315.5q0 184 -93 295.5t-243 111.5t-243.5 -112t-93.5 -295zM1133 639h600q1 92 -24.5 161.5t-87.5 113.5t-157 44q-130 0 -219 -85t-112 -234
z" />
    <glyph glyph-name="Racute" unicode="&#x154;" horiz-adv-x="1398" 
d="M172 0v1434h600q106 0 191 -24.5t141 -65t93 -96t53 -116t16 -126.5q0 -137 -77 -248t-226 -156l305 -602h-193l-274 578h-455v-578h-174zM346 717h422q83 0 147 24.5t101 66t55.5 91t18.5 105.5q0 121 -79 201.5t-241 80.5h-424v-569zM596 1546l229 275l136 -95
l-236 -180h-129z" />
    <glyph glyph-name="racute" unicode="&#x155;" horiz-adv-x="827" 
d="M371 1176l284 362l121 -92l-289 -270h-116zM158 0v1063h153l15 -180q122 207 323 207q70 0 135 -21l-32 -160q-61 23 -125 23q-178 0 -299 -217v-715h-170z" />
    <glyph glyph-name="Rcommaaccent" unicode="&#x156;" horiz-adv-x="1398" 
d="M172 0v1434h600q106 0 191 -24.5t141 -65t93 -96t53 -116t16 -126.5q0 -137 -77 -248t-226 -156l305 -602h-193l-274 578h-23h-432v-578h-174zM346 717h422q83 0 147 24.5t101 66t55.5 91t18.5 105.5q0 121 -79 201.5t-241 80.5h-424v-569zM551 -113q46 11 86 11
q81 0 124.5 -39.5t45.5 -102.5q1 -47 -29 -98.5t-80 -95.5h-120q96 92 96 166q0 32 -19 49t-55 16q-13 0 -49 -4v98z" />
    <glyph glyph-name="rcommaaccent" unicode="&#x157;" horiz-adv-x="827" 
d="M156 -113q46 11 84 11q83 0 126.5 -39.5t43.5 -102.5q3 -47 -27.5 -98.5t-81.5 -95.5h-119q97 97 97 166q0 32 -19 49t-55 16q-17 0 -49 -4v98zM158 0v1063h153l15 -180q122 207 323 207q70 0 135 -21l-32 -160q-61 23 -125 23q-178 0 -299 -217v-715h-170z" />
    <glyph glyph-name="Rcaron" unicode="&#x158;" horiz-adv-x="1398" 
d="M172 0v1434h600q106 0 191 -24.5t141 -65t93 -96t53 -116t16 -126.5q0 -137 -77 -248t-226 -156l305 -602h-193l-274 578h-23h-432v-578h-174zM346 717h422q83 0 147 24.5t101 66t55.5 91t18.5 105.5q0 121 -79 201.5t-241 80.5h-424v-569zM596 1546l-256 236h119
l221 -137h2l223 137h119l-258 -236h-170z" />
    <glyph glyph-name="rcaron" unicode="&#x159;" horiz-adv-x="827" 
d="M381 1176l-254 323h121l221 -223h2l221 223h123l-254 -323h-180zM158 0v1063h153l15 -180q122 207 323 207q70 0 135 -21l-32 -160q-61 23 -125 23q-178 0 -299 -217v-715h-170z" />
    <glyph glyph-name="Sacute" unicode="&#x15a;" horiz-adv-x="1261" 
d="M106 123l87 139q200 -131 442 -131q164 0 250 67t86 177q0 62 -28.5 107.5t-77.5 73t-112 48t-132.5 37.5t-139 36.5t-132.5 50t-112 72t-77.5 109.5t-28.5 156q0 169 133 281t359 112q250 0 475 -108l-68 -144q-196 97 -401 97q-146 0 -231 -66.5t-85 -169.5
q0 -62 28.5 -107.5t77 -73t111.5 -47.5t132.5 -37t139 -36t132.5 -49.5t111.5 -72.5t77 -110.5t28.5 -158.5q0 -177 -132.5 -288.5t-383.5 -111.5q-150 0 -290 41.5t-239 106.5zM547 1546l229 275l135 -95l-235 -180h-129z" />
    <glyph glyph-name="sacute" unicode="&#x15b;" horiz-adv-x="972" 
d="M387 1176l285 362l121 -92l-289 -270h-117zM80 86l76 123q156 -96 331 -96q111 0 172.5 42t61.5 121q0 42 -21 73.5t-57 51t-83 34.5t-98.5 28t-102.5 28t-98 38.5t-83 55t-57 81.5t-21 114q0 140 107.5 223.5t275.5 83.5q183 0 363 -83l-68 -130q-65 34 -145 55t-150 21
q-98 0 -156.5 -44t-58.5 -120q0 -47 26.5 -80.5t70 -51t99 -34.5t114 -29t114 -36t99 -55t70 -86t26.5 -129q0 -147 -107 -228.5t-293 -81.5q-226 0 -407 111z" />
    <glyph glyph-name="Scircumflex" unicode="&#x15c;" horiz-adv-x="1261" 
d="M106 123l87 139q200 -131 442 -131q164 0 250 67t86 177q0 62 -28.5 107.5t-77.5 73t-112 48t-132.5 37.5t-139 36.5t-132.5 50t-112 72t-77.5 109.5t-28.5 156q0 169 133 281t359 112q250 0 475 -108l-68 -144q-196 97 -401 97q-146 0 -231 -66.5t-85 -169.5
q0 -62 28.5 -107.5t77 -73t111.5 -47.5t132.5 -37t139 -36t132.5 -49.5t111.5 -72.5t77 -110.5t28.5 -158.5q0 -177 -132.5 -288.5t-383.5 -111.5q-150 0 -290 41.5t-239 106.5zM291 1546l258 236h168l258 -236h-119l-221 140h-2l-223 -140h-119z" />
    <glyph glyph-name="scircumflex" unicode="&#x15d;" horiz-adv-x="972" 
d="M147 1176l254 323h181l254 -323h-123l-221 223h-3l-221 -223h-121zM80 86l76 123q156 -96 331 -96q111 0 172.5 42t61.5 121q0 42 -21 73.5t-57 51t-83 34.5t-98.5 28t-102.5 28t-98 38.5t-83 55t-57 81.5t-21 114q0 140 107.5 223.5t275.5 83.5q183 0 363 -83l-68 -130
q-65 34 -145 55t-150 21q-98 0 -156.5 -44t-58.5 -120q0 -47 26.5 -80.5t70 -51t99 -34.5t114 -29t114 -36t99 -55t70 -86t26.5 -129q0 -147 -107 -228.5t-293 -81.5q-226 0 -407 111z" />
    <glyph glyph-name="Scedilla" unicode="&#x15e;" horiz-adv-x="1261" 
d="M322 -379q201 164 249 356q-133 9 -254.5 49t-210.5 97l87 139q200 -131 442 -131q164 0 250 67t86 177q0 62 -28.5 107.5t-77.5 73t-112 48t-132.5 37.5t-139 36.5t-132.5 50t-112 72t-77.5 109.5t-28.5 156q0 169 133 281t359 112q250 0 475 -108l-68 -144
q-196 97 -401 97q-146 0 -231 -66.5t-85 -169.5q0 -62 28.5 -107.5t77 -73t111.5 -47.5t132.5 -37t139 -36t132.5 -49.5t111.5 -72.5t77 -110.5t28.5 -158.5q0 -168 -120.5 -278t-348.5 -120q-38 -246 -231 -421z" />
    <glyph glyph-name="scedilla" unicode="&#x15f;" horiz-adv-x="972" 
d="M172 -379q204 167 250 359q-197 15 -342 106l76 123q156 -96 331 -96q111 0 172.5 42t61.5 121q0 42 -21 73.5t-57 51t-83 34.5t-98.5 28t-102.5 28t-98 38.5t-83 55t-57 81.5t-21 114q0 140 107.5 223.5t275.5 83.5q183 0 363 -83l-68 -130q-65 34 -145 55t-150 21
q-98 0 -156.5 -44t-58.5 -120q0 -47 26.5 -80.5t70 -51t99 -34.5t114 -29t114 -36t99 -55t70 -86t26.5 -129q0 -137 -94.5 -217t-260.5 -91q-38 -246 -231 -421z" />
    <glyph glyph-name="Scaron" unicode="&#x160;" horiz-adv-x="1261" 
d="M106 123l87 139q200 -131 442 -131q164 0 250 67t86 177q0 62 -28.5 107.5t-77.5 73t-112 48t-132.5 37.5t-139 36.5t-132.5 50t-112 72t-77.5 109.5t-28.5 156q0 169 133 281t359 112q250 0 475 -108l-68 -144q-196 97 -401 97q-146 0 -231 -66.5t-85 -169.5
q0 -62 28.5 -107.5t77 -73t111.5 -47.5t132.5 -37t139 -36t132.5 -49.5t111.5 -72.5t77 -110.5t28.5 -158.5q0 -177 -132.5 -288.5t-383.5 -111.5q-150 0 -290 41.5t-239 106.5zM547 1546l-256 236h119l221 -137h2l223 137h119l-258 -236h-170z" />
    <glyph glyph-name="scaron" unicode="&#x161;" horiz-adv-x="972" 
d="M401 1176l-254 323h121l221 -223h3l221 223h123l-254 -323h-181zM80 86l76 123q156 -96 331 -96q111 0 172.5 42t61.5 121q0 42 -21 73.5t-57 51t-83 34.5t-98.5 28t-102.5 28t-98 38.5t-83 55t-57 81.5t-21 114q0 140 107.5 223.5t275.5 83.5q183 0 363 -83l-68 -130
q-65 34 -145 55t-150 21q-98 0 -156.5 -44t-58.5 -120q0 -47 26.5 -80.5t70 -51t99 -34.5t114 -29t114 -36t99 -55t70 -86t26.5 -129q0 -147 -107 -228.5t-293 -81.5q-226 0 -407 111z" />
    <glyph glyph-name="Tcedilla" unicode="&#x162;" horiz-adv-x="1333" 
d="M606 -94h119q-52 -201 -217 -350l-129 65q162 132 227 285zM580 0v1278h-519v156h1213v-156h-520v-1278h-174z" />
    <glyph glyph-name="tcedilla" unicode="&#x163;" horiz-adv-x="800" 
d="M338 -94h119q-52 -201 -217 -350l-129 65q162 132 227 285zM233 283v649h-186v131h186v311h170v-311h306v-131h-306v-647q0 -170 140 -170q84 0 157 51l66 -111q-112 -80 -242 -80q-149 0 -220 77t-71 231z" />
    <glyph glyph-name="Tcaron" unicode="&#x164;" horiz-adv-x="1333" 
d="M582 1546l-256 236h118l222 -137h2l223 137h119l-258 -236h-170zM580 0v1278h-519v156h1213v-156h-520v-1278h-174z" />
    <glyph glyph-name="tcaron" unicode="&#x165;" horiz-adv-x="800" 
d="M561 1389v98q42 10 86 10q82 0 125 -39t45 -104q0 -48 -29.5 -100t-78.5 -95h-121q96 96 96 168q0 30 -19 49t-55 19q-8 0 -26 -2.5t-23 -3.5zM233 283v649h-186v131h186v311h170v-311h306v-131h-306v-647q0 -170 140 -170q84 0 157 51l66 -111q-112 -80 -242 -80
q-149 0 -220 77t-71 231z" />
    <glyph glyph-name="Tbar" unicode="&#x166;" horiz-adv-x="1333" 
d="M256 662v116h324v500h-519v156h1213v-156h-520v-500h325v-116h-325v-662h-174v662h-324z" />
    <glyph glyph-name="tbar" unicode="&#x167;" horiz-adv-x="800" 
d="M66 549v115h167v268h-186v131h186v311h170v-311h306v-131h-306v-268h279v-115h-279v-264q0 -170 140 -170q84 0 157 51l66 -111q-112 -80 -242 -80q-149 0 -220 77t-71 231v266h-167z" />
    <glyph glyph-name="Utilde" unicode="&#x168;" horiz-adv-x="1466" 
d="M428 1556q-12 109 35 171.5t135 62.5q42 0 82 -20t66 -44.5t57 -44.5t57 -20q39 0 58.5 29.5t13.5 81.5h106q13 -107 -35 -170.5t-135 -63.5q-42 0 -82 20t-65.5 43.5t-57 43.5t-59.5 20q-37 0 -56 -28.5t-13 -80.5h-107zM166 530v904h176v-904q0 -190 110 -296.5
t281 -106.5t282 106.5t111 296.5v904h174v-904q0 -135 -43.5 -242t-120.5 -174.5t-179.5 -103t-223.5 -35.5t-223.5 35.5t-179.5 103t-120.5 174.5t-43.5 242z" />
    <glyph glyph-name="utilde" unicode="&#x169;" horiz-adv-x="1179" 
d="M154 344v719h170v-723q0 -110 46 -169.5t156 -59.5q187 0 328 170v782h170v-1063h-154l-14 143q-164 -168 -364 -168q-174 0 -256 97.5t-82 271.5zM285 1229q-12 109 35 172t135 63q42 0 82 -20t65 -44.5t56 -44.5t57 -20q39 0 58 29t13 82h105q13 -108 -34 -172
t-134 -64q-41 0 -81 20t-65.5 43.5t-57 43.5t-58.5 20q-38 0 -57 -27.5t-13 -80.5h-106z" />
    <glyph glyph-name="Umacron" unicode="&#x16a;" horiz-adv-x="1466" 
d="M430 1604v118h606v-118h-606zM166 530v904h176v-904q0 -190 110 -296.5t281 -106.5t282 106.5t111 296.5v904h174v-904q0 -135 -43.5 -242t-120.5 -174.5t-179.5 -103t-223.5 -35.5t-223.5 35.5t-179.5 103t-120.5 174.5t-43.5 242z" />
    <glyph glyph-name="umacron" unicode="&#x16b;" horiz-adv-x="1179" 
d="M154 344v719h170v-723q0 -110 46 -169.5t156 -59.5q187 0 328 170v782h170v-1063h-154l-14 143q-164 -168 -364 -168q-174 0 -256 97.5t-82 271.5zM287 1278v119h602v-119h-602z" />
    <glyph glyph-name="Ubreve" unicode="&#x16c;" horiz-adv-x="1466" 
d="M731 1536q-137 0 -225.5 65t-118.5 181h123q24 -60 80.5 -94.5t140.5 -34.5t140.5 34.5t80.5 94.5h123q-28 -115 -118 -180.5t-226 -65.5zM166 530v904h176v-904q0 -190 110 -296.5t281 -106.5t282 106.5t111 296.5v904h174v-904q0 -135 -43.5 -242t-120.5 -174.5
t-179.5 -103t-223.5 -35.5t-223.5 35.5t-179.5 103t-120.5 174.5t-43.5 242z" />
    <glyph glyph-name="ubreve" unicode="&#x16d;" horiz-adv-x="1179" 
d="M154 344v719h170v-723q0 -110 46 -169.5t156 -59.5q187 0 328 170v782h170v-1063h-154l-14 143q-164 -168 -364 -168q-174 0 -256 97.5t-82 271.5zM588 1165q-142 0 -230 89t-102 245h117q12 -101 68.5 -158t146.5 -57t147 57.5t68 157.5h117q-10 -155 -100 -244.5
t-232 -89.5z" />
    <glyph glyph-name="Uring" unicode="&#x16e;" horiz-adv-x="1466" 
d="M166 530v904h176v-904q0 -190 110 -296.5t281 -106.5t282 106.5t111 296.5v904h174v-904q0 -135 -43.5 -242t-120.5 -174.5t-179.5 -103t-223.5 -35.5t-223.5 35.5t-179.5 103t-120.5 174.5t-43.5 242zM733 1540q-90 0 -152.5 59.5t-62.5 147.5q0 89 62.5 150t152.5 61
t152.5 -61t62.5 -150q0 -88 -62.5 -147.5t-152.5 -59.5zM733 1614q55 0 93 38.5t38 94.5q0 57 -37.5 95t-93.5 38t-94.5 -38t-38.5 -95q0 -55 39 -94t94 -39z" />
    <glyph glyph-name="uring" unicode="&#x16f;" horiz-adv-x="1179" 
d="M588 1167q-90 0 -152.5 60t-62.5 149t62.5 149t152.5 60t152.5 -60t62.5 -149t-62.5 -149t-152.5 -60zM588 1241q55 0 94 39.5t39 95.5q0 57 -38.5 95t-94.5 38t-94.5 -38t-38.5 -95q0 -56 39 -95.5t94 -39.5zM154 344v719h170v-723q0 -110 46 -169.5t156 -59.5
q187 0 328 170v782h170v-1063h-154l-14 143q-164 -168 -364 -168q-174 0 -256 97.5t-82 271.5z" />
    <glyph glyph-name="Uhungarumlaut" unicode="&#x170;" horiz-adv-x="1466" 
d="M166 530v904h176v-904q0 -190 110 -296.5t281 -106.5t282 106.5t111 296.5v904h174v-904q0 -135 -43.5 -242t-120.5 -174.5t-179.5 -103t-223.5 -35.5t-223.5 35.5t-179.5 103t-120.5 174.5t-43.5 242zM485 1546l230 275l133 -95l-234 -180h-129zM801 1546l229 275
l131 -95l-233 -180h-127z" />
    <glyph glyph-name="uhungarumlaut" unicode="&#x171;" horiz-adv-x="1179" 
d="M154 344v719h170v-723q0 -110 46 -169.5t156 -59.5q187 0 328 170v782h170v-1063h-154l-14 143q-164 -168 -364 -168q-174 0 -256 97.5t-82 271.5zM352 1176l271 362l122 -86l-280 -276h-113zM676 1176l268 362l121 -86l-279 -276h-110z" />
    <glyph glyph-name="Uogonek" unicode="&#x172;" horiz-adv-x="1466" 
d="M166 530v904h176v-904q0 -190 110 -296.5t281 -106.5t282 106.5t111 296.5v904h174v-904q0 -172 -68.5 -294.5t-187.5 -186.5q-114 -63 -173.5 -119.5t-59.5 -126.5q0 -45 30.5 -70.5t82.5 -25.5q57 0 110 29l4 -4v-127q-67 -29 -137 -29q-99 0 -160 52.5t-61 140.5
q0 110 113 211q-35 -5 -60 -5q-121 0 -223.5 35.5t-179.5 103t-120.5 174.5t-43.5 242z" />
    <glyph glyph-name="uogonek" unicode="&#x173;" horiz-adv-x="1179" 
d="M154 344v719h170v-723q0 -110 46 -169.5t156 -59.5q187 0 328 170v782h170v-1063q-176 -79 -176 -201q0 -43 29 -67.5t75 -24.5q58 0 111 29l4 -4v-127q-67 -29 -139 -29q-93 0 -152 51.5t-59 139.5q0 142 153 235l-14 141q-164 -168 -364 -168q-174 0 -256 97.5
t-82 271.5z" />
    <glyph glyph-name="Wcircumflex" unicode="&#x174;" horiz-adv-x="2117" 
d="M520 0l-454 1434h186l369 -1196h4l350 1196h172l348 -1196h4l371 1196h184l-457 -1434h-192l-344 1171h-4l-344 -1171h-193zM717 1546l258 236h168l258 -236h-119l-221 140h-2l-223 -140h-119z" />
    <glyph glyph-name="wcircumflex" unicode="&#x175;" horiz-adv-x="1669" 
d="M492 1176l253 323h181l254 -323h-123l-221 223h-2l-222 -223h-120zM408 0l-363 1063h174l281 -852h4l256 852h151l258 -852h5l278 852h170l-360 -1063h-170l-256 825h-5l-253 -825h-170z" />
    <glyph glyph-name="Ycircumflex" unicode="&#x176;" horiz-adv-x="1370" 
d="M598 0v584l-541 850h207l420 -682h4l420 682h205l-541 -850v-584h-174zM342 1546l258 236h168l258 -236h-119l-221 140h-2l-223 -140h-119z" />
    <glyph glyph-name="ycircumflex" unicode="&#x177;" horiz-adv-x="1040" 
d="M82 -258q79 -31 129 -31q61 0 100 28t66 99l65 168l-395 1057h176l301 -840h4l293 840h172l-448 -1237q-54 -143 -133.5 -199.5t-194.5 -56.5q-95 0 -184 35zM178 1176l254 323h180l254 -323h-123l-221 223h-2l-221 -223h-121z" />
    <glyph glyph-name="Ydieresis" unicode="&#x178;" horiz-adv-x="1370" 
d="M598 0v584l-541 850h207l420 -682h4l420 682h205l-541 -850v-584h-174zM815 1581v168h156v-168h-156zM401 1581v168h158v-168h-158z" />
    <glyph glyph-name="Zacute" unicode="&#x179;" horiz-adv-x="1325" 
d="M115 0v145l858 1131h-856v158h1077v-144l-854 -1130h877v-160h-1102zM561 1546l230 275l135 -95l-236 -180h-129z" />
    <glyph glyph-name="zacute" unicode="&#x17a;" horiz-adv-x="1026" 
d="M412 1176l284 362l121 -92l-289 -270h-116zM102 0v119l603 807h-586v137h799v-121l-601 -805h621v-137h-836z" />
    <glyph glyph-name="Zdotaccent" unicode="&#x17b;" horiz-adv-x="1325" 
d="M561 1581v168h160v-168h-160zM115 0v145l858 1131h-856v158h1077v-144l-854 -1130h877v-160h-1102z" />
    <glyph glyph-name="zdotaccent" unicode="&#x17c;" horiz-adv-x="1026" 
d="M102 0v119l603 807h-586v137h799v-121l-601 -805h621v-137h-836zM432 1253v168h158v-168h-158z" />
    <glyph glyph-name="Zcaron" unicode="&#x17d;" horiz-adv-x="1325" 
d="M569 1546l-256 236h119l221 -137h2l224 137h118l-258 -236h-170zM115 0v145l858 1131h-856v158h1077v-144l-854 -1130h877v-160h-1102z" />
    <glyph glyph-name="zcaron" unicode="&#x17e;" horiz-adv-x="1026" 
d="M424 1176l-254 323h121l221 -223h2l221 223h123l-254 -323h-180zM102 0v119l603 807h-586v137h799v-121l-601 -805h621v-137h-836z" />
    <glyph glyph-name="Schwa" unicode="&#x18f;" horiz-adv-x="1488" 
d="M135 737h1067q-1 261 -142.5 414.5t-373.5 153.5q-208 0 -381 -127l-92 127q210 153 475 153q314 0 503 -196t189 -527q0 -350 -184 -555t-494 -205q-274 0 -425.5 171t-151.5 460q0 56 10 131zM705 123q207 0 335.5 131.5t155.5 361.5h-899q-7 -233 102 -363t306 -130z
" />
    <glyph glyph-name="florin" unicode="&#x192;" horiz-adv-x="788" 
d="M-51 -272q69 -19 114 -19q86 0 126 59.5t40 184.5v553h-190v133h190v94q0 211 109 309.5t299 98.5q83 0 172 -29l-41 -129q-69 21 -127 21q-240 0 -240 -271v-96h293v-131h-293v-553q0 -202 -79.5 -291.5t-243.5 -89.5q-80 0 -172 29z" />
    <glyph glyph-name="Khook" unicode="&#x198;" horiz-adv-x="1372" 
d="M172 0v1434h174v-826q86 32 156.5 119.5t146.5 241.5q113 239 243 344.5t335 124.5l2 -140q-148 -21 -246.5 -108.5t-194.5 -292.5l-4 -8l514 -889h-204l-404 721q-70 -107 -150 -167.5t-194 -96.5v-457h-174z" />
    <glyph glyph-name="khook" unicode="&#x199;" horiz-adv-x="1097" 
d="M166 0v1188q0 368 338 368v-143q-81 0 -124.5 -52.5t-43.5 -172.5v-670l475 545h195l-324 -358l373 -705h-195l-293 580l-231 -258v-322h-170z" />
    <glyph glyph-name="barredO" unicode="&#x19f;" horiz-adv-x="1656" 
d="M113 727q0 216 95 384t257.5 257.5t363.5 89.5q149 0 281 -52.5t228 -146.5t152 -232t56 -300q0 -169 -55 -311t-151 -238.5t-227.5 -149.5t-283.5 -53t-283.5 53t-227 149.5t-150.5 238.5t-55 311zM829 1307q-220 0 -370.5 -146t-165.5 -387h1073q-15 241 -166.5 387
t-370.5 146zM829 127q142 0 258.5 63t190.5 185.5t86 286.5h-1071q20 -247 169 -391t367 -144z" />
    <glyph glyph-name="Ezh" unicode="&#x1b7;" horiz-adv-x="1290" 
d="M254 608l657 666h-833v160h1087v-134l-686 -682q115 25 195 25q251 0 403 -145t152 -377q0 -133 -53 -239.5t-145.5 -173.5t-212.5 -102.5t-259 -35.5q-263 0 -475 102l63 135q196 -92 408 -92q142 0 252 45.5t176 140t66 224.5q0 186 -121.5 287.5t-339.5 101.5
q-120 0 -258 -29z" />
    <glyph glyph-name="Acaron" unicode="&#x1cd;" horiz-adv-x="1417" 
d="M61 0l543 1434h209l541 -1434h-189l-129 352h-657l-127 -352h-191zM705 1255l-275 -761h555l-276 761h-4zM623 1546l-256 236h118l222 -137h2l223 137h119l-258 -236h-170z" />
    <glyph glyph-name="acaron" unicode="&#x1ce;" horiz-adv-x="1085" 
d="M100 246q0 77 35.5 138t94.5 100.5t143 66.5t173 40t193 17v156q0 84 -51.5 133t-155.5 49q-143 0 -335 -98l-66 135q217 104 406 104t280.5 -88t91.5 -237v-531q0 -108 107 -108v-125q-111 0 -169.5 31.5t-86.5 101.5q-142 -156 -348 -156q-140 0 -226 75t-86 196z
M268 258q0 -69 49.5 -110.5t131.5 -41.5q92 0 168 38.5t122 97.5v258q-471 -22 -471 -242zM467 1176l-254 323h121l221 -223h2l221 223h123l-254 -323h-180z" />
    <glyph glyph-name="Icaron" unicode="&#x1cf;" horiz-adv-x="516" 
d="M172 0v1434h174v-1434h-174zM174 1546l-256 236h119l221 -137h2l223 137h119l-258 -236h-170z" />
    <glyph glyph-name="icaron" unicode="&#x1d0;" horiz-adv-x="499" 
d="M160 1176l-254 323h121l221 -223h2l221 223h123l-254 -323h-180zM166 0v1057h170v-1057h-170z" />
    <glyph glyph-name="Ocaron" unicode="&#x1d1;" horiz-adv-x="1656" 
d="M743 1546l-256 236h119l221 -137h2l224 137h118l-258 -236h-170zM113 727q0 216 95 384t257.5 257.5t363.5 89.5q149 0 281 -52.5t228 -146.5t152 -232t56 -300q0 -169 -55 -311t-151 -238.5t-227.5 -149.5t-283.5 -53t-283.5 53t-227 149.5t-150.5 238.5t-55 311z
M291 727q0 -138 41.5 -251.5t114 -189.5t170.5 -117.5t212 -41.5q113 0 211.5 41.5t171 117.5t114.5 190t42 251q0 130 -42 239.5t-114.5 183.5t-171.5 115.5t-211 41.5t-211 -41.5t-171 -115.5t-114 -183.5t-42 -239.5z" />
    <glyph glyph-name="ocaron" unicode="&#x1d2;" horiz-adv-x="1230" 
d="M526 1176l-254 323h121l221 -223h2l222 223h123l-254 -323h-181zM104 545q0 244 144.5 393t367.5 149t365.5 -149t142.5 -393q0 -261 -139.5 -415.5t-368.5 -154.5q-232 0 -372 154.5t-140 415.5zM276 545q0 -198 91.5 -316t248.5 -118q153 0 244.5 118.5t91.5 315.5
q0 182 -93.5 293.5t-242.5 111.5q-150 0 -245 -111.5t-95 -293.5z" />
    <glyph glyph-name="Ucaron" unicode="&#x1d3;" horiz-adv-x="1466" 
d="M647 1546l-256 236h119l221 -137h2l223 137h119l-258 -236h-170zM166 530v904h176v-904q0 -190 110 -296.5t281 -106.5t282 106.5t111 296.5v904h174v-904q0 -135 -43.5 -242t-120.5 -174.5t-179.5 -103t-223.5 -35.5t-223.5 35.5t-179.5 103t-120.5 174.5t-43.5 242z
" />
    <glyph glyph-name="ucaron" unicode="&#x1d4;" horiz-adv-x="1179" 
d="M500 1176l-254 323h121l221 -223h2l221 223h123l-254 -323h-180zM154 344v719h170v-723q0 -110 46 -169.5t156 -59.5q187 0 328 170v782h170v-1063h-154l-14 143q-164 -168 -364 -168q-174 0 -256 97.5t-82 271.5z" />
    <glyph glyph-name="Adieresismacron" unicode="&#x1de;" horiz-adv-x="1417" 
d="M61 0l543 1434h209l541 -1434h-189l-129 352h-657l-127 -352h-191zM705 1255l-275 -761h555l-276 761h-4zM838 1556v168h155v-168h-155zM424 1556v168h158v-168h-158zM403 1827v119h607v-119h-607z" />
    <glyph glyph-name="adieresismacron" unicode="&#x1df;" horiz-adv-x="1085" 
d="M100 246q0 77 35.5 138t94.5 100.5t143 66.5t173 40t193 17v156q0 84 -51.5 133t-155.5 49q-143 0 -335 -98l-66 135q217 104 406 104t280.5 -88t91.5 -237v-531q0 -108 107 -108v-125q-111 0 -169.5 31.5t-86.5 101.5q-142 -156 -348 -156q-140 0 -226 75t-86 196z
M268 258q0 -69 49.5 -110.5t131.5 -41.5q92 0 168 38.5t122 97.5v258q-471 -22 -471 -242zM678 1235v168h156v-168h-156zM279 1235v168h155v-168h-155zM254 1548v119h602v-119h-602z" />
    <glyph glyph-name="AEmacron" unicode="&#x1e2;" horiz-adv-x="2117" 
d="M55 0l658 1434h1259v-156h-968l137 -473h751v-150h-708l145 -499h658v-156h-801l-99 352h-679l-156 -352h-197zM819 1278l-346 -780h574l-218 780h-10zM709 1604v118h606v-118h-606z" />
    <glyph glyph-name="aemacron" unicode="&#x1e3;" horiz-adv-x="1792" 
d="M831 186q-62 -91 -172 -152t-243 -61q-142 0 -229 74.5t-87 196.5q-1 77 35 138t95 100t144 65.5t173.5 39.5t193.5 17v162q0 82 -50.5 131t-153.5 49q-146 0 -338 -98l-68 135q232 107 406 107q267 0 323 -205q63 97 163 151t226 54q144 0 243.5 -63.5t145 -168.5
t45.5 -244q0 -44 -8 -90h-764q3 -203 93.5 -306t255.5 -103q162 0 309 100l78 -115q-176 -127 -394 -127q-288 0 -422 213zM918 639h600q1 92 -24 161.5t-86.5 113.5t-156.5 44q-130 0 -220 -85.5t-113 -233.5zM270 256q0 -67 50.5 -109.5t130.5 -42.5q104 0 191.5 51.5
t133.5 139.5q-32 95 -35 203q-471 -18 -471 -242zM588 1278v119h602v-119h-602z" />
    <glyph glyph-name="Gstroke" unicode="&#x1e4;" horiz-adv-x="1495" 
d="M1077 367v116h97v138h-400v133h561v-271h183v-116h-183v-246q-101 -70 -230 -108t-269 -38q-331 0 -527 206.5t-196 549.5q0 158 52 293t145.5 230.5t229 149.5t296.5 54q266 0 481 -141l-90 -127q-179 117 -387 117q-246 0 -397.5 -160t-151.5 -416q0 -278 146.5 -441
t402.5 -163q199 0 334 84v156h-97z" />
    <glyph glyph-name="gstroke" unicode="&#x1e5;" horiz-adv-x="1167" 
d="M-35 -127v115h144q43 52 129 92q-80 56 -80 145q0 102 104 164q-164 114 -164 311q0 170 126 278.5t313 108.5q166 0 286 -90q124 96 291 93v-129q-148 0 -219 -31q80 -100 80 -230q0 -117 -62 -208t-161 -138t-215 -47q-103 0 -185 33q-59 -29 -59 -86q0 -27 14.5 -46
t38 -31t68.5 -20t90.5 -12t118.5 -8q336 -17 428 -149h125v-115h-86v-12q0 -139 -132.5 -215t-388.5 -76q-245 0 -377.5 72.5t-132.5 207.5v23h-94zM537 432q118 0 196 75t78 193q0 115 -78 190t-196 75t-196.5 -75t-78.5 -190q0 -117 78.5 -192.5t196.5 -75.5zM590 0
q-115 3 -221 27q-67 -23 -107.5 -67t-40.5 -103q0 -166 340 -166q179 0 273 39.5t94 115.5q0 78 -83 112t-255 42z" />
    <glyph glyph-name="Gcaron" unicode="&#x1e6;" horiz-adv-x="1488" 
d="M694 1546l-256 236h119l221 -137h2l224 137h118l-258 -236h-170zM113 731q0 158 52 293t145.5 230.5t229 149.5t296.5 54q266 0 481 -141l-90 -127q-179 117 -387 117q-246 0 -397.5 -160t-151.5 -416q0 -278 146.5 -441t402.5 -163q199 0 334 84v410h-400v133h561v-633
q-101 -70 -230 -108t-269 -38q-331 0 -527 206.5t-196 549.5z" />
    <glyph glyph-name="gcaron" unicode="&#x1e7;" horiz-adv-x="1175" 
d="M508 1176l-254 323h121l221 -223h2l221 223h123l-254 -323h-180zM66 -150q0 76 47.5 134.5t130.5 95.5q-80 56 -80 145q0 102 104 164q-164 114 -164 311q0 170 126 278.5t313 108.5q166 0 286 -90q124 96 291 93v-129q-148 0 -219 -31q80 -100 80 -230q0 -117 -62 -208
t-161 -138t-215 -47q-103 0 -185 33q-59 -29 -59 -86q0 -27 14.5 -46t38 -31t68.5 -20t90.5 -12t118.5 -8q107 -6 188.5 -22t146 -47.5t98.5 -83.5t34 -123q0 -139 -132.5 -215t-388.5 -76q-245 0 -377 72.5t-132 207.5zM543 432q118 0 196 75t78 193q0 115 -78 190t-196 75
t-196.5 -75t-78.5 -190q0 -117 78.5 -192.5t196.5 -75.5zM596 0q-115 3 -221 27q-67 -23 -107.5 -67t-40.5 -103q0 -166 340 -166q179 0 273 39.5t94 115.5q0 78 -83 112t-255 42z" />
    <glyph glyph-name="Kcaron" unicode="&#x1e8;" horiz-adv-x="1372" 
d="M172 0v1434h174v-801l694 801h203l-467 -537l522 -897h-204l-432 766l-316 -360v-406h-174zM590 1546l-256 236h119l221 -137h2l223 137h119l-258 -236h-170z" />
    <glyph glyph-name="kcaron" unicode="&#x1e9;" horiz-adv-x="1097" 
d="M166 0v1546h170v-1028l477 545h193l-324 -358l373 -705h-195l-291 580l-233 -258v-322h-170zM166 1632l-256 236h119l221 -137h2l223 137h119l-258 -236h-170z" />
    <glyph glyph-name="Oogonek" unicode="&#x1ea;" horiz-adv-x="1656" 
d="M113 727q0 216 95 384t257.5 257.5t363.5 89.5q149 0 281 -52.5t228 -146.5t152 -232t56 -300q0 -233 -100 -407.5t-272 -264.5q-117 -61 -181.5 -119.5t-64.5 -132.5q0 -45 29.5 -70.5t80.5 -25.5q58 0 111 29l6 -4v-127q-71 -29 -139 -29q-99 0 -160 52.5t-61 140.5
q0 111 114 213q-44 -7 -80 -7q-152 0 -283.5 53t-227 149.5t-150.5 238.5t-55 311zM291 727q0 -138 41.5 -251.5t114 -189.5t170.5 -117.5t212 -41.5q113 0 211.5 41.5t171 117.5t114.5 190t42 251q0 130 -42 239.5t-114.5 183.5t-171.5 115.5t-211 41.5t-211 -41.5
t-171 -115.5t-114 -183.5t-42 -239.5z" />
    <glyph glyph-name="oogonek" unicode="&#x1eb;" horiz-adv-x="1230" 
d="M104 545q0 244 144.5 393t367.5 149t365.5 -149t142.5 -393q0 -170 -62.5 -299t-174.5 -199q-120 -73 -175 -126.5t-55 -119.5q0 -45 29.5 -69.5t81.5 -24.5q65 0 111 27l6 -4v-125q-71 -29 -137 -29q-99 0 -159.5 52t-60.5 141q0 106 109 208q-8 -2 -33 -2
q-226 5 -363 158.5t-137 411.5zM276 545q0 -198 91.5 -316t248.5 -118q153 0 244.5 118.5t91.5 315.5q0 182 -93.5 293.5t-242.5 111.5q-150 0 -245 -111.5t-95 -293.5z" />
    <glyph glyph-name="Oogonekmacron" unicode="&#x1ec;" horiz-adv-x="1656" 
d="M526 1604v118h607v-118h-607zM113 727q0 216 95 384t257.5 257.5t363.5 89.5q149 0 281 -52.5t228 -146.5t152 -232t56 -300q0 -233 -100 -407.5t-272 -264.5q-117 -61 -181.5 -119.5t-64.5 -132.5q0 -45 29.5 -70.5t80.5 -25.5q58 0 111 29l6 -4v-127q-71 -29 -139 -29
q-99 0 -160 52.5t-61 140.5q0 111 114 213q-44 -7 -80 -7q-152 0 -283.5 53t-227 149.5t-150.5 238.5t-55 311zM291 727q0 -138 41.5 -251.5t114 -189.5t170.5 -117.5t212 -41.5q113 0 211.5 41.5t171 117.5t114.5 190t42 251q0 130 -42 239.5t-114.5 183.5t-171.5 115.5
t-211 41.5t-211 -41.5t-171 -115.5t-114 -183.5t-42 -239.5z" />
    <glyph glyph-name="oogonekmacron" unicode="&#x1ed;" horiz-adv-x="1230" 
d="M313 1278v119h602v-119h-602zM104 545q0 244 144.5 393t367.5 149t365.5 -149t142.5 -393q0 -170 -62.5 -299t-174.5 -199q-120 -73 -175 -126.5t-55 -119.5q0 -45 29.5 -69.5t81.5 -24.5q65 0 111 27l6 -4v-125q-71 -29 -137 -29q-99 0 -159.5 52t-60.5 141
q0 106 109 208q-8 -2 -33 -2q-226 5 -363 158.5t-137 411.5zM276 545q0 -198 91.5 -316t248.5 -118q153 0 244.5 118.5t91.5 315.5q0 182 -93.5 293.5t-242.5 111.5q-150 0 -245 -111.5t-95 -293.5z" />
    <glyph glyph-name="Ezhcaron" unicode="&#x1ee;" horiz-adv-x="1290" 
d="M545 1546l-256 236h119l221 -137h2l223 137h119l-258 -236h-170zM254 608l657 666h-833v160h1087v-134l-686 -682q115 25 195 25q251 0 403 -145t152 -377q0 -133 -53 -239.5t-145.5 -173.5t-212.5 -102.5t-259 -35.5q-263 0 -475 102l63 135q196 -92 408 -92
q142 0 252 45.5t176 140t66 224.5q0 186 -121.5 287.5t-339.5 101.5q-120 0 -258 -29z" />
    <glyph glyph-name="ezhcaron" unicode="&#x1ef;" horiz-adv-x="1040" 
d="M422 1178l-254 323h121l221 -223h2l221 223h123l-254 -323h-180zM221 406l494 518h-631v139h840v-119l-506 -524q94 12 145 12q192 0 308 -110.5t116 -296.5q0 -141 -71.5 -245.5t-191.5 -156t-271 -51.5q-106 0 -209 25t-178 65l57 131q157 -82 326 -82
q167 0 268.5 85.5t101.5 232.5q0 146 -91 217t-251 71q-102 0 -196 -16z" />
    <glyph glyph-name="jcaron" unicode="&#x1f0;" horiz-adv-x="518" 
d="M184 -57v1114h168v-1108q0 -379 -321 -379q-73 0 -137 22l32 134q51 -15 88 -15q170 0 170 232zM180 1176l-254 323h121l221 -223h2l222 223h122l-254 -323h-180z" />
    <glyph glyph-name="Gacute" unicode="&#x1f4;" horiz-adv-x="1488" 
d="M694 1546l230 275l135 -95l-236 -180h-129zM113 731q0 158 52 293t145.5 230.5t229 149.5t296.5 54q266 0 481 -141l-90 -127q-179 117 -387 117q-246 0 -397.5 -160t-151.5 -416q0 -278 146.5 -441t402.5 -163q199 0 334 84v410h-400v133h561v-633q-101 -70 -230 -108
t-269 -38q-331 0 -527 206.5t-196 549.5z" />
    <glyph glyph-name="gacute" unicode="&#x1f5;" horiz-adv-x="1175" 
d="M492 1176l284 362l121 -92l-289 -270h-116zM66 -150q0 76 47.5 134.5t130.5 95.5q-80 56 -80 145q0 102 104 164q-164 114 -164 311q0 170 126 278.5t313 108.5q166 0 286 -90q124 96 291 93v-129q-148 0 -219 -31q80 -100 80 -230q0 -117 -62 -208t-161 -138t-215 -47
q-103 0 -185 33q-59 -29 -59 -86q0 -27 14.5 -46t38 -31t68.5 -20t90.5 -12t118.5 -8q107 -6 188.5 -22t146 -47.5t98.5 -83.5t34 -123q0 -139 -132.5 -215t-388.5 -76q-245 0 -377 72.5t-132 207.5zM543 432q118 0 196 75t78 193q0 115 -78 190t-196 75t-196.5 -75
t-78.5 -190q0 -117 78.5 -192.5t196.5 -75.5zM596 0q-115 3 -221 27q-67 -23 -107.5 -67t-40.5 -103q0 -166 340 -166q179 0 273 39.5t94 115.5q0 78 -83 112t-255 42z" />
    <glyph glyph-name="Aringacute" unicode="&#x1fa;" horiz-adv-x="1417" 
d="M61 0l527 1393q-94 61 -94 174q0 89 62.5 150t152.5 61t152.5 -61t62.5 -150q0 -111 -97 -174l527 -1393h-189l-129 352h-657l-127 -352h-191zM705 1255l-275 -761h555l-276 761h-4zM709 1434q55 0 93 38.5t38 94.5q0 57 -37.5 95t-93.5 38t-95 -38t-39 -95q0 -55 39 -94
t95 -39zM623 1825l229 274l135 -94l-235 -180h-129z" />
    <glyph glyph-name="aringacute" unicode="&#x1fb;" horiz-adv-x="1085" 
d="M100 246q0 77 35.5 138t94.5 100.5t143 66.5t173 40t193 17v156q0 84 -51.5 133t-155.5 49q-143 0 -335 -98l-66 135q217 104 406 104t280.5 -88t91.5 -237v-531q0 -108 107 -108v-125q-111 0 -169.5 31.5t-86.5 101.5q-142 -156 -348 -156q-140 0 -226 75t-86 196z
M268 258q0 -69 49.5 -110.5t131.5 -41.5q92 0 168 38.5t122 97.5v258q-471 -22 -471 -242zM457 1638l284 363l121 -92l-289 -271h-116zM555 1161q-90 0 -152.5 60t-62.5 149t62.5 149t152.5 60t152.5 -60t62.5 -149t-62.5 -149t-152.5 -60zM555 1235q55 0 94 39.5t39 95.5
q0 57 -38.5 95t-94.5 38t-94.5 -38t-38.5 -95q0 -56 39 -95.5t94 -39.5z" />
    <glyph glyph-name="AEacute" unicode="&#x1fc;" horiz-adv-x="2117" 
d="M55 0l658 1434h1259v-156h-968l137 -473h751v-150h-708l145 -499h658v-156h-801l-99 352h-679l-156 -352h-197zM819 1278l-346 -780h574l-218 780h-10zM926 1546l229 275l135 -95l-235 -180h-129z" />
    <glyph glyph-name="aeacute" unicode="&#x1fd;" horiz-adv-x="1792" 
d="M831 186q-62 -91 -172 -152t-243 -61q-142 0 -229 74.5t-87 196.5q-1 77 35 138t95 100t144 65.5t173.5 39.5t193.5 17v162q0 82 -50.5 131t-153.5 49q-146 0 -338 -98l-68 135q232 107 406 107q267 0 323 -205q63 97 163 151t226 54q144 0 243.5 -63.5t145 -168.5
t45.5 -244q0 -44 -8 -90h-764q3 -203 93.5 -306t255.5 -103q162 0 309 100l78 -115q-176 -127 -394 -127q-288 0 -422 213zM918 639h600q1 92 -24 161.5t-86.5 113.5t-156.5 44q-130 0 -220 -85.5t-113 -233.5zM270 256q0 -67 50.5 -109.5t130.5 -42.5q104 0 191.5 51.5
t133.5 139.5q-32 95 -35 203q-471 -18 -471 -242zM795 1176l284 362l121 -92l-289 -270h-116z" />
    <glyph glyph-name="Oslashacute" unicode="&#x1fe;" horiz-adv-x="1656" 
d="M113 727q0 216 95 384t257.5 257.5t363.5 89.5q228 0 408 -119l127 168l90 -71l-129 -164q105 -99 163 -238t58 -307q0 -169 -55 -311t-151 -238.5t-227.5 -149.5t-283.5 -53q-231 0 -405 117l-129 -166l-90 68l131 168q-223 210 -223 565zM1368 727q0 257 -151 418
l-701 -922q134 -96 313 -96q113 0 211.5 41.5t171 117.5t114.5 190t42 251zM291 727q0 -271 151 -438l699 921q-140 97 -312 97q-112 0 -211 -41.5t-171 -115.5t-114 -183.5t-42 -239.5zM743 1546l230 275l135 -95l-236 -180h-129z" />
    <glyph glyph-name="oslashacute" unicode="&#x1ff;" horiz-adv-x="1230" 
d="M104 545q0 244 144.5 393t367.5 149q163 0 291 -86l121 162l90 -69l-129 -164q135 -151 135 -385q0 -261 -139.5 -415.5t-368.5 -154.5q-169 0 -294 86l-129 -167l-93 67l138 176q-134 156 -134 408zM952 545q0 151 -69 260l-475 -621q85 -73 208 -73q153 0 244.5 118.5
t91.5 315.5zM276 545q0 -173 68 -285l471 619q-84 71 -199 71q-150 0 -245 -111.5t-95 -293.5zM514 1176l285 362l121 -92l-289 -270h-117z" />
    <glyph glyph-name="Adoublegrave" unicode="&#x200;" horiz-adv-x="1417" 
d="M61 0l543 1434h209l541 -1434h-189l-129 352h-657l-127 -352h-191zM705 1255l-275 -761h555l-276 761h-4zM637 1546h-127l-234 180l134 95zM963 1546h-129l-234 180l133 95z" />
    <glyph glyph-name="adoublegrave" unicode="&#x201;" horiz-adv-x="1085" 
d="M100 246q0 77 35.5 138t94.5 100.5t143 66.5t173 40t193 17v156q0 84 -51.5 133t-155.5 49q-143 0 -335 -98l-66 135q217 104 406 104t280.5 -88t91.5 -237v-531q0 -108 107 -108v-125q-111 0 -169.5 31.5t-86.5 101.5q-142 -156 -348 -156q-140 0 -226 75t-86 196z
M268 258q0 -69 49.5 -110.5t131.5 -41.5q92 0 168 38.5t122 97.5v258q-471 -22 -471 -242zM203 1538l270 -362h-113l-280 276zM524 1538l269 -362h-111l-279 276z" />
    <glyph glyph-name="Ainvertedbreve" unicode="&#x202;" horiz-adv-x="1417" 
d="M61 0l543 1434h209l541 -1434h-189l-129 352h-657l-127 -352h-191zM705 1255l-275 -761h555l-276 761h-4zM707 1792q136 0 225 -65t119 -181h-123q-24 60 -81 94.5t-140 34.5q-85 0 -141.5 -34.5t-80.5 -94.5h-123q28 115 118 180.5t227 65.5z" />
    <glyph glyph-name="ainvertedbreve" unicode="&#x203;" horiz-adv-x="1085" 
d="M100 246q0 77 35.5 138t94.5 100.5t143 66.5t173 40t193 17v156q0 84 -51.5 133t-155.5 49q-143 0 -335 -98l-66 135q217 104 406 104t280.5 -88t91.5 -237v-531q0 -108 107 -108v-125q-111 0 -169.5 31.5t-86.5 101.5q-142 -156 -348 -156q-140 0 -226 75t-86 196z
M268 258q0 -69 49.5 -110.5t131.5 -41.5q92 0 168 38.5t122 97.5v258q-471 -22 -471 -242zM555 1509q141 0 230 -89t102 -244h-117q-12 101 -68.5 158t-146.5 57q-91 0 -148.5 -57.5t-68.5 -157.5h-115q10 155 99.5 244t232.5 89z" />
    <glyph glyph-name="Edoublegrave" unicode="&#x204;" horiz-adv-x="1302" 
d="M602 1546h-127l-233 180l133 95zM928 1546h-129l-234 180l133 95zM174 0v1434h983v-156h-809v-475h729v-146h-729v-501h821v-156h-995z" />
    <glyph glyph-name="edoublegrave" unicode="&#x205;" horiz-adv-x="1159" 
d="M104 543q0 247 143 397t365 150q215 0 326 -131.5t111 -344.5q0 -38 -9 -90h-766q3 -197 92 -303t259 -106q160 0 311 100l76 -115q-83 -60 -186 -93.5t-210 -33.5q-242 0 -377 151.5t-135 418.5zM616 958q-130 0 -220 -85.5t-115 -233.5h604q1 92 -24.5 161.5
t-87.5 113.5t-157 44zM256 1538l270 -362h-112l-281 276zM578 1538l268 -362h-111l-278 276z" />
    <glyph glyph-name="Einvertedbreve" unicode="&#x206;" horiz-adv-x="1300" 
d="M172 0v1434h983v-156h-809v-475h729v-146h-729v-501h821v-156h-995zM672 1792q136 0 225 -65t119 -181h-123q-24 60 -81 94.5t-140 34.5q-85 0 -141 -34t-80 -95h-123q28 115 118 180.5t226 65.5z" />
    <glyph glyph-name="einvertedbreve" unicode="&#x207;" horiz-adv-x="1159" 
d="M104 543q0 247 143 397t365 150q215 0 326 -131.5t111 -344.5q0 -38 -9 -90h-766q3 -197 92 -303t259 -106q160 0 311 100l76 -115q-83 -60 -186 -93.5t-210 -33.5q-242 0 -377 151.5t-135 418.5zM616 958q-130 0 -220 -85.5t-115 -233.5h604q1 92 -24.5 161.5
t-87.5 113.5t-157 44zM608 1509q141 0 230 -89t102 -244h-117q-12 101 -68.5 158t-146.5 57q-91 0 -148.5 -57.5t-68.5 -157.5h-115q10 155 99.5 244t232.5 89z" />
    <glyph glyph-name="Idoublegrave" unicode="&#x208;" horiz-adv-x="516" 
d="M172 0v1434h174v-1434h-174zM188 1546h-127l-233 180l133 95zM514 1546h-129l-233 180l133 95z" />
    <glyph glyph-name="idoublegrave" unicode="&#x209;" horiz-adv-x="499" 
d="M166 0v1057h170v-1057h-170zM-106 1538l270 -362h-113l-280 276zM215 1538l268 -362h-110l-279 276z" />
    <glyph glyph-name="Iinvertedbreve" unicode="&#x20a;" horiz-adv-x="516" 
d="M172 0v1434h174v-1434h-174zM258 1792q136 0 225 -65t119 -181h-123q-24 60 -81 94.5t-140 34.5q-85 0 -141 -34t-80 -95h-123q28 115 118 180.5t226 65.5z" />
    <glyph glyph-name="iinvertedbreve" unicode="&#x20b;" horiz-adv-x="499" 
d="M250 1509q141 0 230 -89t102 -244h-117q-12 101 -68.5 158t-146.5 57q-91 0 -148.5 -57.5t-68.5 -157.5h-115q10 155 99.5 244t232.5 89zM166 0v1057h170v-1057h-170z" />
    <glyph glyph-name="Odoublegrave" unicode="&#x20c;" horiz-adv-x="1656" 
d="M760 1546h-127l-234 180l133 95zM1085 1546h-129l-233 180l133 95zM113 727q0 216 95 384t257.5 257.5t363.5 89.5q149 0 281 -52.5t228 -146.5t152 -232t56 -300q0 -169 -55 -311t-151 -238.5t-227.5 -149.5t-283.5 -53t-283.5 53t-227 149.5t-150.5 238.5t-55 311z
M291 727q0 -138 41.5 -251.5t114 -189.5t170.5 -117.5t212 -41.5q113 0 211.5 41.5t171 117.5t114.5 190t42 251q0 130 -42 239.5t-114.5 183.5t-171.5 115.5t-211 41.5t-211 -41.5t-171 -115.5t-114 -183.5t-42 -239.5z" />
    <glyph glyph-name="odoublegrave" unicode="&#x20d;" horiz-adv-x="1230" 
d="M260 1538l270 -362h-112l-281 276zM582 1538l268 -362h-111l-278 276zM104 545q0 244 144.5 393t367.5 149t365.5 -149t142.5 -393q0 -261 -139.5 -415.5t-368.5 -154.5q-232 0 -372 154.5t-140 415.5zM276 545q0 -198 91.5 -316t248.5 -118q153 0 244.5 118.5
t91.5 315.5q0 182 -93.5 293.5t-242.5 111.5q-150 0 -245 -111.5t-95 -293.5z" />
    <glyph glyph-name="Oinvertedbreve" unicode="&#x20e;" horiz-adv-x="1656" 
d="M829 1792q136 0 225.5 -65t119.5 -181h-123q-24 60 -81.5 94.5t-140.5 34.5q-85 0 -141 -34t-80 -95h-123q28 115 118 180.5t226 65.5zM113 727q0 216 95 384t257.5 257.5t363.5 89.5q149 0 281 -52.5t228 -146.5t152 -232t56 -300q0 -169 -55 -311t-151 -238.5
t-227.5 -149.5t-283.5 -53t-283.5 53t-227 149.5t-150.5 238.5t-55 311zM291 727q0 -138 41.5 -251.5t114 -189.5t170.5 -117.5t212 -41.5q113 0 211.5 41.5t171 117.5t114.5 190t42 251q0 130 -42 239.5t-114.5 183.5t-171.5 115.5t-211 41.5t-211 -41.5t-171 -115.5
t-114 -183.5t-42 -239.5z" />
    <glyph glyph-name="oinvertedbreve" unicode="&#x20f;" horiz-adv-x="1230" 
d="M614 1509q141 0 230 -89t102 -244h-117q-12 101 -68.5 158t-146.5 57q-91 0 -148.5 -57.5t-68.5 -157.5h-114q10 155 99 244t232 89zM104 545q0 244 144.5 393t367.5 149t365.5 -149t142.5 -393q0 -261 -139.5 -415.5t-368.5 -154.5q-232 0 -372 154.5t-140 415.5z
M276 545q0 -198 91.5 -316t248.5 -118q153 0 244.5 118.5t91.5 315.5q0 182 -93.5 293.5t-242.5 111.5q-150 0 -245 -111.5t-95 -293.5z" />
    <glyph glyph-name="Rdoublegrave" unicode="&#x210;" horiz-adv-x="1398" 
d="M172 0v1434h600q106 0 191 -24.5t141 -65t93 -96t53 -116t16 -126.5q0 -137 -77 -248t-226 -156l305 -602h-193l-274 578h-455v-578h-174zM346 717h422q83 0 147 24.5t101 66t55.5 91t18.5 105.5q0 121 -79 201.5t-241 80.5h-424v-569zM938 1546h-129l-234 180l134 95z
M612 1546h-127l-233 180l133 95z" />
    <glyph glyph-name="rdoublegrave" unicode="&#x211;" horiz-adv-x="827" 
d="M158 0v1063h153l15 -180q122 207 323 207q70 0 135 -21l-32 -160q-61 23 -125 23q-178 0 -299 -217v-715h-170zM117 1538l270 -362h-113l-280 276zM438 1538l269 -362h-111l-279 276z" />
    <glyph glyph-name="Rinvertedbreve" unicode="&#x212;" horiz-adv-x="1398" 
d="M172 0v1434h600q106 0 191 -24.5t141 -65t93 -96t53 -116t16 -126.5q0 -137 -77 -248t-226 -156l305 -602h-193l-274 578h-455v-578h-174zM346 717h422q83 0 147 24.5t101 66t55.5 91t18.5 105.5q0 121 -79 201.5t-241 80.5h-424v-569zM682 1792q136 0 225 -65t119 -181
h-123q-24 60 -81 94.5t-140 34.5q-85 0 -141 -34t-80 -95h-123q28 115 118 180.5t226 65.5z" />
    <glyph glyph-name="rinvertedbreve" unicode="&#x213;" horiz-adv-x="827" 
d="M471 1509q141 0 230 -89t102 -244h-117q-12 101 -68.5 158t-146.5 57q-91 0 -148.5 -57.5t-68.5 -157.5h-115q10 155 99.5 244t232.5 89zM158 0v1063h153l15 -180q122 207 323 207q70 0 135 -21l-32 -160q-61 23 -125 23q-178 0 -299 -217v-715h-170z" />
    <glyph glyph-name="Udoublegrave" unicode="&#x214;" horiz-adv-x="1466" 
d="M664 1546h-127l-234 180l133 95zM989 1546h-129l-233 180l133 95zM166 530v904h176v-904q0 -190 110 -296.5t281 -106.5t282 106.5t111 296.5v904h174v-904q0 -135 -43.5 -242t-120.5 -174.5t-179.5 -103t-223.5 -35.5t-223.5 35.5t-179.5 103t-120.5 174.5t-43.5 242z
" />
    <glyph glyph-name="udoublegrave" unicode="&#x215;" horiz-adv-x="1179" 
d="M154 344v719h170v-723q0 -110 46 -169.5t156 -59.5q187 0 328 170v782h170v-1063h-154l-14 143q-164 -168 -364 -168q-174 0 -256 97.5t-82 271.5zM233 1538l271 -362h-113l-280 276zM555 1538l268 -362h-110l-279 276z" />
    <glyph glyph-name="Uinvertedbreve" unicode="&#x216;" horiz-adv-x="1466" 
d="M166 530v904h176v-904q0 -190 110 -296.5t281 -106.5t282 106.5t111 296.5v904h174v-904q0 -135 -43.5 -242t-120.5 -174.5t-179.5 -103t-223.5 -35.5t-223.5 35.5t-179.5 103t-120.5 174.5t-43.5 242zM733 1792q136 0 225 -65t119 -181h-123q-24 60 -81 94.5t-140 34.5
q-85 0 -141 -34t-80 -95h-123q28 115 118 180.5t226 65.5z" />
    <glyph glyph-name="uinvertedbreve" unicode="&#x217;" horiz-adv-x="1179" 
d="M588 1509q141 0 230 -89t102 -244h-117q-12 101 -68.5 158t-146.5 57q-91 0 -148.5 -57.5t-68.5 -157.5h-115q10 155 99.5 244t232.5 89zM154 344v719h170v-723q0 -110 46 -169.5t156 -59.5q187 0 328 170v782h170v-1063h-154l-14 143q-164 -168 -364 -168
q-174 0 -256 97.5t-82 271.5z" />
    <glyph glyph-name="Scommaaccent" unicode="&#x218;" horiz-adv-x="1261" 
d="M106 123l87 139q200 -131 442 -131q164 0 250 67t86 177q0 62 -28.5 107.5t-77.5 73t-112 48t-132.5 37.5t-139 36.5t-132.5 50t-112 72t-77.5 109.5t-28.5 156q0 169 133 281t359 112q250 0 475 -108l-68 -144q-196 97 -401 97q-146 0 -231 -66.5t-85 -169.5
q0 -62 28.5 -107.5t77 -73t111.5 -47.5t132.5 -37t139 -36t132.5 -49.5t111.5 -72.5t77 -110.5t28.5 -158.5q0 -177 -132.5 -288.5t-383.5 -111.5q-150 0 -290 41.5t-239 106.5zM502 -113q46 11 86 11q81 0 124.5 -39.5t45.5 -102.5q1 -47 -29 -98.5t-80 -95.5h-121
q97 93 97 166q0 32 -19 49t-55 16q-13 0 -49 -4v98z" />
    <glyph glyph-name="scommaaccent" unicode="&#x219;" horiz-adv-x="972" 
d="M352 -113q46 11 84 11q83 0 126.5 -39.5t43.5 -102.5q3 -47 -27.5 -98.5t-80.5 -95.5h-119q96 96 96 166q0 32 -19 49t-55 16q-17 0 -49 -4v98zM80 86l76 123q156 -96 331 -96q111 0 172.5 42t61.5 121q0 42 -21 73.5t-57 51t-83 34.5t-98.5 28t-102.5 28t-98 38.5
t-83 55t-57 81.5t-21 114q0 140 107.5 223.5t275.5 83.5q183 0 363 -83l-68 -130q-65 34 -145 55t-150 21q-98 0 -156.5 -44t-58.5 -120q0 -47 26.5 -80.5t70 -51t99 -34.5t114 -29t114 -36t99 -55t70 -86t26.5 -129q0 -147 -107 -228.5t-293 -81.5q-226 0 -407 111z" />
    <glyph glyph-name="Tcommaaccent" unicode="&#x21a;" horiz-adv-x="1333" 
d="M580 0v1278h-519v156h1213v-156h-520v-1278h-174zM582 -113q46 11 86 11q81 0 124.5 -39.5t45.5 -102.5q1 -47 -29 -98.5t-80 -95.5h-121q97 93 97 166q0 32 -19 49t-55 16q-13 0 -49 -4v98z" />
    <glyph glyph-name="tcommaaccent" unicode="&#x21b;" horiz-adv-x="800" 
d="M276 -113q46 11 84 11q83 0 126.5 -39.5t43.5 -102.5q3 -47 -27.5 -98.5t-80.5 -95.5h-119q96 96 96 166q0 32 -18.5 49t-54.5 16q-18 0 -50 -4v98zM233 283v649h-186v131h186v311h170v-311h306v-131h-306v-647q0 -170 140 -170q84 0 157 51l66 -111q-112 -80 -242 -80
q-149 0 -220 77t-71 231z" />
    <glyph glyph-name="Hcaron" unicode="&#x21e;" horiz-adv-x="1437" 
d="M172 0v1434h174v-627h746v627h174v-1434h-174v653h-746v-653h-174zM633 1546l-256 236h119l221 -137h2l223 137h119l-258 -236h-170z" />
    <glyph glyph-name="hcaron" unicode="&#x21f;" horiz-adv-x="1185" 
d="M166 0v1546h170v-626q163 170 360 170q174 0 255 -97.5t81 -271.5v-721h-168v723q0 229 -205 229q-184 0 -323 -168v-784h-170zM164 1632l-256 236h119l221 -137h2l223 137h119l-258 -236h-170z" />
    <glyph glyph-name="Adotabove" unicode="&#x226;" horiz-adv-x="1417" 
d="M61 0l543 1434h209l541 -1434h-189l-129 352h-657l-127 -352h-191zM705 1255l-275 -761h555l-276 761h-4zM627 1581v168h159v-168h-159z" />
    <glyph glyph-name="adotabove" unicode="&#x227;" horiz-adv-x="1085" 
d="M100 246q0 77 35.5 138t94.5 100.5t143 66.5t173 40t193 17v156q0 84 -51.5 133t-155.5 49q-143 0 -335 -98l-66 135q217 104 406 104t280.5 -88t91.5 -237v-531q0 -108 107 -108v-125q-111 0 -169.5 31.5t-86.5 101.5q-142 -156 -348 -156q-140 0 -226 75t-86 196z
M268 258q0 -69 49.5 -110.5t131.5 -41.5q92 0 168 38.5t122 97.5v258q-471 -22 -471 -242zM463 1253v168h158v-168h-158z" />
    <glyph glyph-name="Otildemacron" unicode="&#x22c;" horiz-adv-x="1656" 
d="M524 1544q-12 109 35 171.5t135 62.5q42 0 82 -20t66 -44.5t57 -44.5t57 -20q39 0 58.5 29t13.5 81h107q13 -107 -35 -170t-135 -63q-42 0 -82 20t-66 43.5t-57.5 43.5t-59.5 20q-37 0 -56 -28.5t-13 -80.5h-107zM526 1845v119h607v-119h-607zM113 727q0 216 95 384
t257.5 257.5t363.5 89.5q149 0 281 -52.5t228 -146.5t152 -232t56 -300q0 -169 -55 -311t-151 -238.5t-227.5 -149.5t-283.5 -53t-283.5 53t-227 149.5t-150.5 238.5t-55 311zM291 727q0 -138 41.5 -251.5t114 -189.5t170.5 -117.5t212 -41.5q113 0 211.5 41.5t171 117.5
t114.5 190t42 251q0 130 -42 239.5t-114.5 183.5t-171.5 115.5t-211 41.5t-211 -41.5t-171 -115.5t-114 -183.5t-42 -239.5z" />
    <glyph glyph-name="otildemacron" unicode="&#x22d;" horiz-adv-x="1230" 
d="M313 1532v119h602v-119h-602zM104 545q0 244 144.5 393t367.5 149t365.5 -149t142.5 -393q0 -261 -139.5 -415.5t-368.5 -154.5q-232 0 -372 154.5t-140 415.5zM276 545q0 -198 91.5 -316t248.5 -118q153 0 244.5 118.5t91.5 315.5q0 182 -93.5 293.5t-242.5 111.5
q-150 0 -245 -111.5t-95 -293.5zM311 1204q-12 109 35 172.5t135 63.5q42 0 82 -20t65 -44.5t56 -44.5t57 -20q39 0 58.5 28.5t13.5 81.5h105q13 -108 -34 -171.5t-134 -63.5q-41 0 -81 20t-66 43.5t-57.5 43.5t-58.5 20q-38 0 -56.5 -28t-12.5 -81h-107z" />
    <glyph glyph-name="Odotabove" unicode="&#x22e;" horiz-adv-x="1656" 
d="M750 1581v168h159v-168h-159zM113 727q0 216 95 384t257.5 257.5t363.5 89.5q149 0 281 -52.5t228 -146.5t152 -232t56 -300q0 -169 -55 -311t-151 -238.5t-227.5 -149.5t-283.5 -53t-283.5 53t-227 149.5t-150.5 238.5t-55 311zM291 727q0 -138 41.5 -251.5t114 -189.5
t170.5 -117.5t212 -41.5q113 0 211.5 41.5t171 117.5t114.5 190t42 251q0 130 -42 239.5t-114.5 183.5t-171.5 115.5t-211 41.5t-211 -41.5t-171 -115.5t-114 -183.5t-42 -239.5z" />
    <glyph glyph-name="odotabove" unicode="&#x22f;" horiz-adv-x="1230" 
d="M104 545q0 244 144.5 393t367.5 149t365.5 -149t142.5 -393q0 -261 -139.5 -415.5t-368.5 -154.5q-232 0 -372 154.5t-140 415.5zM276 545q0 -198 91.5 -316t248.5 -118q153 0 244.5 118.5t91.5 315.5q0 182 -93.5 293.5t-242.5 111.5q-150 0 -245 -111.5t-95 -293.5z
M535 1253v168h157v-168h-157z" />
    <glyph glyph-name="Odotabovemacron" unicode="&#x230;" horiz-adv-x="1656" 
d="M750 1571v168h159v-168h-159zM526 1845v119h607v-119h-607zM113 727q0 216 95 384t257.5 257.5t363.5 89.5q149 0 281 -52.5t228 -146.5t152 -232t56 -300q0 -169 -55 -311t-151 -238.5t-227.5 -149.5t-283.5 -53t-283.5 53t-227 149.5t-150.5 238.5t-55 311zM291 727
q0 -138 41.5 -251.5t114 -189.5t170.5 -117.5t212 -41.5q113 0 211.5 41.5t171 117.5t114.5 190t42 251q0 130 -42 239.5t-114.5 183.5t-171.5 115.5t-211 41.5t-211 -41.5t-171 -115.5t-114 -183.5t-42 -239.5z" />
    <glyph glyph-name="odotabovemacron" unicode="&#x231;" horiz-adv-x="1230" 
d="M313 1532v119h602v-119h-602zM104 545q0 244 144.5 393t367.5 149t365.5 -149t142.5 -393q0 -261 -139.5 -415.5t-368.5 -154.5q-232 0 -372 154.5t-140 415.5zM276 545q0 -198 91.5 -316t248.5 -118q153 0 244.5 118.5t91.5 315.5q0 182 -93.5 293.5t-242.5 111.5
q-150 0 -245 -111.5t-95 -293.5zM535 1231v168h157v-168h-157z" />
    <glyph glyph-name="dotlessj" unicode="&#x237;" horiz-adv-x="518" 
d="M184 -57v1114h168v-1108q0 -379 -321 -379q-73 0 -137 22l32 134q51 -15 88 -15q170 0 170 232z" />
    <glyph glyph-name="schwa" unicode="&#x259;" horiz-adv-x="1163" 
d="M121 539h766q-5 196 -92.5 301.5t-255.5 105.5q-163 0 -310 -100l-79 117q176 124 393 124q244 0 379 -150t135 -417q0 -164 -66.5 -288.5t-181 -190.5t-258.5 -66q-143 0 -243 62.5t-146.5 165.5t-46.5 237q0 50 6 99zM547 106q129 0 218 84t114 232h-600
q-1 -68 13.5 -123.5t45.5 -99.5t84 -68.5t125 -24.5z" />
    <glyph glyph-name="barredo" unicode="&#x275;" horiz-adv-x="1230" 
d="M104 545q0 244 144.5 393t367.5 149t365.5 -149t142.5 -393q0 -261 -139.5 -415.5t-368.5 -154.5q-232 0 -372 154.5t-140 415.5zM616 111q139 0 228 99.5t104 268.5h-669q15 -170 104.5 -269t232.5 -99zM616 950q-141 0 -234.5 -100t-105.5 -264h674q-10 164 -102.5 264
t-231.5 100z" />
    <glyph glyph-name="ezh" unicode="&#x292;" horiz-adv-x="1040" 
d="M221 406l494 518h-631v139h840v-119l-506 -524q94 12 145 12q192 0 308 -110.5t116 -296.5q0 -141 -71.5 -245.5t-191.5 -156t-271 -51.5q-106 0 -209 25t-178 65l57 131q157 -82 326 -82q167 0 268.5 85.5t101.5 232.5q0 146 -91 217t-251 71q-102 0 -196 -16z" />
    <glyph glyph-name="circumflex" unicode="&#x2c6;" horiz-adv-x="1325" 
d="M326 1176l254 323h180l254 -323h-123l-221 223h-2l-222 -223h-120z" />
    <glyph glyph-name="caron" unicode="&#x2c7;" horiz-adv-x="1325" 
d="M580 1176l-254 323h120l222 -223h2l221 223h123l-254 -323h-180z" />
    <glyph glyph-name="breve" unicode="&#x2d8;" horiz-adv-x="1310" 
d="M664 1165q-142 0 -230 89t-102 245h117q12 -101 68.5 -158t146.5 -57t147 57.5t68 157.5h116q-10 -155 -99.5 -244.5t-231.5 -89.5z" />
    <glyph glyph-name="dotaccent" unicode="&#x2d9;" horiz-adv-x="1286" 
d="M563 1253v168h158v-168h-158z" />
    <glyph glyph-name="ring" unicode="&#x2da;" horiz-adv-x="1298" 
d="M655 1167q-90 0 -152.5 60t-62.5 149t62.5 149t152.5 60t152.5 -60t62.5 -149t-62.5 -149t-152.5 -60zM655 1241q55 0 94 39.5t39 95.5q0 57 -38.5 95t-94.5 38t-94.5 -38t-38.5 -95q0 -56 39 -95.5t94 -39.5z" />
    <glyph glyph-name="ogonek" unicode="&#x2db;" horiz-adv-x="1298" 
d="M799 -268v-127q-71 -29 -137 -29q-100 0 -161 52t-61 141q0 200 328 342l39 -62q-114 -60 -175 -117.5t-61 -128.5q0 -45 30 -70.5t81 -25.5q62 0 111 29z" />
    <glyph glyph-name="tilde" unicode="&#x2dc;" horiz-adv-x="1316" 
d="M358 1229q-12 109 35 172t135 63q42 0 82 -20t65 -44.5t56 -44.5t57 -20q39 0 58.5 29t13.5 82h105q13 -108 -34 -172t-134 -64q-41 0 -81 20t-65.5 43.5t-57 43.5t-58.5 20q-38 0 -57 -27.5t-13 -80.5h-107z" />
    <glyph glyph-name="hungarumlaut" unicode="&#x2dd;" horiz-adv-x="1325" 
d="M313 1176l271 362l123 -86l-281 -276h-113zM637 1176l268 362l121 -86l-278 -276h-111z" />
    <glyph glyph-name="doublegrave" unicode="&#x30f;" horiz-adv-x="1325" 
d="M436 1538l271 -362h-113l-281 276zM758 1538l268 -362h-111l-278 276z" />
    <glyph glyph-name="invertedbreve" unicode="&#x311;" horiz-adv-x="1310" 
d="M664 1509q141 0 229 -89t102 -244h-116q-12 101 -68.5 158t-146.5 57q-91 0 -149 -57.5t-69 -157.5h-114q10 155 99.5 244t232.5 89z" />
    <glyph glyph-name="commaabovecmb" unicode="&#x313;" horiz-adv-x="1292" 
d="M774 1280v-98q-46 -11 -86 -11q-82 0 -125 39t-45 105q0 48 30 99.5t79 94.5h121q-97 -97 -97 -168q0 -30 19 -48.5t55 -18.5q8 0 26 2.5t23 3.5z" />
    <glyph glyph-name="uni0323" unicode="&#x323;" horiz-adv-x="1286" 
d="M563 -365v168h158v-168h-158z" />
    <glyph glyph-name="uni0329" unicode="&#x329;" horiz-adv-x="1286" 
d="M571 -416v310h144v-310h-144z" />
    <glyph glyph-name="pi" unicode="&#x3c0;" horiz-adv-x="1540" 
d="M1413 973h-311v-604q0 -130 58 -183t186 -53v-139q-221 0 -318.5 84t-97.5 291v604h-338v-973h-172v973h-295v143h1288v-143z" />
    <glyph glyph-name="Ddotbelow" unicode="&#x1e0c;" horiz-adv-x="1460" 
d="M172 0v1434h414q369 0 567.5 -187.5t198.5 -521.5q0 -346 -193 -535.5t-573 -189.5h-414zM346 147h250q285 0 432.5 152t147.5 426q0 261 -151 411t-429 150h-250v-1139zM682 -365v168h160v-168h-160z" />
    <glyph glyph-name="ddotbelow" unicode="&#x1e0d;" horiz-adv-x="1206" 
d="M494 -365v168h157v-168h-157zM535 -25q-201 0 -316 151t-115 423q0 253 117.5 395.5t315.5 142.5q183 0 337 -161v620h170v-1546h-147l-16 141q-152 -166 -346 -166zM573 113q165 0 301 155v525q-141 157 -301 157q-141 0 -220 -105.5t-79 -297.5q0 -204 77.5 -319
t221.5 -115z" />
    <glyph glyph-name="Dcedilla" unicode="&#x1e10;" horiz-adv-x="1460" 
d="M698 -94h119q-52 -201 -217 -350l-129 65q162 132 227 285zM172 0v1434h414q369 0 567.5 -187.5t198.5 -521.5q0 -346 -193 -535.5t-573 -189.5h-414zM346 147h250q285 0 432.5 152t147.5 426q0 261 -151 411t-429 150h-250v-1139z" />
    <glyph glyph-name="dcedilla" unicode="&#x1e11;" horiz-adv-x="1206" 
d="M504 -94h119q-52 -201 -217 -350l-130 65q164 133 228 285zM535 -25q-201 0 -316 151t-115 423q0 253 117.5 395.5t315.5 142.5q183 0 337 -161v620h170v-1546h-147l-16 141q-152 -166 -346 -166zM573 113q165 0 301 155v525q-141 157 -301 157q-141 0 -220 -105.5
t-79 -297.5q0 -204 77.5 -319t221.5 -115z" />
    <glyph glyph-name="Hdotbelow" unicode="&#x1e24;" horiz-adv-x="1437" 
d="M172 0v1434h174v-627h746v627h174v-1434h-174v653h-746v-653h-174zM639 -365v168h160v-168h-160z" />
    <glyph glyph-name="hdotbelow" unicode="&#x1e25;" horiz-adv-x="1185" 
d="M166 0v1546h170v-626q163 170 360 170q174 0 255 -97.5t81 -271.5v-721h-168v723q0 229 -205 229q-184 0 -323 -168v-784h-170zM520 -365v168h158v-168h-158z" />
    <glyph glyph-name="Ldotbelow" unicode="&#x1e36;" horiz-adv-x="1239" 
d="M172 0v1434h174v-1278h803v-156h-977zM580 -365v168h159v-168h-159z" />
    <glyph glyph-name="ldotbelow" unicode="&#x1e37;" horiz-adv-x="501" 
d="M170 -365v168h158v-168h-158zM166 0v1546h170v-1546h-170z" />
    <glyph glyph-name="Ldotbelowmacron" unicode="&#x1e38;" horiz-adv-x="1239" 
d="M-43 1604v118h606v-118h-606zM172 0v1434h174v-1278h803v-156h-977zM580 -365v168h159v-168h-159z" />
    <glyph glyph-name="ldotbelowmacron" unicode="&#x1e39;" horiz-adv-x="501" 
d="M-53 1690v118h606v-118h-606zM170 -365v168h158v-168h-158zM166 0v1546h170v-1546h-170z" />
    <glyph glyph-name="Mdotbelow" unicode="&#x1e42;" horiz-adv-x="1740" 
d="M172 0v1434h188l512 -744l512 744h187v-1434h-170v1186l-531 -762l-530 764v-1188h-168zM793 -365v168h159v-168h-159z" />
    <glyph glyph-name="mdotbelow" unicode="&#x1e43;" horiz-adv-x="1824" 
d="M158 0v1063h157l11 -137q73 74 163 119t187 45q220 0 293 -177q177 177 377 177q163 0 244 -98t81 -269v-723h-170v727q0 225 -192 225q-175 0 -310 -157q5 -63 5 -80v-715h-173v727q0 225 -192 225q-179 0 -311 -164v-788h-170zM836 -365v168h157v-168h-157z" />
    <glyph glyph-name="Ndotaccent" unicode="&#x1e44;" horiz-adv-x="1484" 
d="M662 1581v168h159v-168h-159zM172 0v1434h176l797 -1164v1164h168v-1434h-178l-795 1161v-1161h-168z" />
    <glyph glyph-name="ndotaccent" unicode="&#x1e45;" horiz-adv-x="1177" 
d="M512 1253v168h158v-168h-158zM158 0v1063h157l11 -143q163 170 364 170q173 0 254.5 -97.5t81.5 -271.5v-721h-170v723q0 229 -203 229q-187 0 -325 -170v-782h-170z" />
    <glyph glyph-name="Ndotbelow" unicode="&#x1e46;" horiz-adv-x="1484" 
d="M664 -365v168h159v-168h-159zM172 0v1434h176l797 -1164v1164h168v-1434h-178l-795 1161v-1161h-168z" />
    <glyph glyph-name="ndotbelow" unicode="&#x1e47;" horiz-adv-x="1177" 
d="M512 -365v168h158v-168h-158zM158 0v1063h157l11 -143q163 170 364 170q173 0 254.5 -97.5t81.5 -271.5v-721h-170v723q0 229 -203 229q-187 0 -325 -170v-782h-170z" />
    <glyph glyph-name="Rdotbelow" unicode="&#x1e5a;" horiz-adv-x="1398" 
d="M172 0v1434h600q106 0 191 -24.5t141 -65t93 -96t53 -116t16 -126.5q0 -137 -77 -248t-226 -156l305 -602h-193l-274 578h-455v-578h-174zM346 717h422q83 0 147 24.5t101 66t55.5 91t18.5 105.5q0 121 -79 201.5t-241 80.5h-424v-569zM602 -365v168h160v-168h-160z" />
    <glyph glyph-name="rdotbelow" unicode="&#x1e5b;" horiz-adv-x="827" 
d="M158 0v1063h153l15 -180q122 207 323 207q70 0 135 -21l-32 -160q-61 23 -125 23q-178 0 -299 -217v-715h-170zM162 -365v168h157v-168h-157z" />
    <glyph glyph-name="Rdotbelowmacron" unicode="&#x1e5c;" horiz-adv-x="1398" 
d="M172 0v1434h600q106 0 191 -24.5t141 -65t93 -96t53 -116t16 -126.5q0 -137 -77 -248t-226 -156l305 -602h-193l-274 578h-23h-432v-578h-174zM346 717h422q83 0 147 24.5t101 66t55.5 91t18.5 105.5q0 121 -79 201.5t-241 80.5h-424v-569zM379 1604v118h606v-118h-606z
M602 -365v168h160v-168h-160z" />
    <glyph glyph-name="rdotbelowmacron" unicode="&#x1e5d;" horiz-adv-x="827" 
d="M172 1278v119h602v-119h-602zM158 0v1063h153l15 -180q122 207 323 207q70 0 135 -21l-32 -160q-61 23 -125 23q-178 0 -299 -217v-715h-170zM162 -365v168h157v-168h-157z" />
    <glyph glyph-name="Sdotbelow" unicode="&#x1e62;" horiz-adv-x="1261" 
d="M106 123l87 139q200 -131 442 -131q164 0 250 67t86 177q0 62 -28.5 107.5t-77.5 73t-112 48t-132.5 37.5t-139 36.5t-132.5 50t-112 72t-77.5 109.5t-28.5 156q0 169 133 281t359 112q250 0 475 -108l-68 -144q-196 97 -401 97q-146 0 -231 -66.5t-85 -169.5
q0 -62 28.5 -107.5t77 -73t111.5 -47.5t132.5 -37t139 -36t132.5 -49.5t111.5 -72.5t77 -110.5t28.5 -158.5q0 -177 -132.5 -288.5t-383.5 -111.5q-150 0 -290 41.5t-239 106.5zM553 -365v168h160v-168h-160z" />
    <glyph glyph-name="sdotbelow" unicode="&#x1e63;" horiz-adv-x="972" 
d="M80 86l76 123q156 -96 331 -96q111 0 172.5 42t61.5 121q0 42 -21 73.5t-57 51t-83 34.5t-98.5 28t-102.5 28t-98 38.5t-83 55t-57 81.5t-21 114q0 140 107.5 223.5t275.5 83.5q183 0 363 -83l-68 -130q-65 34 -145 55t-150 21q-98 0 -156.5 -44t-58.5 -120
q0 -47 26.5 -80.5t70 -51t99 -34.5t114 -29t114 -36t99 -55t70 -86t26.5 -129q0 -147 -107 -228.5t-293 -81.5q-226 0 -407 111zM401 -365v168h158v-168h-158z" />
    <glyph glyph-name="Tdotbelow" unicode="&#x1e6c;" horiz-adv-x="1333" 
d="M580 0v1278h-519v156h1213v-156h-520v-1278h-174zM588 -365v168h160v-168h-160z" />
    <glyph glyph-name="tdotbelow" unicode="&#x1e6d;" horiz-adv-x="800" 
d="M328 -365v168h157v-168h-157zM233 283v649h-186v131h186v311h170v-311h306v-131h-306v-647q0 -170 140 -170q84 0 157 51l66 -111q-112 -80 -242 -80q-149 0 -220 77t-71 231z" />
    <glyph glyph-name="Wgrave" unicode="&#x1e80;" horiz-adv-x="2117" 
d="M1016 1546l-236 180l133 95l232 -275h-129zM520 0l-454 1434h186l369 -1196h4l350 1196h172l348 -1196h4l371 1196h184l-457 -1434h-192l-344 1171h-4l-344 -1171h-193z" />
    <glyph glyph-name="wgrave" unicode="&#x1e81;" horiz-adv-x="1669" 
d="M408 0l-363 1063h174l281 -852h4l256 852h151l258 -852h5l278 852h170l-360 -1063h-170l-256 825h-5l-253 -825h-170zM817 1176l-289 270l121 92l285 -362h-117z" />
    <glyph glyph-name="Wacute" unicode="&#x1e82;" horiz-adv-x="2117" 
d="M973 1546l229 275l135 -95l-235 -180h-129zM520 0l-454 1434h186l369 -1196h4l350 1196h172l348 -1196h4l371 1196h184l-457 -1434h-192l-344 1171h-4l-344 -1171h-193z" />
    <glyph glyph-name="wacute" unicode="&#x1e83;" horiz-adv-x="1669" 
d="M737 1176l285 362l121 -92l-289 -270h-117zM408 0l-363 1063h174l281 -852h4l256 852h151l258 -852h5l278 852h170l-360 -1063h-170l-256 825h-5l-253 -825h-170z" />
    <glyph glyph-name="Wdieresis" unicode="&#x1e84;" horiz-adv-x="2117" 
d="M1190 1581v168h156v-168h-156zM776 1581v168h158v-168h-158zM520 0l-454 1434h186l369 -1196h4l350 1196h172l348 -1196h4l371 1196h184l-457 -1434h-192l-344 1171h-4l-344 -1171h-193z" />
    <glyph glyph-name="wdieresis" unicode="&#x1e85;" horiz-adv-x="1669" 
d="M956 1253v168h156v-168h-156zM557 1253v168h156v-168h-156zM408 0l-363 1063h174l281 -852h4l256 852h151l258 -852h5l278 852h170l-360 -1063h-170l-256 825h-5l-253 -825h-170z" />
    <glyph glyph-name="hmacronbelow" unicode="&#x1e96;" horiz-adv-x="1185" 
d="M166 0v1546h170v-626q163 170 360 170q174 0 255 -97.5t81 -271.5v-721h-168v723q0 229 -205 229q-184 0 -323 -168v-784h-170zM297 -352v119h602v-119h-602z" />
    <glyph glyph-name="germandbls.cap" unicode="&#x1e9e;" horiz-adv-x="1413" 
d="M166 0v991q0 220 145 343.5t379 123.5q150 0 270.5 -47t191.5 -138t71 -210q0 -116 -75.5 -202.5t-209.5 -121.5q169 -25 265.5 -122t96.5 -244q0 -188 -139.5 -293t-361.5 -105q-116 0 -244 31l33 141q98 -26 196 -26q149 0 245.5 69t96.5 195q0 130 -103 201t-286 71
h-110v142h75q171 0 259 74t88 186q0 119 -98.5 190.5t-260.5 71.5q-161 0 -255.5 -84.5t-94.5 -243.5v-993h-174z" />
    <glyph glyph-name="Idotbelow" unicode="&#x1eca;" horiz-adv-x="516" 
d="M172 0v1434h174v-1434h-174zM180 -365v168h160v-168h-160z" />
    <glyph glyph-name="idotbelow" unicode="&#x1ecb;" horiz-adv-x="499" 
d="M166 0v1057h170v-1057h-170zM166 1327v195h170v-195h-170zM170 -365v168h158v-168h-158z" />
    <glyph glyph-name="Odotbelow" unicode="&#x1ecc;" horiz-adv-x="1656" 
d="M113 727q0 216 95 384t257.5 257.5t363.5 89.5q149 0 281 -52.5t228 -146.5t152 -232t56 -300q0 -169 -55 -311t-151 -238.5t-227.5 -149.5t-283.5 -53t-283.5 53t-227 149.5t-150.5 238.5t-55 311zM291 727q0 -138 41.5 -251.5t114 -189.5t170.5 -117.5t212 -41.5
q113 0 211.5 41.5t171 117.5t114.5 190t42 251q0 130 -42 239.5t-114.5 183.5t-171.5 115.5t-211 41.5t-211 -41.5t-171 -115.5t-114 -183.5t-42 -239.5zM750 -365v168h159v-168h-159z" />
    <glyph glyph-name="odotbelow" unicode="&#x1ecd;" horiz-adv-x="1230" 
d="M535 -365v168h157v-168h-157zM104 545q0 244 144.5 393t367.5 149t365.5 -149t142.5 -393q0 -261 -139.5 -415.5t-368.5 -154.5q-232 0 -372 154.5t-140 415.5zM276 545q0 -198 91.5 -316t248.5 -118q153 0 244.5 118.5t91.5 315.5q0 182 -93.5 293.5t-242.5 111.5
q-150 0 -245 -111.5t-95 -293.5z" />
    <glyph glyph-name="Udotbelow" unicode="&#x1ee4;" horiz-adv-x="1466" 
d="M166 530v904h176v-904q0 -190 110 -296.5t281 -106.5t282 106.5t111 296.5v904h174v-904q0 -135 -43.5 -242t-120.5 -174.5t-179.5 -103t-223.5 -35.5t-223.5 35.5t-179.5 103t-120.5 174.5t-43.5 242zM655 -365v168h160v-168h-160z" />
    <glyph glyph-name="udotbelow" unicode="&#x1ee5;" horiz-adv-x="1179" 
d="M154 344v719h170v-723q0 -110 46 -169.5t156 -59.5q187 0 328 170v782h170v-1063h-154l-14 143q-164 -168 -364 -168q-174 0 -256 97.5t-82 271.5zM510 -365v168h158v-168h-158z" />
    <glyph glyph-name="Ygrave" unicode="&#x1ef2;" horiz-adv-x="1370" 
d="M598 0v584l-541 850h207l420 -682h4l420 682h205l-541 -850v-584h-174zM641 1546l-235 180l133 95l231 -275h-129z" />
    <glyph glyph-name="ygrave" unicode="&#x1ef3;" horiz-adv-x="1040" 
d="M82 -258q79 -31 129 -31q61 0 100 28t66 99l65 168l-395 1057h176l301 -840h4l293 840h172l-448 -1237q-54 -143 -133.5 -199.5t-194.5 -56.5q-95 0 -184 35zM504 1176l-289 270l121 92l285 -362h-117z" />
    <glyph glyph-name="Ytilde" unicode="&#x1ef8;" horiz-adv-x="1370" 
d="M598 0v584l-541 850h207l420 -682h4l420 682h205l-541 -850v-584h-174zM381 1556q-12 109 35 171.5t135 62.5q42 0 82 -20t66 -44.5t57 -44.5t57 -20q39 0 58.5 29.5t13.5 81.5h106q13 -107 -35 -170.5t-135 -63.5q-42 0 -82 20t-65.5 43.5t-57 43.5t-59.5 20
q-37 0 -56.5 -28.5t-13.5 -80.5h-106z" />
    <glyph glyph-name="ytilde" unicode="&#x1ef9;" horiz-adv-x="1040" 
d="M82 -258q79 -31 129 -31q61 0 100 28t66 99l65 168l-395 1057h176l301 -840h4l293 840h172l-448 -1237q-54 -143 -133.5 -199.5t-194.5 -56.5q-95 0 -184 35zM219 1229q-12 109 35 172t135 63q42 0 82 -20t65 -44.5t56 -44.5t57 -20q39 0 58.5 29t13.5 82h104
q13 -108 -34 -172t-134 -64q-41 0 -81 20t-65.5 43.5t-57 43.5t-58.5 20q-38 0 -56.5 -27.5t-12.5 -80.5h-107z" />
    <glyph glyph-name="enspace" unicode="&#x2002;" horiz-adv-x="1024" 
 />
    <glyph glyph-name="emspace" unicode="&#x2003;" horiz-adv-x="2048" 
 />
    <glyph glyph-name="threeperemspace" unicode="&#x2004;" horiz-adv-x="681" 
 />
    <glyph glyph-name="fourperemspace" unicode="&#x2005;" horiz-adv-x="512" 
 />
    <glyph glyph-name="sixperemspace" unicode="&#x2006;" horiz-adv-x="342" 
 />
    <glyph glyph-name="figurespace" unicode="&#x2007;" horiz-adv-x="1269" 
 />
    <glyph glyph-name="punctuationspace" unicode="&#x2008;" horiz-adv-x="491" 
 />
    <glyph glyph-name="thinspace" unicode="&#x2009;" horiz-adv-x="204" 
 />
    <glyph glyph-name="hairspace" unicode="&#x200a;" horiz-adv-x="102" 
 />
    <glyph glyph-name="zerowidthspace" unicode="&#x200b;" horiz-adv-x="0" 
 />
    <glyph glyph-name="endash" unicode="&#x2013;" horiz-adv-x="1210" 
d="M94 461v151h1022v-151h-1022z" />
    <glyph glyph-name="emdash" unicode="&#x2014;" horiz-adv-x="1869" 
d="M96 461v151h1678v-151h-1678z" />
    <glyph glyph-name="quoteleft" unicode="&#x2018;" horiz-adv-x="446" 
d="M317 1159v-239h-190v198q0 131 47.5 205.5t151.5 118.5l43 -76q-127 -62 -127 -207h75z" />
    <glyph glyph-name="quoteright" unicode="&#x2019;" horiz-adv-x="446" 
d="M129 1194v240h190v-199q0 -131 -47 -205.5t-151 -118.5l-43 76q127 62 127 207h-76z" />
    <glyph glyph-name="quotesinglbase" unicode="&#x201a;" horiz-adv-x="446" 
d="M129 0v240h190v-199q0 -131 -47 -205.5t-151 -118.5l-43 76q127 62 127 207h-76z" />
    <glyph glyph-name="quotedblleft" unicode="&#x201c;" horiz-adv-x="856" 
d="M317 1159v-239h-190v198q0 131 47.5 205.5t151.5 118.5l43 -76q-127 -62 -127 -207h75zM727 1159v-239h-190v198q0 131 47 205.5t151 118.5l43 -76q-127 -62 -127 -207h76z" />
    <glyph glyph-name="quotedblright" unicode="&#x201d;" horiz-adv-x="856" 
d="M537 1194v240h190v-199q0 -131 -47.5 -205.5t-151.5 -118.5l-43 76q127 62 127 207h-75zM129 1194v240h190v-199q0 -131 -47 -205.5t-151 -118.5l-43 76q127 62 127 207h-76z" />
    <glyph glyph-name="quotedblbase" unicode="&#x201e;" horiz-adv-x="856" 
d="M537 0v240h190v-199q0 -131 -47.5 -205.5t-151.5 -118.5l-43 76q127 62 127 207h-75zM129 0v240h190v-199q0 -131 -47 -205.5t-151 -118.5l-43 76q127 62 127 207h-76z" />
    <glyph glyph-name="dagger" unicode="&#x2020;" horiz-adv-x="946" 
d="M391 557v324l27 245l-168 -16h-133v145h133l166 -16l-25 254v53h162v-53l-27 -254l170 16h133v-145h-133l-170 16l27 -245v-324h-162z" />
    <glyph glyph-name="daggerdbl" unicode="&#x2021;" horiz-adv-x="940" 
d="M391 172v295l25 221l-166 -20h-133v149h133l166 -16l-19 178l19 186l-166 -18h-133v149h133l166 -18l-25 219v49h162v-49l-27 -217l170 16h127v-149h-127l-170 18l21 -186l-19 -180l168 18h127v-149h-127l-168 20l25 -221v-295h-162z" />
    <glyph glyph-name="bullet" unicode="&#x2022;" horiz-adv-x="1138" 
d="M289 532q0 117 81.5 198t198.5 81t198 -81t81 -198t-81 -197.5t-198 -80.5t-198.5 80.5t-81.5 197.5z" />
    <glyph glyph-name="ellipsis" unicode="&#x2026;" horiz-adv-x="1417" 
d="M129 0v240h190v-240h-190zM614 0v240h191v-240h-191zM1100 0v240h190v-240h-190z" />
    <glyph glyph-name="perthousand" unicode="&#x2030;" horiz-adv-x="2205" 
d="M1509 266q0 121 85 204t210 83t210 -83t85 -204q0 -124 -85 -206.5t-210 -82.5q-126 0 -210.5 82.5t-84.5 206.5zM1626 266q0 -78 51 -131t129 -53q76 0 126 53t50 131q0 77 -50 130t-126 53q-77 0 -128.5 -53t-51.5 -130zM1108 1116h131l-825 -1116h-131zM106 852
q0 121 85 204t210 83t210 -83t85 -204q0 -124 -84.5 -206.5t-210.5 -82.5t-210.5 82.5t-84.5 206.5zM223 852q0 -78 51 -131t129 -53q76 0 127.5 53t51.5 131q0 77 -51.5 129.5t-127.5 52.5q-77 0 -128.5 -52.5t-51.5 -129.5zM829 266q0 121 86 204t211 83t210 -83t85 -204
q0 -124 -85 -206.5t-210 -82.5q-126 0 -211.5 82.5t-85.5 206.5zM946 266q0 -78 52 -131t128 -53t127.5 53t51.5 131q0 77 -51.5 130t-127.5 53t-128 -53t-52 -130z" />
    <glyph glyph-name="guilsinglleft" unicode="&#x2039;" horiz-adv-x="745" 
d="M274 535l355 -445l-121 -90l-410 535l410 530l121 -92z" />
    <glyph glyph-name="guilsinglright" unicode="&#x203a;" horiz-adv-x="745" 
d="M117 90l354 445l-354 438l121 92l409 -530l-409 -535z" />
    <glyph glyph-name="interrobang" unicode="&#x203d;" horiz-adv-x="1089" 
d="M453 422l-15 872v13q-142 -29 -258 -142l-100 101q88 91 201 141.5t243 50.5q204 0 328.5 -101t124.5 -265q0 -75 -22 -136.5t-57 -103t-77.5 -77.5t-85 -69t-77.5 -67.5t-57.5 -83t-22.5 -106.5l-3 -27h-122zM817 1090q0 83 -57.5 141.5t-157.5 77.5l-61 -656
q22 49 60 93.5t73.5 76.5t68.5 68.5t53.5 86t20.5 112.5zM418 0v219h188v-219h-188z" />
    <glyph glyph-name="fraction" unicode="&#x2044;" horiz-adv-x="1320" 
d="M-6 0l1200 1434h133l-1200 -1434h-133z" />
    <glyph glyph-name="zero.sups" unicode="&#x2070;" horiz-adv-x="802" 
d="M68 1386q0 174 94.5 274.5t240.5 100.5q143 0 237.5 -101t94.5 -274t-94.5 -273.5t-237.5 -100.5q-146 0 -240.5 100t-94.5 274zM186 1386q0 -124 60 -198t157 -74q95 0 155 74t60 198q0 125 -60 200t-155 75q-96 0 -156.5 -75t-60.5 -200z" />
    <glyph glyph-name="four.sups" unicode="&#x2074;" horiz-adv-x="686" 
d="M88 1178l-37 88l369 483h131v-477h106v-94h-106v-154h-115v154h-348zM174 1272h262v352z" />
    <glyph glyph-name="five.sups" unicode="&#x2075;" horiz-adv-x="647" 
d="M57 1069l45 90q86 -47 191 -47q79 0 128.5 41t49.5 107q0 60 -40.5 96.5t-111.5 36.5q-60 0 -155 -31l-64 39l17 348h436v-96h-334l-8 -193q64 31 137 31q105 0 174.5 -63.5t69.5 -163.5q0 -116 -84 -185t-213 -69q-138 0 -238 59z" />
    <glyph glyph-name="six.sups" unicode="&#x2076;" horiz-adv-x="690" 
d="M68 1362q0 105 27.5 184.5t75 125t105 67.5t123.5 22q109 0 199 -43l-47 -90q-75 35 -154 35q-83 0 -144 -62t-69 -182q90 74 199 74q108 0 177 -64t69 -169q0 -103 -72.5 -175.5t-196.5 -72.5q-77 0 -134.5 27t-91 76t-50 110.5t-16.5 136.5zM184 1327q5 -99 49 -158
t127 -59q71 0 114.5 42.5t43.5 102.5q0 64 -42.5 105t-108.5 41q-105 0 -183 -74z" />
    <glyph glyph-name="seven.sups" unicode="&#x2077;" horiz-adv-x="616" 
d="M147 1024l293 625h-389v100h514v-80l-289 -645h-129z" />
    <glyph glyph-name="eight.sups" unicode="&#x2078;" horiz-adv-x="714" 
d="M63 1217q0 67 46 115.5t114 70.5q-54 20 -89.5 62.5t-35.5 97.5q0 92 71.5 145t186.5 53q116 0 189 -53t73 -145q0 -54 -36 -97t-90 -63q68 -22 113.5 -70.5t45.5 -115.5q0 -95 -81 -150t-214 -55q-131 0 -212 55t-81 150zM178 1221q0 -54 49 -84.5t129 -30.5t129.5 30.5
t49.5 84.5q0 56 -50 90.5t-129 40.5q-77 -6 -127.5 -40.5t-50.5 -90.5zM356 1444q70 6 109 38t39 83q0 47 -41.5 74.5t-106.5 27.5q-64 0 -105.5 -28t-41.5 -74q0 -51 39.5 -83t107.5 -38z" />
    <glyph glyph-name="nine.sups" unicode="&#x2079;" horiz-adv-x="692" 
d="M84 1067l53 86q74 -43 158 -43q85 0 145 61.5t70 182.5q-95 -74 -199 -74q-109 0 -178.5 65t-69.5 171q0 103 72.5 174t196.5 71q77 0 135.5 -27.5t92.5 -76t50.5 -109.5t16.5 -135q0 -104 -27.5 -183.5t-75 -126t-105.5 -69t-124 -22.5q-116 0 -211 55zM328 1372
q98 0 180 74q-3 100 -47.5 159.5t-130.5 59.5q-70 0 -112 -42.5t-42 -104.5q0 -63 42.5 -104.5t109.5 -41.5z" />
    <glyph glyph-name="plus.sups" unicode="&#x207a;" horiz-adv-x="663" 
d="M55 1335v103h224v223h106v-223h225v-103h-225v-223h-106v223h-224z" />
    <glyph glyph-name="minus.sups" unicode="&#x207b;" horiz-adv-x="663" 
d="M55 1335v103h555v-103h-555z" />
    <glyph glyph-name="equal.sups" unicode="&#x207c;" horiz-adv-x="663" 
d="M57 1204v96h551v-96h-551zM57 1473v98h551v-98h-551z" />
    <glyph glyph-name="parenleft.sups" unicode="&#x207d;" horiz-adv-x="475" 
d="M287 2044h127q-90 -98 -158 -278t-68 -390q0 -211 68.5 -397.5t157.5 -286.5h-127q-96 128 -157.5 305t-61.5 379q0 198 61.5 371.5t157.5 296.5z" />
    <glyph glyph-name="parenright.sups" unicode="&#x207e;" horiz-adv-x="475" 
d="M61 2044h127q96 -125 158 -298t62 -370q0 -202 -61.5 -378.5t-158.5 -305.5h-127q89 100 157.5 286.5t68.5 397.5q0 210 -68 390t-158 278z" />
    <glyph glyph-name="n.sups" unicode="&#x207f;" horiz-adv-x="831" 
d="M117 1024v725h110l9 -92q106 110 245 110q119 0 177.5 -68t58.5 -186v-489h-121v492q0 151 -137 151q-126 0 -221 -113v-530h-121z" />
    <glyph glyph-name="zero.subs" unicode="&#x2080;" horiz-adv-x="802" 
d="M68 362q0 174 94.5 274.5t240.5 100.5q143 0 237.5 -101t94.5 -274t-94.5 -273.5t-237.5 -100.5q-146 0 -240.5 100t-94.5 274zM186 362q0 -124 60 -198t157 -74q95 0 155 74t60 198q0 125 -60 200t-155 75q-96 0 -156.5 -75t-60.5 -200z" />
    <glyph glyph-name="one.subs" unicode="&#x2081;" horiz-adv-x="587" 
d="M289 0v608l-152 -80l-47 86l223 111h93v-725h-117z" />
    <glyph glyph-name="two.subs" unicode="&#x2082;" horiz-adv-x="688" 
d="M88 0v57q-2 68 20 122t58 87t80 59.5t88.5 47t81 41.5t59.5 50t23 66q0 47 -40.5 78t-113.5 31q-106 0 -190 -88l-78 72q52 52 123.5 83t150.5 31q127 0 196.5 -58.5t69.5 -150.5q0 -52 -22 -93t-57.5 -67t-78.5 -48.5t-86 -43t-79 -43.5t-58.5 -57.5t-23.5 -77.5h405
v-98h-528z" />
    <glyph glyph-name="three.subs" unicode="&#x2083;" horiz-adv-x="681" 
d="M76 43l43 94q97 -53 192 -53q83 0 137 37.5t54 95.5q0 56 -42 84.5t-116 28.5h-106v94h100q67 0 103 29.5t36 81.5q0 45 -38.5 74.5t-104.5 29.5q-108 0 -195 -80l-65 76q118 102 262 102q114 0 187 -53t73 -135q0 -117 -111 -164q138 -48 138 -170q0 -106 -89 -167.5
t-221 -61.5q-125 0 -237 57z" />
    <glyph glyph-name="four.subs" unicode="&#x2084;" horiz-adv-x="686" 
d="M88 154l-37 88l369 483h131v-477h106v-94h-106v-154h-115v154h-348zM174 248h262v352z" />
    <glyph glyph-name="five.subs" unicode="&#x2085;" horiz-adv-x="647" 
d="M57 45l45 90q86 -47 191 -47q79 0 128.5 41t49.5 107q0 60 -40.5 96.5t-111.5 36.5q-60 0 -155 -31l-64 39l17 348h436v-96h-334l-8 -193q64 31 137 31q105 0 174.5 -63.5t69.5 -163.5q0 -116 -84 -185t-213 -69q-138 0 -238 59z" />
    <glyph glyph-name="six.subs" unicode="&#x2086;" horiz-adv-x="690" 
d="M68 338q0 105 27.5 184.5t75 125t105 67.5t123.5 22q109 0 199 -43l-47 -90q-75 35 -154 35q-83 0 -144 -62t-69 -182q90 74 199 74q108 0 177 -64t69 -169q0 -103 -72.5 -175.5t-196.5 -72.5q-77 0 -134.5 27t-91 76t-50 110.5t-16.5 136.5zM184 303q5 -99 49 -158
t127 -59q71 0 114.5 42.5t43.5 102.5q0 64 -42.5 105t-108.5 41q-105 0 -183 -74z" />
    <glyph glyph-name="seven.subs" unicode="&#x2087;" horiz-adv-x="616" 
d="M147 0l293 625h-389v100h514v-80l-289 -645h-129z" />
    <glyph glyph-name="eight.subs" unicode="&#x2088;" horiz-adv-x="714" 
d="M63 193q0 67 46 115.5t114 70.5q-54 20 -89.5 62.5t-35.5 97.5q0 92 71.5 145t186.5 53q116 0 189 -53t73 -145q0 -54 -36 -97t-90 -63q68 -22 113.5 -70.5t45.5 -115.5q0 -95 -81 -150t-214 -55q-131 0 -212 55t-81 150zM178 197q0 -54 49 -84.5t129 -30.5t129.5 30.5
t49.5 84.5q0 56 -50 90.5t-129 40.5q-77 -6 -127.5 -40.5t-50.5 -90.5zM356 420q70 6 109 38t39 83q0 47 -41.5 74.5t-106.5 27.5q-64 0 -105.5 -28t-41.5 -74q0 -51 39.5 -83t107.5 -38z" />
    <glyph glyph-name="nine.subs" unicode="&#x2089;" horiz-adv-x="692" 
d="M84 43l53 86q74 -43 158 -43q85 0 145 61.5t70 182.5q-95 -74 -199 -74q-109 0 -178.5 65t-69.5 171q0 103 72.5 174t196.5 71q77 0 135.5 -27.5t92.5 -76t50.5 -109.5t16.5 -135q0 -104 -27.5 -183.5t-75 -126t-105.5 -69t-124 -22.5q-116 0 -211 55zM328 348
q98 0 180 74q-3 100 -47.5 159.5t-130.5 59.5q-70 0 -112 -42.5t-42 -104.5q0 -63 42.5 -104.5t109.5 -41.5z" />
    <glyph glyph-name="parenleft.subs" unicode="&#x208d;" horiz-adv-x="475" 
d="M287 1020h127q-90 -98 -158 -278t-68 -390q0 -211 68.5 -397.5t157.5 -286.5h-127q-96 128 -157.5 305t-61.5 379q0 198 61.5 371.5t157.5 296.5z" />
    <glyph glyph-name="parenright.subs" unicode="&#x208e;" horiz-adv-x="475" 
d="M61 1020h127q96 -125 158 -298t62 -370q0 -202 -61.5 -378.5t-158.5 -305.5h-127q89 100 157.5 286.5t68.5 397.5q0 210 -68 390t-158 278z" />
    <glyph glyph-name="colonmonitary" unicode="&#x20a1;" horiz-adv-x="1224" 
d="M535 -272l61 254q-53 6 -107 22l-65 -276h-102l75 315q-140 72 -218.5 210.5t-78.5 317.5q0 236 150.5 393.5t398.5 174.5l47 200h105l-47 -200q42 -2 106 -17l51 217h103l-60 -245q78 -29 150 -80l-86 -115q-57 40 -100 57l-197 -843q187 6 313 123l101 -103
q-180 -160 -433 -160h-8l-57 -245h-102zM260 571q0 -124 46.5 -222.5t131.5 -158.5l187 807q-164 -25 -264.5 -140.5t-100.5 -285.5zM516 147q66 -25 117 -30l201 868q-64 16 -119 19z" />
    <glyph glyph-name="Euro" unicode="&#x20ac;" horiz-adv-x="1294" 
d="M61 350v109h177q-9 49 -9 106q0 37 7 88h-175v111h199q57 172 204 274.5t341 102.5q231 0 397 -146l-98 -108q-122 112 -295 112q-132 0 -232 -64.5t-147 -178.5h397v-103h-426q-6 -43 -6 -88q0 -62 8 -106h424v-103h-391q50 -113 148.5 -175t228.5 -62q182 0 299 117
l113 -97q-167 -164 -418 -164q-194 0 -339 100.5t-204 274.5h-203z" />
    <glyph glyph-name="litre" unicode="&#x2113;" horiz-adv-x="1001" 
d="M168 381l-43 106q102 48 201 105v543q0 156 69.5 240.5t198.5 84.5q137 0 210 -83.5t73 -235.5q0 -176 -94.5 -318t-284.5 -266v-283q0 -80 29 -119.5t94 -39.5q81 0 131 65l100 -90q-45 -55 -113 -85t-141 -30q-139 0 -205.5 73.5t-66.5 223.5v185q-43 -24 -158 -76z
M498 1133v-426q121 95 179 198t58 228q0 184 -121 184q-116 0 -116 -184z" />
    <glyph glyph-name="numero" unicode="&#x2116;" horiz-adv-x="1921" 
d="M125 0v1116h160l516 -813v813h170v-1116h-162l-512 815v-815h-172zM1137 803q0 138 95 230.5t236 92.5t235.5 -92.5t94.5 -230.5t-94.5 -232t-235.5 -94t-236 94t-95 232zM1272 803q0 -87 57.5 -144t138.5 -57q83 0 139 56.5t56 144.5q0 85 -57.5 143t-137.5 58
q-81 0 -138.5 -58t-57.5 -143z" />
    <glyph glyph-name="servicemark" unicode="&#x2120;" horiz-adv-x="1781" 
d="M893 676v758h135l250 -332l246 332h135v-758h-127v569l-252 -338l-260 338v-569h-127zM82 748l72 92q123 -74 262 -74q93 0 139.5 28.5t46.5 79.5q0 34 -21 58.5t-56 37.5t-79 25t-90.5 20.5t-90.5 25.5t-79 38.5t-56 61t-21 92.5q0 96 81.5 156.5t221.5 60.5
q151 0 297 -66l-56 -96q-123 60 -241 60q-79 0 -126.5 -33t-47.5 -82q0 -38 27 -62.5t70 -37.5t96 -23t105.5 -25t96 -38t71 -67t27.5 -106q0 -99 -80.5 -158t-234.5 -59q-90 0 -179 25.5t-155 65.5z" />
    <glyph glyph-name="trademark" unicode="&#x2122;" horiz-adv-x="1798" 
d="M907 676v758h137l248 -332l246 332h137v-758h-127v569l-252 -338l-260 338v-569h-129zM358 676v643h-284v115h700v-115h-287v-643h-129z" />
    <glyph glyph-name="ohm" unicode="&#x2126;" horiz-adv-x="1587" 
d="M1446 0h-524v131q75 59 141 130.5t123 156t90 181.5t33 192q0 160 -71.5 279t-187 178t-255.5 59q-142 0 -257.5 -59t-187 -178t-71.5 -279q0 -95 33 -192t89.5 -181.5t122 -156t140.5 -130.5v-131h-523v137h342q-70 60 -130.5 130t-113 153.5t-82.5 181t-30 193.5
q0 155 53.5 282.5t145.5 209.5t212.5 126.5t256.5 44.5t256.5 -44.5t212 -126.5t145 -209.5t53.5 -282.5q0 -96 -30.5 -193.5t-83.5 -181.5t-113 -153.5t-129 -129.5h340v-137z" />
    <glyph glyph-name="estimated" unicode="&#x212e;" horiz-adv-x="1380" 
d="M125 547q0 269 167.5 431.5t440.5 162.5q231 0 375.5 -137.5t144.5 -360.5q0 -3 -6 -102l-841 2v-330q127 -115 335 -115q189 0 340 101l70 -105q-183 -121 -410 -121q-274 0 -445 158.5t-171 415.5zM731 1026q-193 0 -325 -113v-268h591l2 291q-111 90 -268 90z" />
    <glyph glyph-name="uni2190" unicode="&#x2190;" 
d="M193 647l643 563l96 -110l-455 -389l490 10h684v-150h-684l-490 11l457 -389l-98 -111z" />
    <glyph glyph-name="uni2191" unicode="&#x2191;" 
d="M469 598l-111 96l564 643l563 -643l-111 -96l-389 455l10 -492v-682h-147v682l10 492z" />
    <glyph glyph-name="uni2192" unicode="&#x2192;" 
d="M1008 1243l643 -563l-643 -565l-99 110l457 389l-489 -10h-684v150h684l489 -11l-455 390z" />
    <glyph glyph-name="uni2193" unicode="&#x2193;" 
d="M358 586l111 96l389 -455l-10 492v682h147v-682l-10 -492l389 455l111 -96l-563 -643z" />
    <glyph glyph-name="uni2196" unicode="&#x2196;" 
d="M436 332l-57 852l852 -56l-8 -145l-598 47l354 -340l483 -483l-106 -107l-482 486l-339 352l47 -598z" />
    <glyph glyph-name="uni2197" unicode="&#x2197;" 
d="M1462 1184l-57 -852l-145 8l47 598l-340 -352l-482 -486l-106 107l483 483l355 340l-599 -47l-8 145z" />
    <glyph glyph-name="uni2198" unicode="&#x2198;" 
d="M1405 952l57 -852l-852 56l8 145l599 -47l-355 340l-483 483l106 107l482 -486l340 -352l-47 598z" />
    <glyph glyph-name="uni2199" unicode="&#x2199;" 
d="M379 100l57 852l146 -8l-47 -598l339 352l482 486l106 -107l-483 -483l-354 -340l598 47l8 -145z" />
    <glyph glyph-name="partialdiff" unicode="&#x2202;" horiz-adv-x="1243" 
d="M1114 522q0 -262 -133 -404.5t-356 -142.5q-229 0 -363.5 137.5t-134.5 358.5q0 208 123.5 336.5t320.5 128.5q214 0 365 -139q-11 125 -34 216.5t-65 162.5t-109 107t-159 36q-84 0 -179.5 -22.5t-160.5 -51.5l-59 127q75 35 186 60.5t211 25.5q125 0 219 -42.5
t156 -119.5t101 -195t55 -258.5t16 -320.5zM946 512q0 26 -1 75t-1 72q-141 144 -342 144q-136 0 -220.5 -88.5t-84.5 -243.5q0 -161 89.5 -257.5t238.5 -96.5q148 0 234.5 103.5t86.5 291.5z" />
    <glyph glyph-name="increment" unicode="&#x2206;" horiz-adv-x="1898" 
d="M125 0l825 1452l822 -1452h-1647zM950 1159l-569 -1012h1126z" />
    <glyph glyph-name="product" unicode="&#x220f;" horiz-adv-x="1712" 
d="M1587 1290h-293v-1290h-168v1290h-540v-1290h-168v1290h-293v144h1462v-144z" />
    <glyph glyph-name="summation" unicode="&#x2211;" horiz-adv-x="1374" 
d="M1249 0h-1124v113l606 618l-573 594v109h1067v-144h-826l541 -559l-578 -588h887v-143z" />
    <glyph glyph-name="minus" unicode="&#x2212;" horiz-adv-x="1257" 
d="M96 459v147h1065v-147h-1065z" />
    <glyph glyph-name="radical" unicode="&#x221a;" horiz-adv-x="1525" 
d="M53 793l-53 147l436 166l234 -858l676 1186h180l-838 -1459h-94l-258 930z" />
    <glyph glyph-name="infinity" unicode="&#x221e;" horiz-adv-x="1689" 
d="M465 274q87 0 168 72.5t139 185.5q-59 113 -139.5 186t-167.5 73q-93 0 -153 -69.5t-60 -189.5t60 -189t153 -69zM457 135q-161 0 -259 105t-98 292q0 186 98 292t259 106q112 0 210.5 -77.5t176.5 -209.5q78 132 177 209.5t210 77.5q161 0 258.5 -106t97.5 -292
q0 -187 -97.5 -292t-258.5 -105q-111 0 -210 77.5t-177 209.5q-78 -132 -176.5 -209.5t-210.5 -77.5zM918 532q57 -113 137.5 -185.5t169.5 -72.5q93 0 153 69t60 189t-60 189.5t-153 69.5q-89 0 -169.5 -73t-137.5 -186z" />
    <glyph glyph-name="integral" unicode="&#x222b;" horiz-adv-x="901" 
d="M492 1153v-1143q0 -232 -127 -336t-365 -104v139q172 0 245.5 72t73.5 227v1143q0 211 109.5 309.5t300.5 98.5q87 0 172 -29l-41 -129q-66 20 -127 20q-241 0 -241 -268z" />
    <glyph glyph-name="approxequal" unicode="&#x2248;" horiz-adv-x="1257" 
d="M98 653q0 9 -1 23t-1 20q0 127 71 202t193 75q63 0 125 -21t112.5 -50.5t98 -59.5t99 -51t98.5 -21q66 0 102.5 43.5t30.5 124.5h133q0 -8 1 -23t1 -22q0 -125 -70.5 -200t-191.5 -75q-63 0 -125 20.5t-112 50t-97.5 59.5t-99 50.5t-98.5 20.5q-68 0 -105 -42.5
t-31 -123.5h-133zM98 127q0 9 -1 23t-1 20q0 126 70.5 200t193.5 74q63 0 125 -20.5t112.5 -50t98 -59t99 -50t98.5 -20.5q66 0 102.5 43.5t30.5 124.5h133q0 -8 1 -23t1 -22q0 -125 -70.5 -201t-191.5 -76q-63 0 -125 21t-112 50.5t-97.5 59.5t-99 51t-98.5 21
q-68 0 -105 -42.5t-31 -123.5h-133z" />
    <glyph glyph-name="notequal" unicode="&#x2260;" horiz-adv-x="1257" 
d="M96 707v147h686l148 211h137l-145 -211h239v-147h-340l-237 -349h577v-147h-678l-145 -211h-137l145 211h-250v147h353l237 349h-590z" />
    <glyph glyph-name="lessequal" unicode="&#x2264;" horiz-adv-x="1314" 
d="M1192 125l-1108 393v170l1108 377v-162l-870 -301l870 -315v-162zM84 0v125h1108v-125h-1108z" />
    <glyph glyph-name="greaterequal" unicode="&#x2265;" horiz-adv-x="1314" 
d="M1233 518l-1108 -393v162l870 315l-870 301v162l1108 -377v-170zM1233 125v-125h-1108v125h1108z" />
    <glyph glyph-name="uni25A0" unicode="&#x25a0;" 
d="M205 0v1434h1431v-1434h-1431z" />
    <glyph glyph-name="uni25A1" unicode="&#x25a1;" 
d="M205 0v1434h1431v-1434h-1431zM303 98h1235v1237h-1235v-1237z" />
    <glyph glyph-name="uni25A3" unicode="&#x25a3;" 
d="M205 0v1434h1431v-1434h-1431zM303 98h1235v1237h-1235v-1237zM535 406l292 309l-292 309l100 96l287 -307l288 305l99 -94l-291 -309l293 -307l-101 -97l-288 305l-289 -305z" />
    <glyph glyph-name="uni25B2" unicode="&#x25b2;" 
d="M246 94l676 1135l673 -1135h-1349z" />
    <glyph glyph-name="uni25B6" unicode="&#x25b6;" 
d="M1489 647l-1135 -676v1350z" />
    <glyph glyph-name="uni25BC" unicode="&#x25bc;" 
d="M1595 1214l-675 -1134l-674 1134h1349z" />
    <glyph glyph-name="uni25C0" unicode="&#x25c0;" 
d="M1489 -29l-1135 676l1135 674v-1350z" />
    <glyph glyph-name="uni25C9" unicode="&#x25c9;" 
d="M702 715q0 -89 64.5 -153t153.5 -64q91 0 155 64t64 153q0 91 -64 155t-155 64q-90 0 -154 -64t-64 -155zM440 715q0 132 64 242.5t174.5 174.5t241.5 64q201 0 341 -140t140 -341q0 -131 -64 -241t-174.5 -174t-242.5 -64q-131 0 -241.5 64t-174.5 174t-64 241zM178 715
q0 151 58.5 288.5t158 237t237 158.5t288.5 59t288.5 -59t237 -158.5t158.5 -237t59 -288.5t-59 -288.5t-158.5 -237t-237 -158t-288.5 -58.5q-202 0 -372.5 99.5t-270 270t-99.5 372.5zM305 715q0 -125 49 -239.5t131.5 -197t197 -131.5t239.5 -49t239.5 49t197.5 131.5
t132 197t49 239.5q0 167 -83 309.5t-225.5 225.5t-309.5 83q-125 0 -239.5 -49t-197 -132t-131.5 -197.5t-49 -239.5z" />
    <glyph glyph-name="lozenge" unicode="&#x25ca;" horiz-adv-x="1292" 
d="M285 719l360 -531l365 531l-365 532zM133 719l512 745l514 -745l-514 -746z" />
    <glyph glyph-name="uni25CB" unicode="&#x25cb;" 
d="M178 715q0 151 58.5 288.5t158 237t237 158.5t288.5 59t288.5 -59t237 -158.5t158.5 -237t59 -288.5t-59 -288.5t-158.5 -237t-237 -158t-288.5 -58.5q-202 0 -372.5 99.5t-270 270t-99.5 372.5zM276 713q0 -175 86.5 -323.5t235.5 -235t324 -86.5t324 86.5t236 235
t87 323.5t-87 324.5t-236 237t-324 87.5t-324 -87.5t-235.5 -237t-86.5 -324.5z" />
    <glyph glyph-name="uni25CD" unicode="&#x25cd;" 
d="M178 715q0 151 58.5 288.5t158 237t237 158.5t288.5 59t288.5 -59t237 -158.5t158.5 -237t59 -288.5t-59 -288.5t-158.5 -237t-237 -158t-288.5 -58.5q-202 0 -372.5 99.5t-270 270t-99.5 372.5zM276 713q0 -175 86.5 -323.5t235.5 -235t324 -86.5t324 86.5t236 235
t87 323.5t-87 324.5t-236 237t-324 87.5t-324 -87.5t-235.5 -237t-86.5 -324.5zM535 406l292 309l-292 309l100 96l287 -307l288 305l99 -94l-291 -309l293 -307l-101 -97l-288 305l-289 -305z" />
    <glyph glyph-name="uni25CE" unicode="&#x25ce;" 
d="M829 715q0 -37 26.5 -62.5t64.5 -25.5q37 0 63.5 25.5t26.5 62.5q0 38 -26.5 65t-63.5 27q-38 0 -64.5 -27t-26.5 -65zM702 715q0 91 64 155t154 64q91 0 155 -64t64 -155q0 -89 -64 -153t-155 -64q-89 0 -153.5 64t-64.5 153zM440 715q0 132 64 242.5t174.5 174.5
t241.5 64q201 0 341 -140t140 -341q0 -131 -64 -241t-174.5 -174t-242.5 -64q-131 0 -241.5 64t-174.5 174t-64 241zM567 715q0 -146 103.5 -249.5t249.5 -103.5q148 0 251 103t103 250q0 148 -103 251t-251 103q-146 0 -249.5 -103.5t-103.5 -250.5zM178 715
q0 151 58.5 288.5t158 237t237 158.5t288.5 59t288.5 -59t237 -158.5t158.5 -237t59 -288.5t-59 -288.5t-158.5 -237t-237 -158t-288.5 -58.5q-202 0 -372.5 99.5t-270 270t-99.5 372.5zM305 715q0 -125 49 -239.5t131.5 -197t197 -131.5t239.5 -49t239.5 49t197.5 131.5
t132 197t49 239.5q0 167 -83 309.5t-225.5 225.5t-309.5 83q-125 0 -239.5 -49t-197 -132t-131.5 -197.5t-49 -239.5z" />
    <glyph glyph-name="uni25CF" unicode="&#x25cf;" 
d="M178 715q0 151 58.5 288.5t158 237t237 158.5t288.5 59t288.5 -59t237 -158.5t158.5 -237t59 -288.5t-59 -288.5t-158.5 -237t-237 -158t-288.5 -58.5q-202 0 -372.5 99.5t-270 270t-99.5 372.5z" />
    <glyph glyph-name="uni25E2" unicode="&#x25e2;" 
d="M1567 0h-1321l1321 1321v-1321z" />
    <glyph glyph-name="uni25E3" unicode="&#x25e3;" 
d="M1597 0h-1321v1321z" />
    <glyph glyph-name="uni25E4" unicode="&#x25e4;" 
d="M276 1434h1321l-1321 -1321v1321z" />
    <glyph glyph-name="uni25E5" unicode="&#x25e5;" 
d="M246 1434h1321v-1321z" />
    <glyph glyph-name="uni2605" unicode="&#x2605;" 
d="M547 207l373 196l370 -196l-71 411l301 295l-416 60l-184 377l-185 -377l-416 -60l302 -295zM178 715q0 151 58.5 288.5t158 237t237 158.5t288.5 59t288.5 -59t237 -158.5t158.5 -237t59 -288.5t-59 -288.5t-158.5 -237t-237 -158t-288.5 -58.5q-202 0 -372.5 99.5
t-270 270t-99.5 372.5z" />
    <glyph glyph-name="uni2620" unicode="&#x2620;" 
d="M981 606q0 42 26.5 65t69.5 23q44 0 84.5 -41.5t40.5 -74.5q0 -28 -29.5 -55t-60.5 -27q-22 0 -37 9.5t-27.5 26.5t-15.5 19q-3 3 -15 12.5t-18 15.5t-12 13.5t-6 13.5zM922 352q-58 0 -58 56q14 99 58 104q43 -5 57 -104q0 -56 -57 -56zM645 578q0 33 40.5 74.5
t84.5 41.5q43 0 69.5 -23t26.5 -65q0 -14 -51 -55q-3 -2 -15.5 -19t-27.5 -26.5t-37 -9.5q-30 0 -60 27t-30 55zM930 1237q-213 0 -335 -108t-122 -295q0 -49 14 -81.5t45 -72.5q15 -43 15 -86q0 -12 -1.5 -20.5t-5.5 -27t-8 -36.5q0 -75 62 -88q73 -13 99 -47.5t26 -114.5
q0 -50 53 -74h301q53 24 53 74q0 80 25.5 114.5t97.5 47.5q64 12 64 88q-3 16 -6.5 30.5t-5 21t-2.5 14.5t-1 18q0 43 15 86q34 44 46.5 82t12.5 92q0 177 -120.5 280t-321.5 103zM178 715q0 151 58.5 288.5t158 237t237 158.5t288.5 59t288.5 -59t237 -158.5t158.5 -237
t59 -288.5t-59 -288.5t-158.5 -237t-237 -158t-288.5 -58.5q-202 0 -372.5 99.5t-270 270t-99.5 372.5z" />
    <glyph glyph-name="interrobangdown" unicode="&#x2e18;" horiz-adv-x="1054" 
d="M637 643l14 -872v-13q142 29 258 142l101 -101q-87 -91 -201 -141.5t-244 -50.5q-204 0 -328 101t-124 265q0 75 22 136.5t57 103t77.5 77.5t85 69t77.5 67.5t57.5 83t22.5 106.5l2 27h123zM272 -25q0 -83 57.5 -141.5t157.5 -77.5l62 656q-22 -49 -60 -93.5t-73.5 -76.5
t-69 -68.5t-54 -86t-20.5 -112.5zM672 1065v-219h-189v219h189z" />
    <glyph glyph-name="anglebracketleft" unicode="&#x3008;" horiz-adv-x="837" 
d="M119 559l422 987h180l-428 -987l426 -969h-178z" />
    <glyph glyph-name="anglebracketright" unicode="&#x3009;" horiz-adv-x="837" 
d="M297 1546l422 -987l-422 -969h-178l426 969l-428 987h180z" />
    <glyph glyph-name="Eacutedotbelow" unicode="&#xe004;" horiz-adv-x="1300" 
d="M584 1546l229 275l135 -95l-235 -180h-129zM172 0v1434h983v-156h-809v-475h729v-146h-729v-501h821v-156h-995zM590 -365v168h160v-168h-160z" />
    <glyph glyph-name="Egravedotbelow" unicode="&#xe005;" horiz-adv-x="1300" 
d="M627 1546l-236 180l133 95l232 -275h-129zM172 0v1434h983v-156h-809v-475h729v-146h-729v-501h821v-156h-995zM590 -365v168h160v-168h-160z" />
    <glyph glyph-name="Hmacronbelow" unicode="&#xe009;" horiz-adv-x="1437" 
d="M172 0v1434h174v-627h746v627h174v-1434h-174v653h-746v-653h-174zM416 -354v118h606v-118h-606z" />
    <glyph glyph-name="Jcaron" unicode="&#xe00c;" horiz-adv-x="1169" 
d="M831 1546l-256 236h119l221 -137h3l223 137h119l-259 -236h-170zM98 272l142 80q92 -221 299 -221q145 0 217.5 90.5t72.5 251.5v961h175v-963q0 -234 -117.5 -365t-339.5 -131q-161 0 -274.5 81t-174.5 216z" />
    <glyph glyph-name="Kcedilla" unicode="&#xe00d;" horiz-adv-x="1372" 
d="M172 0v1434h174v-801l694 801h203l-467 -537l522 -897h-204l-432 766l-316 -360v-406h-174zM612 -94h119q-52 -201 -217 -350l-129 65q162 132 227 285z" />
    <glyph glyph-name="Lcedilla" unicode="&#xe00e;" horiz-adv-x="1239" 
d="M588 -94h119q-52 -199 -218 -350l-129 65q164 133 228 285zM172 0v1434h174v-1278h803v-156h-977z" />
    <glyph glyph-name="Mmacron" unicode="&#xe00f;" horiz-adv-x="1740" 
d="M567 1604v118h607v-118h-607zM172 0v1434h188l512 -744l512 744h187v-1434h-170v1186l-531 -762l-530 764v-1188h-168z" />
    <glyph glyph-name="Mcedilla" unicode="&#xe010;" horiz-adv-x="1740" 
d="M807 -94h119q-52 -201 -217 -350l-129 65q162 132 227 285zM172 0v1434h188l512 -744l512 744h187v-1434h-170v1186l-531 -762l-530 764v-1188h-168z" />
    <glyph glyph-name="Ngrave" unicode="&#xe011;" horiz-adv-x="1484" 
d="M698 1546l-235 180l133 95l231 -275h-129zM172 0v1434h176l797 -1164v1164h168v-1434h-178l-795 1161v-1161h-168z" />
    <glyph glyph-name="Ndieresis" unicode="&#xe012;" horiz-adv-x="1484" 
d="M870 1581v168h156v-168h-156zM457 1581v168h157v-168h-157zM172 0v1434h176l797 -1164v1164h168v-1434h-178l-795 1161v-1161h-168z" />
    <glyph glyph-name="Nmacron" unicode="&#xe013;" horiz-adv-x="1484" 
d="M438 1604v118h606v-118h-606zM172 0v1434h176l797 -1164v1164h168v-1434h-178l-795 1161v-1161h-168z" />
    <glyph glyph-name="Ncedilla" unicode="&#xe014;" horiz-adv-x="1484" 
d="M678 -94h119q-52 -201 -217 -350l-129 65q162 132 227 285zM172 0v1434h176l797 -1164v1164h168v-1434h-178l-795 1161v-1161h-168z" />
    <glyph glyph-name="Ndescender" unicode="&#xe015;" horiz-adv-x="1484" 
d="M172 0v1434h176l797 -1164v1164h168v-1844h-168v410h-10l-795 1161v-1161h-168z" />
    <glyph glyph-name="Ocommaturnedabove" unicode="&#xe017;" horiz-adv-x="1656" 
d="M936 1647v-99q-38 -10 -82 -10q-72 0 -112 34.5t-42 92.5q-1 40 25.5 84t69.5 76h120q-84 -72 -84 -133q0 -25 16 -38.5t44 -11.5q10 0 45 5zM113 727q0 216 95 384t257.5 257.5t363.5 89.5q149 0 281 -52.5t228 -146.5t152 -232t56 -300q0 -169 -55 -311t-151 -238.5
t-227.5 -149.5t-283.5 -53t-283.5 53t-227 149.5t-150.5 238.5t-55 311zM291 727q0 -138 41.5 -251.5t114 -189.5t170.5 -117.5t212 -41.5q113 0 211.5 41.5t171 117.5t114.5 190t42 251q0 130 -42 239.5t-114.5 183.5t-171.5 115.5t-211 41.5t-211 -41.5t-171 -115.5
t-114 -183.5t-42 -239.5z" />
    <glyph glyph-name="Ocedilla" unicode="&#xe01b;" horiz-adv-x="1656" 
d="M766 -94h119q-52 -201 -217 -350l-129 65q162 132 227 285zM113 727q0 216 95 384t257.5 257.5t363.5 89.5q149 0 281 -52.5t228 -146.5t152 -232t56 -300q0 -169 -55 -311t-151 -238.5t-227.5 -149.5t-283.5 -53t-283.5 53t-227 149.5t-150.5 238.5t-55 311zM291 727
q0 -138 41.5 -251.5t114 -189.5t170.5 -117.5t212 -41.5q113 0 211.5 41.5t171 117.5t114.5 190t42 251q0 130 -42 239.5t-114.5 183.5t-171.5 115.5t-211 41.5t-211 -41.5t-171 -115.5t-114 -183.5t-42 -239.5z" />
    <glyph glyph-name="Ounderlineaccent" unicode="&#xe01c;" horiz-adv-x="1656" 
d="M113 727q0 216 95 384t257.5 257.5t363.5 89.5q149 0 281 -52.5t228 -146.5t152 -232t56 -300q0 -169 -55 -311t-151 -238.5t-227.5 -149.5t-283.5 -53t-283.5 53t-227 149.5t-150.5 238.5t-55 311zM291 727q0 -138 41.5 -251.5t114 -189.5t170.5 -117.5t212 -41.5
q113 0 211.5 41.5t171 117.5t114.5 190t42 251q0 130 -42 239.5t-114.5 183.5t-171.5 115.5t-211 41.5t-211 -41.5t-171 -115.5t-114 -183.5t-42 -239.5zM758 -416v310h143v-310h-143z" />
    <glyph glyph-name="Pmacron" unicode="&#xe01e;" horiz-adv-x="1353" 
d="M172 0v1434h569q107 0 192.5 -24.5t141 -65t93 -96t53.5 -116t16 -126.5q0 -64 -16 -124t-54 -117t-94 -99t-142 -67.5t-192 -25.5h-393v-573h-174zM346 717h391q85 0 150 24.5t102 66.5t55.5 91.5t18.5 104.5q0 120 -79.5 201t-242.5 81h-395v-569zM369 1604v118h606
v-118h-606z" />
    <glyph glyph-name="Rcedilla" unicode="&#xe020;" horiz-adv-x="1398" 
d="M172 0v1434h600q106 0 191 -24.5t141 -65t93 -96t53 -116t16 -126.5q0 -137 -77 -248t-226 -156l305 -602h-193l-274 578h-23h-432v-578h-174zM346 717h422q83 0 147 24.5t101 66t55.5 91t18.5 105.5q0 121 -79 201.5t-241 80.5h-424v-569zM618 -94h119
q-52 -201 -217 -350l-129 65q162 132 227 285z" />
    <glyph glyph-name="Euro.LP" unicode="&#xe022;" horiz-adv-x="1398" 
d="M61 469v113h195q-8 63 -8 147q0 61 6 119h-193v113h211q52 232 206 364.5t386 132.5q250 0 436 -160l-92 -120q-154 129 -340 129q-159 0 -266 -92.5t-149 -256.5h446v-110h-467q-6 -56 -6 -117q0 -86 8 -149h465v-111h-440q45 -163 150.5 -253.5t260.5 -90.5
q201 0 344 143l115 -102q-187 -193 -465 -193q-226 0 -379 131t-209 363h-215z" />
    <glyph glyph-name="Umacronbelow" unicode="&#xe023;" horiz-adv-x="1466" 
d="M430 -354v118h606v-118h-606zM166 530v904h176v-904q0 -190 110 -296.5t281 -106.5t282 106.5t111 296.5v904h174v-904q0 -135 -43.5 -242t-120.5 -174.5t-179.5 -103t-223.5 -35.5t-223.5 35.5t-179.5 103t-120.5 174.5t-43.5 242z" />
    <glyph glyph-name="eacutedotbelow" unicode="&#xe028;" horiz-adv-x="1159" 
d="M104 543q0 247 143 397t365 150q215 0 326 -131.5t111 -344.5q0 -38 -9 -90h-766q3 -197 92 -303t259 -106q160 0 311 100l76 -115q-83 -60 -186 -93.5t-210 -33.5q-242 0 -377 151.5t-135 418.5zM616 958q-130 0 -220 -85.5t-115 -233.5h604q1 92 -24.5 161.5
t-87.5 113.5t-157 44zM508 1176l285 362l120 -92l-288 -270h-117zM528 -365v168h158v-168h-158z" />
    <glyph glyph-name="egravedotbelow" unicode="&#xe029;" horiz-adv-x="1159" 
d="M104 543q0 247 143 397t365 150q215 0 326 -131.5t111 -344.5q0 -38 -9 -90h-766q3 -197 92 -303t259 -106q160 0 311 100l76 -115q-83 -60 -186 -93.5t-210 -33.5q-242 0 -377 151.5t-135 418.5zM616 958q-130 0 -220 -85.5t-115 -233.5h604q1 92 -24.5 161.5
t-87.5 113.5t-157 44zM586 1176l-289 270l121 92l284 -362h-116zM526 -365v168h158v-168h-158z" />
    <glyph glyph-name="idotaccent" unicode="&#xe030;" horiz-adv-x="499" 
d="M166 0v1057h170v-1057h-170zM166 1327v195h170v-195h-170z" />
    <glyph glyph-name="kcedilla" unicode="&#xe031;" horiz-adv-x="1097" 
d="M166 0v1546h170v-1028l477 545h193l-324 -358l373 -705h-195l-291 580l-233 -258v-322h-170zM535 -94h118q-52 -201 -217 -350l-129 65q164 133 228 285z" />
    <glyph glyph-name="lcedilla" unicode="&#xe032;" horiz-adv-x="509" 
d="M190 -94h119q-52 -201 -217 -350l-129 65q162 132 227 285zM180 0v1546h170v-1546h-170z" />
    <glyph glyph-name="mmacron" unicode="&#xe033;" horiz-adv-x="1824" 
d="M158 0v1063h157l11 -137q73 74 163 119t187 45q220 0 293 -177q177 177 377 177q163 0 244 -98t81 -269v-723h-170v727q0 225 -192 225q-175 0 -310 -157q5 -63 5 -80v-715h-173v727q0 225 -192 225q-179 0 -311 -164v-788h-170zM612 1278v119h602v-119h-602z" />
    <glyph glyph-name="mcedilla" unicode="&#xe034;" horiz-adv-x="1824" 
d="M842 -94h119q-52 -199 -218 -350l-129 65q164 133 228 285zM158 0v1063h157l11 -137q73 74 163 119t187 45q220 0 293 -177q177 177 377 177q163 0 244 -98t81 -269v-723h-170v727q0 225 -192 225q-175 0 -310 -157q5 -63 5 -80v-715h-173v727q0 225 -192 225
q-179 0 -311 -164v-788h-170z" />
    <glyph glyph-name="ngrave" unicode="&#xe035;" horiz-adv-x="1177" 
d="M571 1176l-288 270l120 92l285 -362h-117zM158 0v1063h157l11 -143q163 170 364 170q173 0 254.5 -97.5t81.5 -271.5v-721h-170v723q0 229 -203 229q-187 0 -325 -170v-782h-170z" />
    <glyph glyph-name="ndieresis" unicode="&#xe036;" horiz-adv-x="1177" 
d="M713 1253v168h155v-168h-155zM313 1253v168h156v-168h-156zM158 0v1063h157l11 -143q163 170 364 170q173 0 254.5 -97.5t81.5 -271.5v-721h-170v723q0 229 -203 229q-187 0 -325 -170v-782h-170z" />
    <glyph glyph-name="nmacron" unicode="&#xe037;" horiz-adv-x="1177" 
d="M289 1278v119h602v-119h-602zM158 0v1063h157l11 -143q163 170 364 170q173 0 254.5 -97.5t81.5 -271.5v-721h-170v723q0 229 -203 229q-187 0 -325 -170v-782h-170z" />
    <glyph glyph-name="ncedilla" unicode="&#xe038;" horiz-adv-x="1177" 
d="M520 -94h119q-52 -201 -217 -350l-129 65q162 132 227 285zM158 0v1063h157l11 -143q163 170 364 170q173 0 254.5 -97.5t81.5 -271.5v-721h-170v723q0 229 -203 229q-187 0 -325 -170v-782h-170z" />
    <glyph glyph-name="ndescender" unicode="&#xe039;" horiz-adv-x="1177" 
d="M158 0v1063h157l11 -143q163 170 364 170q173 0 254.5 -97.5t81.5 -271.5v-1131h-170v1133q0 229 -203 229q-187 0 -325 -170v-782h-170z" />
    <glyph glyph-name="ocommaturnedabove" unicode="&#xe03b;" horiz-adv-x="1230" 
d="M725 1280v-98q-46 -11 -86 -11q-82 0 -125 39t-45 105q0 48 30 99.5t79 94.5h120q-96 -96 -96 -168q0 -30 19 -48.5t55 -18.5q8 0 26 2.5t23 3.5zM104 545q0 244 144.5 393t367.5 149t365.5 -149t142.5 -393q0 -261 -139.5 -415.5t-368.5 -154.5q-232 0 -372 154.5
t-140 415.5zM276 545q0 -198 91.5 -316t248.5 -118q153 0 244.5 118.5t91.5 315.5q0 182 -93.5 293.5t-242.5 111.5q-150 0 -245 -111.5t-95 -293.5z" />
    <glyph glyph-name="ocedilla" unicode="&#xe03f;" horiz-adv-x="1230" 
d="M541 -94h118q-52 -201 -217 -350l-129 65q164 133 228 285zM104 545q0 244 144.5 393t367.5 149t365.5 -149t142.5 -393q0 -261 -139.5 -415.5t-368.5 -154.5q-232 0 -372 154.5t-140 415.5zM276 545q0 -198 91.5 -316t248.5 -118q153 0 244.5 118.5t91.5 315.5
q0 182 -93.5 293.5t-242.5 111.5q-150 0 -245 -111.5t-95 -293.5z" />
    <glyph glyph-name="ounderlineaccent" unicode="&#xe040;" horiz-adv-x="1230" 
d="M543 -416v310h143v-310h-143zM104 545q0 244 144.5 393t367.5 149t365.5 -149t142.5 -393q0 -261 -139.5 -415.5t-368.5 -154.5q-232 0 -372 154.5t-140 415.5zM276 545q0 -198 91.5 -316t248.5 -118q153 0 244.5 118.5t91.5 315.5q0 182 -93.5 293.5t-242.5 111.5
q-150 0 -245 -111.5t-95 -293.5z" />
    <glyph glyph-name="pmacron" unicode="&#xe042;" horiz-adv-x="1204" 
d="M332 137v-547h-168v1473h149l15 -141q151 165 342 165q196 0 313 -142.5t117 -395.5q0 -272 -114.5 -423t-313.5 -151q-188 0 -340 162zM332 268q133 -155 301 -155q143 0 220 115t77 319q0 192 -78.5 297.5t-220.5 105.5q-158 0 -299 -157v-525zM330 1278v119h602v-119
h-602z" />
    <glyph glyph-name="rcedilla" unicode="&#xe044;" horiz-adv-x="827" 
d="M158 0v1063h153l15 -180q122 207 323 207q70 0 135 -21l-32 -160q-61 23 -125 23q-178 0 -299 -217v-715h-170zM172 -94h119q-52 -201 -217 -350l-129 65q162 132 227 285z" />
    <glyph glyph-name="umacronbelow" unicode="&#xe047;" horiz-adv-x="1179" 
d="M154 344v719h170v-723q0 -110 46 -169.5t156 -59.5q187 0 328 170v782h170v-1063h-154l-14 143q-164 -168 -364 -168q-174 0 -256 97.5t-82 271.5zM287 -352v119h602v-119h-602z" />
    <glyph glyph-name="Atilde.small" unicode="&#xe060;" horiz-adv-x="1245" 
d="M57 0l469 1116h193l469 -1116h-182l-111 274h-545l-110 -274h-183zM621 944l-218 -538h439l-217 538h-4zM319 1282q-12 109 35 172.5t135 63.5q42 0 82 -20t65.5 -44.5t56.5 -44.5t57 -20q39 0 58 28.5t13 81.5h105q13 -108 -34 -171.5t-134 -63.5q-41 0 -81 20
t-65.5 43.5t-57 43.5t-58.5 20q-38 0 -57 -28t-13 -81h-107z" />
    <glyph glyph-name="A.small" unicode="&#xe06c;" horiz-adv-x="1245" 
d="M57 0l469 1116h193l469 -1116h-182l-111 274h-545l-110 -274h-183zM621 944l-218 -538h439l-217 538h-4z" />
    <glyph glyph-name="B.small" unicode="&#xe06d;" horiz-adv-x="1206" 
d="M166 0v1116h489q200 0 301 -80.5t101 -212.5q0 -86 -46.5 -151t-129.5 -94q108 -28 167.5 -95.5t59.5 -165.5q0 -151 -114.5 -234t-305.5 -83h-522zM336 627h315q121 0 180.5 47.5t59.5 132.5q0 83 -59.5 129.5t-180.5 46.5h-315v-356zM336 133h352q113 0 180.5 49.5
t67.5 141.5t-66.5 137t-181.5 45h-352v-373z" />
    <glyph glyph-name="C.small" unicode="&#xe06e;" horiz-adv-x="1234" 
d="M109 571q0 123 44 229t121.5 181.5t190 118.5t244.5 43q229 0 405 -129l-88 -117q-141 102 -313 102q-193 0 -313.5 -118.5t-120.5 -309.5q0 -203 119 -328.5t315 -125.5q197 0 329 123l101 -107q-175 -158 -434 -158q-271 0 -435.5 166t-164.5 430z" />
    <glyph glyph-name="D.small" unicode="&#xe06f;" horiz-adv-x="1280" 
d="M166 0v1116h362q311 0 477 -144t166 -401q0 -273 -162 -422t-481 -149h-362zM336 139h199q234 0 350 112.5t116 321.5q0 192 -119 298t-347 106h-199v-838z" />
    <glyph glyph-name="E.small" unicode="&#xe070;" horiz-adv-x="1134" 
d="M166 0v1116h842v-141h-672v-342h602v-131h-602v-361h680v-141h-850z" />
    <glyph glyph-name="F.small" unicode="&#xe071;" horiz-adv-x="1114" 
d="M166 0v1116h831v-141h-661v-344h584v-131h-584v-500h-170z" />
    <glyph glyph-name="G.small" unicode="&#xe072;" horiz-adv-x="1288" 
d="M109 571q0 251 168 411.5t440 160.5q219 0 407 -113l-84 -117q-150 86 -323 86q-196 0 -317 -119t-121 -309q0 -206 117.5 -330t320.5 -124q165 0 272 63v293h-307v125h463v-500q-181 -123 -432 -123q-275 0 -439.5 164t-164.5 432z" />
    <glyph glyph-name="H.small" unicode="&#xe073;" horiz-adv-x="1263" 
d="M166 0v1116h170v-475h592v475h170v-1116h-170v496h-592v-496h-170z" />
    <glyph glyph-name="I.small" unicode="&#xe074;" horiz-adv-x="497" 
d="M164 0v1116h170v-1116h-170z" />
    <glyph glyph-name="J.small" unicode="&#xe075;" horiz-adv-x="1003" 
d="M76 207l127 76q80 -164 241 -164q120 0 179 70t59 196v731h168v-733q0 -189 -99.5 -298.5t-297.5 -109.5q-256 0 -377 232z" />
    <glyph glyph-name="K.small" unicode="&#xe076;" horiz-adv-x="1214" 
d="M166 0v1116h170v-594l569 594h207l-405 -418l442 -698h-197l-360 580l-256 -267v-313h-170z" />
    <glyph glyph-name="L.small" unicode="&#xe077;" horiz-adv-x="1093" 
d="M164 0v1116h170v-971h678v-145h-848z" />
    <glyph glyph-name="M.small" unicode="&#xe078;" horiz-adv-x="1513" 
d="M166 0v1116h174l418 -557l420 557h170v-1116h-166v885l-426 -563l-426 559v-881h-164z" />
    <glyph glyph-name="N.small" unicode="&#xe079;" horiz-adv-x="1298" 
d="M166 0v1116h166l637 -860v860h164v-1116h-166l-637 860v-860h-164z" />
    <glyph glyph-name="O.small" unicode="&#xe07a;" horiz-adv-x="1402" 
d="M109 565q0 125 47.5 233.5t127.5 183.5t189 118t229 43q161 0 296 -72.5t215.5 -206t80.5 -299.5q0 -175 -80 -311t-214.5 -207.5t-297.5 -71.5q-164 0 -298.5 71.5t-214.5 207.5t-80 311zM281 565q0 -199 120.5 -322.5t300.5 -123.5q179 0 300.5 124t121.5 322
q0 188 -123 311t-299 123q-177 0 -299 -123t-122 -311z" />
    <glyph glyph-name="P.small" unicode="&#xe07b;" horiz-adv-x="1208" 
d="M336 555h323q131 0 193.5 61t62.5 150q0 91 -61.5 151t-194.5 60h-323v-422zM166 0v1116h500q113 0 197 -30t131.5 -81t70 -111t22.5 -128q0 -66 -23 -125.5t-70.5 -111t-132.5 -82.5t-197 -31h-328v-416h-170z" />
    <glyph glyph-name="Q.small" unicode="&#xe07c;" horiz-adv-x="1409" 
d="M109 565q0 125 47.5 233.5t127.5 183.5t189 118t229 43q161 0 296 -72.5t215.5 -206t80.5 -299.5q0 -223 -125 -377l152 -122l-84 -97l-158 131q-155 -125 -377 -125q-164 0 -298.5 71.5t-214.5 207.5t-80 311zM756 369l78 94l208 -174q82 119 82 276q0 188 -123 311
t-299 123q-177 0 -299 -123t-122 -311q0 -199 120.5 -322.5t300.5 -123.5q145 0 256 84z" />
    <glyph glyph-name="R.small" unicode="&#xe07d;" horiz-adv-x="1234" 
d="M166 0v1116h514q113 0 198 -30t132.5 -81t70.5 -111t23 -128t-23 -128.5t-79 -113.5t-140 -78l246 -446h-182l-221 422h-25h-344v-422h-170zM336 555h338q131 0 195.5 61.5t64.5 149.5q0 91 -63 151t-195 60h-340v-422z" />
    <glyph glyph-name="S.small" unicode="&#xe07e;" horiz-adv-x="1093" 
d="M96 96l82 125q71 -45 171 -74.5t198 -29.5q139 0 208.5 48t69.5 128q0 47 -24 82t-64.5 56t-93.5 36.5t-111 28.5t-116 28t-111 38.5t-93.5 56t-64.5 85t-24 121.5q0 139 115 228.5t317 89.5q218 0 401 -88l-67 -127q-153 73 -338 73q-121 0 -189.5 -47t-68.5 -123
q0 -46 24 -80t64.5 -54t93.5 -35t111 -27.5t116 -27.5t111 -39t93.5 -57.5t64.5 -88t24 -125.5q0 -145 -113.5 -233.5t-332.5 -88.5q-128 0 -249 33.5t-204 87.5z" />
    <glyph glyph-name="T.small" unicode="&#xe07f;" horiz-adv-x="1155" 
d="M492 0v973h-431v143h1033v-143h-430v-973h-172z" />
    <glyph glyph-name="U.small" unicode="&#xe080;" horiz-adv-x="1275" 
d="M154 426v690h170v-690q0 -147 87.5 -228t225.5 -81q139 0 227 81t88 228v690h172v-690q0 -108 -37.5 -195t-104 -143t-154.5 -85.5t-191 -29.5q-102 0 -189.5 29.5t-153 85.5t-103 143t-37.5 195z" />
    <glyph glyph-name="V.small" unicode="&#xe081;" horiz-adv-x="1204" 
d="M504 0l-453 1116h180l369 -942h4l371 942h178l-455 -1116h-194z" />
    <glyph glyph-name="W.small" unicode="&#xe082;" horiz-adv-x="1804" 
d="M440 0l-385 1116h178l299 -897h5l282 897h174l279 -899h4l301 899h172l-383 -1116h-178l-285 881h-4l-281 -881h-178z" />
    <glyph glyph-name="X.small" unicode="&#xe083;" horiz-adv-x="1236" 
d="M68 0l444 569l-428 547h207l327 -424l330 424h205l-428 -547l444 -569h-204l-349 446l-346 -446h-202z" />
    <glyph glyph-name="Y.small" unicode="&#xe084;" horiz-adv-x="1193" 
d="M510 0v434l-459 682h203l342 -522h4l342 522h203l-463 -682v-434h-172z" />
    <glyph glyph-name="Z.small" unicode="&#xe085;" horiz-adv-x="1167" 
d="M111 0v125l708 848h-706v143h929v-121l-708 -850h731v-145h-954z" />
    <glyph glyph-name="Aacute.small" unicode="&#xe086;" horiz-adv-x="1245" 
d="M526 1229l285 362l121 -92l-289 -270h-117zM57 0l469 1116h193l469 -1116h-182l-111 274h-545l-110 -274h-183zM621 944l-218 -538h439l-217 538h-4z" />
    <glyph glyph-name="Agrave.small" unicode="&#xe087;" horiz-adv-x="1245" 
d="M57 0l469 1116h193l469 -1116h-182l-111 274h-545l-110 -274h-183zM621 944l-218 -538h439l-217 538h-4zM604 1229l-289 270l121 92l285 -362h-117z" />
    <glyph glyph-name="Acircumflex.small" unicode="&#xe088;" horiz-adv-x="1245" 
d="M57 0l469 1116h193l469 -1116h-182l-111 274h-545l-110 -274h-183zM621 944l-218 -538h439l-217 538h-4zM279 1229l253 323h181l254 -323h-123l-221 223h-2l-222 -223h-120z" />
    <glyph glyph-name="Adieresis.small" unicode="&#xe089;" horiz-adv-x="1245" 
d="M745 1307v168h156v-168h-156zM346 1307v168h156v-168h-156zM57 0l469 1116h193l469 -1116h-182l-111 274h-545l-110 -274h-183zM621 944l-218 -538h439l-217 538h-4z" />
    <glyph glyph-name="colonmonitary.LP" unicode="&#xe08a;" horiz-adv-x="1247" 
d="M573 0l35 141q-46 7 -104 25l-41 -166h-101l48 205q-140 72 -218.5 209.5t-78.5 316.5q0 236 150.5 393t398.5 174l32 136h105l-33 -136q59 -3 106 -14l35 150h105l-43 -181q84 -33 147 -79l-84 -113q-47 33 -100 57l-199 -846q188 6 314 123l100 -102
q-178 -158 -432 -158h-6l-31 -135h-105zM272 731q0 -125 47 -223.5t132 -157.5l186 807q-165 -23 -265 -138.5t-100 -287.5zM530 305q63 -24 117 -29l201 871q-49 13 -119 16z" />
    <glyph glyph-name="Aring.small" unicode="&#xe08b;" horiz-adv-x="1245" 
d="M57 0l451 1071q-100 61 -100 178q0 89 62.5 149t152.5 60t152.5 -60t62.5 -149q0 -57 -27.5 -103t-73.5 -75l451 -1071h-182l-111 274h-545l-110 -274h-183zM621 944l-218 -538h439l-217 538h-4zM489 1249q0 -51 31.5 -88t79.5 -45h43q48 8 80.5 45.5t32.5 87.5
q0 57 -38.5 95t-94.5 38t-95 -38t-39 -95z" />
    <glyph glyph-name="Acaron.small" unicode="&#xe08c;" horiz-adv-x="1245" 
d="M532 1229l-253 323h120l222 -223h2l221 223h123l-254 -323h-181zM57 0l469 1116h193l469 -1116h-182l-111 274h-545l-110 -274h-183zM621 944l-218 -538h439l-217 538h-4z" />
    <glyph glyph-name="Amacron.small" unicode="&#xe08d;" horiz-adv-x="1245" 
d="M322 1331v119h602v-119h-602zM57 0l469 1116h193l469 -1116h-182l-111 274h-545l-110 -274h-183zM621 944l-218 -538h439l-217 538h-4z" />
    <glyph glyph-name="Abreve.small" unicode="&#xe08e;" horiz-adv-x="1245" 
d="M57 0l469 1116h193l469 -1116h-182l-111 274h-545l-110 -274h-183zM621 944l-218 -538h439l-217 538h-4zM623 1219q-142 0 -230 88.5t-102 244.5h117q12 -101 68.5 -158t146.5 -57t147 57.5t68 157.5h116q-10 -155 -99.5 -244t-231.5 -89z" />
    <glyph glyph-name="Ainvertedbreve.small" unicode="&#xe08f;" horiz-adv-x="1245" 
d="M57 0l469 1116h193l469 -1116h-182l-111 274h-545l-110 -274h-183zM621 944l-218 -538h439l-217 538h-4zM623 1563q141 0 229 -89.5t102 -244.5h-116q-12 101 -68.5 158t-146.5 57q-91 0 -148.5 -57.5t-68.5 -157.5h-115q10 155 99.5 244.5t232.5 89.5z" />
    <glyph glyph-name="Adoublegrave.small" unicode="&#xe090;" horiz-adv-x="1245" 
d="M57 0l469 1116h193l469 -1116h-182l-111 274h-545l-110 -274h-183zM621 944l-218 -538h439l-217 538h-4zM270 1591l271 -362h-113l-281 276zM592 1591l268 -362h-110l-279 276z" />
    <glyph glyph-name="Adotabove.small" unicode="&#xe091;" horiz-adv-x="1245" 
d="M57 0l469 1116h193l469 -1116h-182l-111 274h-545l-110 -274h-183zM621 944l-218 -538h439l-217 538h-4zM545 1307v168h157v-168h-157z" />
    <glyph glyph-name="Aringacute.small" unicode="&#xe092;" horiz-adv-x="1245" 
d="M57 0l451 1071q-100 61 -100 178q0 89 62.5 149t152.5 60t152.5 -60t62.5 -149q0 -57 -27.5 -103t-73.5 -75l451 -1071h-182l-111 274h-545l-110 -274h-183zM621 944l-218 -538h439l-217 538h-4zM489 1249q0 -51 31.5 -88t79.5 -45h43q48 8 80.5 45.5t32.5 87.5
q0 57 -38.5 95t-94.5 38t-95 -38t-39 -95zM526 1511l285 363l121 -92l-289 -271h-117z" />
    <glyph glyph-name="Adieresismacron.small" unicode="&#xe093;" horiz-adv-x="1245" 
d="M745 1280v168h156v-168h-156zM346 1280v168h156v-168h-156zM322 1585v119h602v-119h-602zM57 0l469 1116h193l469 -1116h-182l-111 274h-545l-110 -274h-183zM621 944l-218 -538h439l-217 538h-4z" />
    <glyph glyph-name="Aogonek.small" unicode="&#xe094;" horiz-adv-x="1245" 
d="M57 0l469 1116h193l469 -1116q-176 -79 -176 -201q0 -43 29 -67.5t75 -24.5q58 0 111 29l4 -4v-127q-67 -29 -139 -29q-93 0 -152 51.5t-59 139.5q0 137 147 233h-22l-111 274h-545l-110 -274h-183zM621 944l-218 -538h439l-217 538h-4z" />
    <glyph glyph-name="AE.small" unicode="&#xe096;" horiz-adv-x="1828" 
d="M63 0l543 1116h1094v-141h-821l110 -342h643v-131h-600l117 -361h561v-141h-696l-84 274h-553l-129 -274h-185zM707 975l-267 -563h449l-172 563h-10z" />
    <glyph glyph-name="AEacute.small" unicode="&#xe097;" horiz-adv-x="1818" 
d="M1004 0l-84 274h-553l-129 -274h-185l543 1116h1094v-141h-822l111 -342h643v-131h-600l117 -361h561v-141h-696zM696 975l-266 -563h449l-172 563h-11zM772 1229l285 362l121 -92l-289 -270h-117z" />
    <glyph glyph-name="AEmacron.small" unicode="&#xe098;" horiz-adv-x="1818" 
d="M53 0l543 1116h1094v-141h-822l111 -342h643v-131h-600l117 -361h561v-141h-696l-84 274h-553l-129 -274h-185zM696 975l-266 -563h449l-172 563h-11zM575 1331v119h603v-119h-603z" />
    <glyph glyph-name="Cacute.small" unicode="&#xe099;" horiz-adv-x="1234" 
d="M569 1229l285 362l121 -92l-289 -270h-117zM109 571q0 123 44 229t121.5 181.5t190 118.5t244.5 43q229 0 405 -129l-88 -117q-141 102 -313 102q-193 0 -313.5 -118.5t-120.5 -309.5q0 -203 119 -328.5t315 -125.5q197 0 329 123l101 -107q-175 -158 -434 -158
q-271 0 -435.5 166t-164.5 430z" />
    <glyph glyph-name="Ccircumflex.small" unicode="&#xe09a;" horiz-adv-x="1234" 
d="M332 1229l254 323h180l254 -323h-123l-221 223h-2l-221 -223h-121zM109 571q0 123 44 229t121.5 181.5t190 118.5t244.5 43q229 0 405 -129l-88 -117q-141 102 -313 102q-193 0 -313.5 -118.5t-120.5 -309.5q0 -203 119 -328.5t315 -125.5q197 0 329 123l101 -107
q-175 -158 -434 -158q-271 0 -435.5 166t-164.5 430z" />
    <glyph glyph-name="Ccaron.small" unicode="&#xe09b;" horiz-adv-x="1234" 
d="M586 1229l-254 323h121l221 -223h2l221 223h123l-254 -323h-180zM109 571q0 123 44 229t121.5 181.5t190 118.5t244.5 43q229 0 405 -129l-88 -117q-141 102 -313 102q-193 0 -313.5 -118.5t-120.5 -309.5q0 -203 119 -328.5t315 -125.5q197 0 329 123l101 -107
q-175 -158 -434 -158q-271 0 -435.5 166t-164.5 430z" />
    <glyph glyph-name="Cdotaccent.small" unicode="&#xe09c;" horiz-adv-x="1234" 
d="M109 571q0 123 44 229t121.5 181.5t190 118.5t244.5 43q229 0 405 -129l-88 -117q-141 102 -313 102q-193 0 -313.5 -118.5t-120.5 -309.5q0 -203 119 -328.5t315 -125.5q197 0 329 123l101 -107q-175 -158 -434 -158q-271 0 -435.5 166t-164.5 430zM588 1307v168h157
v-168h-157z" />
    <glyph glyph-name="Ccedilla.small" unicode="&#xe09d;" horiz-adv-x="1234" 
d="M360 -379q93 74 159.5 167.5t90.5 193.5q-229 29 -365 189.5t-136 399.5q0 123 44 229t121.5 181.5t190 118.5t244.5 43q229 0 405 -129l-88 -117q-141 102 -313 102q-193 0 -313.5 -118.5t-120.5 -309.5q0 -203 119 -328.5t315 -125.5q197 0 329 123l101 -107
q-169 -152 -422 -158q-38 -244 -232 -419z" />
    <glyph glyph-name="Dcaron.small" unicode="&#xe09e;" horiz-adv-x="1280" 
d="M166 0v1116h362q311 0 477 -144t166 -401q0 -273 -162 -422t-481 -149h-362zM336 139h199q234 0 350 112.5t116 321.5q0 192 -119 298t-347 106h-199v-838zM578 1229l-254 323h120l222 -223h2l221 223h123l-254 -323h-180z" />
    <glyph glyph-name="Dcedilla.small" unicode="&#xe09f;" horiz-adv-x="1280" 
d="M166 0v1116h362q311 0 477 -144t166 -401q0 -273 -162 -422t-481 -149h-362zM336 139h199q234 0 350 112.5t116 321.5q0 192 -119 298t-347 106h-199v-838zM604 -94h119q-52 -201 -217 -350l-129 65q162 132 227 285z" />
    <glyph glyph-name="Ddotbelow.small" unicode="&#xe0a0;" horiz-adv-x="1280" 
d="M166 0v1116h362q311 0 477 -144t166 -401q0 -273 -162 -422t-481 -149h-362zM336 139h199q234 0 350 112.5t116 321.5q0 192 -119 298t-347 106h-199v-838zM586 -365v168h157v-168h-157z" />
    <glyph glyph-name="Dcroat.small" unicode="&#xe0a1;" horiz-adv-x="1329" 
d="M221 0v502h-203v119h203v495h363q311 0 477 -144t166 -401q0 -273 -162 -422t-481 -149h-363zM391 139h199q234 0 350.5 112.5t116.5 321.5q0 192 -119 298t-348 106h-199v-359h324v-114h-324v-365z" />
    <glyph glyph-name="Eacute.small" unicode="&#xe0a2;" horiz-adv-x="1134" 
d="M166 0v1116h842v-141h-672v-342h602v-131h-602v-361h680v-141h-850zM498 1229l284 362l121 -92l-289 -270h-116z" />
    <glyph glyph-name="Egrave.small" unicode="&#xe0a3;" horiz-adv-x="1134" 
d="M166 0v1116h842v-141h-672v-342h602v-131h-602v-361h680v-141h-850zM575 1229l-288 270l121 92l284 -362h-117z" />
    <glyph glyph-name="Ecircumflex.small" unicode="&#xe0a4;" horiz-adv-x="1134" 
d="M248 1229l254 323h180l254 -323h-123l-221 223h-2l-221 -223h-121zM166 0v1116h842v-141h-672v-342h602v-131h-602v-361h680v-141h-850z" />
    <glyph glyph-name="Edieresis.small" unicode="&#xe0a5;" horiz-adv-x="1134" 
d="M713 1307v168h155v-168h-155zM313 1307v168h156v-168h-156zM166 0v1116h842v-141h-672v-342h602v-131h-602v-361h680v-141h-850z" />
    <glyph glyph-name="Ecaron.small" unicode="&#xe0a6;" horiz-adv-x="1134" 
d="M502 1229l-254 323h121l221 -223h2l221 223h123l-254 -323h-180zM166 0v1116h842v-141h-672v-342h602v-131h-602v-361h680v-141h-850z" />
    <glyph glyph-name="Emacron.small" unicode="&#xe0a7;" horiz-adv-x="1134" 
d="M166 0v1116h842v-141h-672v-342h602v-131h-602v-361h680v-141h-850zM289 1331v119h602v-119h-602z" />
    <glyph glyph-name="Ebreve.small" unicode="&#xe0a8;" horiz-adv-x="1134" 
d="M166 0v1116h842v-141h-672v-342h602v-131h-602v-361h680v-141h-850zM590 1219q-142 0 -230 88.5t-102 244.5h117q12 -101 68.5 -158t146.5 -57t147 57.5t68 157.5h117q-10 -154 -100 -243.5t-232 -89.5z" />
    <glyph glyph-name="Einvertedbreve.small" unicode="&#xe0a9;" horiz-adv-x="1134" 
d="M166 0v1116h842v-141h-672v-342h602v-131h-602v-361h680v-141h-850zM590 1563q141 0 229.5 -89.5t102.5 -244.5h-117q-12 101 -68.5 158t-146.5 57q-91 0 -148.5 -57.5t-68.5 -157.5h-115q10 155 99.5 244.5t232.5 89.5z" />
    <glyph glyph-name="Edoublegrave.small" unicode="&#xe0aa;" horiz-adv-x="1138" 
d="M170 0v1116h842v-141h-672v-342h602v-131h-602v-361h680v-141h-850zM244 1591l270 -362h-113l-280 276zM565 1591l269 -362h-111l-279 276z" />
    <glyph glyph-name="Edotaccent.small" unicode="&#xe0ab;" horiz-adv-x="1134" 
d="M166 0v1116h842v-141h-672v-342h602v-131h-602v-361h680v-141h-850zM512 1307v168h158v-168h-158z" />
    <glyph glyph-name="Eacutedotbelow.small" unicode="&#xe0ac;" horiz-adv-x="1134" 
d="M166 0v1116h842v-141h-672v-342h602v-131h-602v-361h680v-141h-850zM512 -365v168h158v-168h-158zM498 1229l284 362l121 -92l-289 -270h-116z" />
    <glyph glyph-name="Egravedotbelow.small" unicode="&#xe0ad;" horiz-adv-x="1134" 
d="M166 0v1116h842v-141h-672v-342h602v-131h-602v-361h680v-141h-850zM512 -365v168h158v-168h-158zM575 1229l-288 270l121 92l284 -362h-117z" />
    <glyph glyph-name="Eogonek.small" unicode="&#xe0ae;" horiz-adv-x="1134" 
d="M166 0v1116h842v-141h-672v-342h602v-131h-602v-361h680v-141q-176 -79 -176 -201q0 -43 29 -67.5t75 -24.5q58 0 111 29l4 -4v-127q-67 -29 -139 -29q-93 0 -152 51.5t-59 139.5q0 137 147 233h-690z" />
    <glyph glyph-name="Gacute.small" unicode="&#xe0af;" horiz-adv-x="1288" 
d="M569 1229l285 362l121 -92l-289 -270h-117zM109 571q0 251 168 411.5t440 160.5q219 0 407 -113l-84 -117q-150 86 -323 86q-196 0 -317 -119t-121 -309q0 -206 117.5 -330t320.5 -124q165 0 272 63v293h-307v125h463v-500q-181 -123 -432 -123q-275 0 -439.5 164
t-164.5 432z" />
    <glyph glyph-name="Gcircumflex.small" unicode="&#xe0b0;" horiz-adv-x="1288" 
d="M332 1229l254 323h180l254 -323h-123l-221 223h-2l-221 -223h-121zM109 571q0 251 168 411.5t440 160.5q219 0 407 -113l-84 -117q-150 86 -323 86q-196 0 -317 -119t-121 -309q0 -206 117.5 -330t320.5 -124q165 0 272 63v293h-307v125h463v-500q-181 -123 -432 -123
q-275 0 -439.5 164t-164.5 432z" />
    <glyph glyph-name="Gcaron.small" unicode="&#xe0b2;" horiz-adv-x="1288" 
d="M586 1229l-254 323h121l221 -223h2l221 223h123l-254 -323h-180zM109 571q0 251 168 411.5t440 160.5q219 0 407 -113l-84 -117q-150 86 -323 86q-196 0 -317 -119t-121 -309q0 -206 117.5 -330t320.5 -124q165 0 272 63v293h-307v125h463v-500q-181 -123 -432 -123
q-275 0 -439.5 164t-164.5 432z" />
    <glyph glyph-name="Gbreve.small" unicode="&#xe0b3;" horiz-adv-x="1288" 
d="M109 571q0 251 168 411.5t440 160.5q219 0 407 -113l-84 -117q-150 86 -323 86q-196 0 -317 -119t-121 -309q0 -206 117.5 -330t320.5 -124q165 0 272 63v293h-307v125h463v-500q-181 -123 -432 -123q-275 0 -439.5 164t-164.5 432zM676 1219q-142 0 -230 88.5
t-102 244.5h117q12 -101 68.5 -158t146.5 -57t147 57.5t68 157.5h117q-10 -154 -100 -243.5t-232 -89.5z" />
    <glyph glyph-name="Gdotaccent.small" unicode="&#xe0b4;" horiz-adv-x="1288" 
d="M590 1307v168h158v-168h-158zM109 571q0 251 168 411.5t440 160.5q219 0 407 -113l-84 -117q-150 86 -323 86q-196 0 -317 -119t-121 -309q0 -206 117.5 -330t320.5 -124q165 0 272 63v293h-307v125h463v-500q-181 -123 -432 -123q-275 0 -439.5 164t-164.5 432z" />
    </font>
</defs>
</svg>
